<svg width="20" height="20" viewBox="0 0 20 20" fill="none" xmlns="http://www.w3.org/2000/svg">
<g id="&#231;&#173;&#155;&#233;&#128;&#137;">
<path id="Vector" d="M18.8554 2.2421C18.5819 1.6395 17.98 1.2502 17.3221 1.2502L2.78651 1.25C2.46765 1.24966 2.15579 1.34345 1.89001 1.51962C1.62424 1.69579 1.41639 1.94649 1.29251 2.2403C1.02311 2.8668 1.14791 3.5704 1.61651 4.0395L1.66811 4.1014L7.03521 8.4029C7.09036 8.44536 7.13525 8.49968 7.16656 8.56184C7.19788 8.624 7.21481 8.69241 7.21611 8.762V16.1416C7.21348 16.4422 7.29337 16.7378 7.44707 16.9961C7.60076 17.2544 7.82239 17.4657 8.08781 17.6068L10.4114 18.9012C10.6677 19.035 10.9318 19.1 11.2185 19.1H11.2198C11.675 19.1 12.0989 18.9245 12.4135 18.6058C12.7232 18.2921 12.8905 17.8737 12.8847 17.4262V8.8079C12.8853 8.73987 12.9005 8.67276 12.9292 8.61109C12.9579 8.54942 12.9995 8.49463 13.0512 8.4504L18.4947 4.0982L18.5591 4.0353C18.7807 3.79944 18.9272 3.50304 18.9799 3.18375C19.0327 2.86447 18.9893 2.5367 18.8554 2.2421ZM17.6824 3.1837L17.6748 3.194L12.2987 7.5212C11.9061 7.8378 11.6811 8.3117 11.6811 8.8214V17.4261C11.6816 17.5882 11.5961 17.7416 11.4498 17.8309C11.3783 17.8662 11.2996 17.8846 11.2199 17.8847C11.1414 17.8853 11.064 17.8661 10.9949 17.8289L8.67271 16.5583C8.53011 16.4879 8.44141 16.3324 8.44141 16.1524V8.7737C8.44141 8.2695 8.21211 7.7962 7.81251 7.4751L2.62091 3.3309L2.43881 3.1819C2.33811 3.0397 2.32661 2.856 2.40591 2.7089C2.47861 2.5475 2.63091 2.4512 2.81331 2.4512H17.3211C17.4057 2.45168 17.4886 2.47578 17.5602 2.5208C17.6319 2.56582 17.6895 2.62997 17.7267 2.706C17.7641 2.78197 17.7798 2.86679 17.7719 2.9511C17.7641 3.03541 17.7331 3.11591 17.6824 3.1837Z" fill="#1A49C0"/>
<path id="Vector_2" d="M14.6132 15.7356C14.2939 15.7271 14.0369 15.4585 14.0431 15.1364C14.0431 14.8037 14.2989 14.5345 14.6132 14.5345H18.4297C18.7441 14.5345 18.9998 14.8036 18.9998 15.1344C19.0026 15.2111 18.9901 15.2876 18.9631 15.3595C18.9361 15.4313 18.895 15.4971 18.8423 15.5529C18.7902 15.6086 18.7276 15.6534 18.6581 15.6847C18.5885 15.716 18.5135 15.7332 18.4373 15.7353L18.4297 15.7356H14.6132ZM14.6132 13.0447C14.2944 13.0364 14.0376 12.768 14.0431 12.4467C14.0431 12.1135 14.2989 11.8439 14.6132 11.8439H18.4297C18.7441 11.8439 18.9998 12.1135 18.9998 12.445C19.0033 12.521 18.9916 12.5969 18.9655 12.6683C18.9393 12.7397 18.8992 12.8052 18.8475 12.8609C18.7963 12.9163 18.7347 12.9611 18.6662 12.9926C18.5976 13.024 18.5236 13.0416 18.4482 13.0443L18.4297 13.0448H14.6132V13.0447ZM14.6132 10.3539C14.2944 10.3456 14.0376 10.0772 14.0431 9.7558C14.0431 9.4233 14.2989 9.1543 14.6132 9.1543H18.4297C18.7441 9.1543 18.9998 9.4233 18.9998 9.7541C19.0058 9.9112 18.9517 10.0575 18.8475 10.17C18.7433 10.2825 18.6015 10.3476 18.4482 10.3535L18.4289 10.3539H14.6132Z" fill="#1A49C0"/>
</g>
</svg>
