<svg width="16" height="16" viewBox="0 0 16 16" fill="none" xmlns="http://www.w3.org/2000/svg">
<g id="&#231;&#169;&#186;&#233;&#151;&#180;" clip-path="url(#clip0_704_2972)">
<path id="Vector" d="M8.48375 1.71569C8.19125 1.51694 7.80875 1.51694 7.51625 1.71569L1.93476 5.50771C1.69251 5.67271 1.54626 5.95021 1.54626 6.24721V13.5447C1.54626 14.0352 1.93701 14.4335 2.4185 14.4335H5.1515V10.8575C5.1515 9.77748 6.01025 8.90222 7.07 8.90222H8.93C9.98975 8.90222 10.8492 9.77822 10.8492 10.8575V14.4327H13.5815C14.063 14.4327 14.4537 14.0352 14.4537 13.544V6.24646C14.4537 5.94946 14.3075 5.67196 14.0652 5.50696L8.48375 1.71494V1.71569ZM6.93575 0.828436C7.24942 0.614457 7.6203 0.5 8 0.5C8.3797 0.5 8.75058 0.614457 9.06425 0.828436L14.6457 4.62045C14.91 4.80154 15.126 5.0445 15.2749 5.32817C15.4238 5.61183 15.5011 5.9276 15.5 6.24796V13.5447C15.5 14.6247 14.6412 15.5 13.5815 15.5H10.325C10.2556 15.4994 10.187 15.4851 10.1231 15.458C10.0592 15.4309 10.0013 15.3914 9.95269 15.3419C9.90407 15.2924 9.86569 15.2338 9.83974 15.1694C9.8138 15.105 9.8008 15.0361 9.8015 14.9667V10.8582C9.8015 10.3677 9.4115 9.96948 8.92925 9.96948H7.06925C6.587 9.96948 6.197 10.3677 6.197 10.8582V14.9667C6.19769 15.0361 6.1847 15.105 6.15875 15.1694C6.13281 15.2338 6.09443 15.2924 6.04581 15.3419C5.99719 15.3914 5.93928 15.4309 5.87539 15.458C5.81151 15.4851 5.7429 15.4994 5.6735 15.5H2.42C1.35801 15.5 0.500007 14.6247 0.500007 13.5447V6.24721C0.499145 5.92691 0.576595 5.61125 0.725614 5.32772C0.874632 5.04419 1.0907 4.80139 1.35501 4.62045L6.93575 0.828436Z" fill="#868686"/>
</g>
<defs>
<clipPath id="clip0_704_2972">
<rect width="16" height="16" fill="white"/>
</clipPath>
</defs>
</svg>
