<svg width="50" height="50" viewBox="0 0 50 50" fill="none" xmlns="http://www.w3.org/2000/svg">
<g id="&#230;&#136;&#144;&#229;&#138;&#159;" clip-path="url(#clip0_710_6933)">
<path id="Vector" d="M25 0C38.8075 0 50 11.1925 50 25C50 38.8075 38.8075 50 25 50C11.1925 50 0 38.8075 0 25C0 11.1925 11.1925 0 25 0ZM19.2917 30.7794L13.9842 25.4719C13.7536 25.2331 13.4777 25.0427 13.1727 24.9117C12.8677 24.7806 12.5397 24.7117 12.2077 24.7088C11.8758 24.7059 11.5466 24.7692 11.2393 24.8949C10.9321 25.0206 10.653 25.2062 10.4182 25.4409C10.1835 25.6756 9.99786 25.9548 9.87215 26.262C9.74645 26.5693 9.6832 26.8985 9.68608 27.2304C9.68897 27.5624 9.75793 27.8904 9.88896 28.1954C10.02 28.5004 10.2104 28.7763 10.4492 29.0069L17.5217 36.0794C17.9905 36.5481 18.6263 36.8114 19.2892 36.8114C19.9521 36.8114 20.5879 36.5481 21.0567 36.0794L38.7317 18.4019C38.9761 18.1728 39.1719 17.8969 39.3075 17.5906C39.4432 17.2843 39.5159 16.9538 39.5213 16.6189C39.5267 16.2839 39.4648 15.9513 39.3392 15.6408C39.2136 15.3302 39.0268 15.0481 38.79 14.8111C38.5532 14.5742 38.2712 14.3872 37.9608 14.2614C37.6503 14.1355 37.3177 14.0734 36.9828 14.0786C36.6479 14.0838 36.3174 14.1563 36.011 14.2917C35.7046 14.4271 35.4285 14.6227 35.1992 14.8669L19.2892 30.7744L19.2917 30.7794Z" fill="#24C423"/>
</g>
<defs>
<clipPath id="clip0_710_6933">
<rect width="50" height="50" fill="white"/>
</clipPath>
</defs>
</svg>
