<svg width="16" height="16" viewBox="0 0 16 16" fill="none" xmlns="http://www.w3.org/2000/svg">
<g id="&#230;&#151;&#182;&#233;&#151;&#180;" clip-path="url(#clip0_704_2968)">
<g id="Group 2989">
<path id="Vector" d="M8.00002 0.5C6.01089 0.5 4.10323 1.29018 2.69671 2.69671C1.29018 4.10323 0.5 6.01089 0.5 8.00002C0.5 9.98915 1.29018 11.8968 2.69671 13.3033C4.10323 14.7099 6.01089 15.5 8.00002 15.5C9.98915 15.5 11.8968 14.7099 13.3033 13.3033C14.7099 11.8968 15.5 9.98915 15.5 8.00002C15.5 6.01089 14.7099 4.10323 13.3033 2.69671C11.8968 1.29018 9.98915 0.5 8.00002 0.5ZM8.00002 1.58696C9.70088 1.58696 11.3321 2.26262 12.5347 3.4653C13.7374 4.66799 14.4131 6.29917 14.4131 8.00002C14.4131 9.70088 13.7374 11.3321 12.5347 12.5347C11.3321 13.7374 9.70088 14.4131 8.00002 14.4131C6.29917 14.4131 4.66799 13.7374 3.4653 12.5347C2.26262 11.3321 1.58696 9.70088 1.58696 8.00002C1.58696 6.29917 2.26262 4.66799 3.4653 3.4653C4.66799 2.26262 6.29917 1.58696 8.00002 1.58696Z" fill="#868686"/>
<path id="Vector_2" d="M8.54399 7.45721V3.65285C8.54399 3.50872 8.48673 3.37048 8.38481 3.26856C8.28289 3.16663 8.14465 3.10938 8.00051 3.10938C7.85637 3.10938 7.71814 3.16663 7.61621 3.26856C7.51429 3.37048 7.45703 3.50872 7.45703 3.65285V7.56591C7.45703 8.10591 7.89529 8.54417 8.43529 8.54417H12.3484C12.4925 8.54417 12.6307 8.48692 12.7326 8.38499C12.8346 8.28307 12.8918 8.14483 12.8918 8.00069C12.8918 7.85655 12.8346 7.71832 12.7326 7.6164C12.6307 7.51447 12.4925 7.45721 12.3484 7.45721H8.54399Z" fill="#868686"/>
</g>
</g>
<defs>
<clipPath id="clip0_704_2968">
<rect width="16" height="16" fill="white"/>
</clipPath>
</defs>
</svg>
