<svg width="14" height="14" viewBox="0 0 14 14" fill="none" xmlns="http://www.w3.org/2000/svg">
<g id="&#231;&#148;&#179;&#232;&#175;&#183;&#233;&#161;&#187;&#231;&#159;&#165;" clip-path="url(#clip0_788_17767)">
<path id="Vector" d="M7.35 12.2247L8.5351 11.4344C8.7661 11.2804 9.0349 11.1992 9.3121 11.1992H13.3V1.39922H9.2134L7.4424 1.98932C7.41193 1.9997 7.38111 2.00904 7.35 2.01732V12.2247ZM6.65 12.2247V2.01662C6.6189 2.00857 6.58808 1.99946 6.5576 1.98932L4.7866 1.39922H0.7V11.1992H4.6879C4.9651 11.1992 5.2339 11.2804 5.4649 11.4344L6.65 12.2247ZM13.3 0.699219C13.4857 0.699219 13.6637 0.772969 13.795 0.904244C13.9262 1.03552 14 1.21357 14 1.39922V11.1992C14 11.2911 13.9819 11.3822 13.9467 11.4671C13.9115 11.552 13.86 11.6292 13.795 11.6942C13.73 11.7592 13.6528 11.8108 13.5679 11.8459C13.483 11.8811 13.3919 11.8992 13.3 11.8992H9.3121C9.1735 11.8992 9.0384 11.9405 8.9236 12.0168L7.3885 13.0402C7.27347 13.117 7.13828 13.1579 7 13.1579C6.86172 13.1579 6.72653 13.117 6.6115 13.0402L5.0764 12.0168C4.9613 11.9402 4.82615 11.8993 4.6879 11.8992H0.7C0.608075 11.8992 0.517049 11.8811 0.432122 11.8459C0.347194 11.8108 0.270026 11.7592 0.205025 11.6942C0.140024 11.6292 0.0884626 11.552 0.0532843 11.4671C0.018106 11.3822 0 11.2911 0 11.1992L0 1.39922C0 1.21357 0.0737498 1.03552 0.205025 0.904244C0.336301 0.772969 0.514348 0.699219 0.7 0.699219H4.7866C4.8615 0.699219 4.9364 0.711819 5.0078 0.734919L6.7788 1.32572C6.92243 1.37329 7.07757 1.37329 7.2212 1.32572L8.9922 0.734919C9.06362 0.711565 9.13826 0.699519 9.2134 0.699219H13.3ZM2.1 4.54922H4.9V3.84922H2.1V4.54922ZM2.1 6.64922H4.9V5.94922H2.1V6.64922ZM9.1 4.54922H11.9V3.84922H9.1V4.54922ZM9.1 6.64922H11.9V5.94922H9.1V6.64922ZM2.1 8.74922H4.9V8.04922H2.1V8.74922Z" fill="#1A49C0"/>
</g>
<defs>
<clipPath id="clip0_788_17767">
<rect width="14" height="14" fill="white"/>
</clipPath>
</defs>
</svg>
