<svg width="32" height="32" viewBox="0 0 32 32" fill="none" xmlns="http://www.w3.org/2000/svg">
<g id="&#228;&#184;&#138;&#228;&#188;&#160;&#233;&#153;&#132;&#228;&#187;&#182;">
<rect id="Rectangle 86" x="0.5" y="0.5" width="31" height="31" rx="3.5" stroke="#040415" stroke-opacity="0.1"/>
<g id="Union">
<path fill-rule="evenodd" clip-rule="evenodd" d="M21.1961 8C21.5681 8 21.8472 8.09302 22.1263 8.37209C22.3123 8.65116 22.4984 8.93023 22.4984 9.30233V16C22.4984 16.2791 22.2193 16.5582 21.9402 16.5582C21.6612 16.5582 21.3821 16.2791 21.3821 16V9.30233L21.2891 9.2093C21.2891 9.11628 21.2891 9.11628 21.1961 9.11628H10.5914C10.4984 9.11628 10.4053 9.2093 10.4053 9.30233V22.6977C10.4053 22.7907 10.4984 22.8837 10.5914 22.8837H15.8937C16.1728 22.8837 16.4519 23.1628 16.4519 23.4419C16.4519 23.721 16.1728 24 15.8937 24H10.5914C10.2193 24 9.94023 23.907 9.66116 23.6279C9.47511 23.3489 9.28906 23.0698 9.28906 22.6977V9.30233C9.28906 8.55814 9.8472 8 10.5914 8H21.1961ZM19.8943 17.8602C20.0803 17.6742 20.4524 17.6742 20.6385 17.8602L22.3129 19.5346C22.4989 19.7207 22.4989 20.0928 22.3129 20.2788C22.2199 20.3718 22.0338 20.4649 21.9408 20.4649C21.8478 20.4649 21.6617 20.3718 21.5687 20.2788L20.8245 19.5346V23.4416C20.8245 23.7207 20.5454 23.9997 20.2664 23.9997C19.9873 23.9997 19.7082 23.7207 19.7082 23.4416V19.5346L18.964 20.2788C18.778 20.4649 18.4059 20.4649 18.2198 20.2788C18.0338 20.0928 18.0338 19.7207 18.2198 19.5346L19.8943 17.8602ZM18.871 12.4648C19.1501 12.4648 19.4292 12.7439 19.4292 13.023C19.4292 13.3021 19.1501 13.5811 18.871 13.5811H12.9175C12.6384 13.5811 12.3594 13.3021 12.3594 13.023C12.3594 12.7439 12.6384 12.4648 12.9175 12.4648H18.871ZM12.3594 15.9997C12.3594 15.7207 12.5454 15.4416 12.9175 15.4416H15.8943C16.1733 15.4416 16.4524 15.7207 16.4524 15.9997C16.4524 16.2788 16.1733 16.5579 15.8943 16.5579H12.9175C12.6384 16.5579 12.3594 16.2788 12.3594 15.9997Z" fill="#BBBBBB"/>
<path d="M22.1263 8.37209L22.2095 8.31662L22.204 8.30838L22.197 8.30138L22.1263 8.37209ZM21.3821 9.30233H21.4821V9.26091L21.4528 9.23162L21.3821 9.30233ZM21.2891 9.2093H21.1891V9.25073L21.2184 9.28001L21.2891 9.2093ZM9.66116 23.6279L9.57795 23.6834L9.58344 23.6916L9.59045 23.6986L9.66116 23.6279ZM20.6385 17.8602L20.7092 17.7895L20.6385 17.8602ZM22.3129 19.5346L22.2422 19.6053H22.2422L22.3129 19.5346ZM22.3129 20.2788L22.2422 20.2081L22.2422 20.2081L22.3129 20.2788ZM21.5687 20.2788L21.6394 20.2081V20.2081L21.5687 20.2788ZM20.8245 19.5346L20.8952 19.4639L20.7245 19.2932V19.5346H20.8245ZM19.7082 19.5346H19.8082V19.2932L19.6375 19.4639L19.7082 19.5346ZM18.964 20.2788L19.0347 20.3495V20.3495L18.964 20.2788ZM18.2198 20.2788L18.2906 20.2081V20.2081L18.2198 20.2788ZM22.197 8.30138C22.0492 8.1536 21.8982 8.052 21.732 7.98806C21.5662 7.9243 21.3905 7.9 21.1961 7.9V8.1C21.3738 8.1 21.5236 8.12221 21.6602 8.17473C21.7963 8.22707 21.9243 8.31152 22.0556 8.4428L22.197 8.30138ZM22.5984 9.30233C22.5984 8.89567 22.3934 8.59247 22.2095 8.31662L22.0431 8.42756C22.2313 8.70986 22.3984 8.9648 22.3984 9.30233H22.5984ZM22.5984 16V9.30233H22.3984V16H22.5984ZM21.9402 16.6582C22.1123 16.6582 22.276 16.5731 22.3947 16.4544C22.5134 16.3358 22.5984 16.1721 22.5984 16H22.3984C22.3984 16.107 22.3439 16.2224 22.2533 16.313C22.1626 16.4036 22.0473 16.4582 21.9402 16.4582V16.6582ZM21.2821 16C21.2821 16.1721 21.3671 16.3358 21.4858 16.4544C21.6045 16.5731 21.7682 16.6582 21.9402 16.6582V16.4582C21.8332 16.4582 21.7178 16.4036 21.6272 16.313C21.5366 16.2224 21.4821 16.107 21.4821 16H21.2821ZM21.2821 9.30233V16H21.4821V9.30233H21.2821ZM21.2184 9.28001L21.3114 9.37304L21.4528 9.23162L21.3598 9.13859L21.2184 9.28001ZM21.1961 9.21628C21.208 9.21628 21.217 9.21628 21.2247 9.21644C21.2325 9.2166 21.2367 9.21688 21.2388 9.21712C21.2411 9.21738 21.2381 9.21729 21.2325 9.21527C21.2261 9.21296 21.2162 9.20809 21.2067 9.19862C21.1973 9.18915 21.1924 9.17928 21.1901 9.17286C21.1881 9.16727 21.188 9.16423 21.1882 9.16657C21.1885 9.16871 21.1888 9.17288 21.1889 9.18064C21.1891 9.18831 21.1891 9.19737 21.1891 9.2093H21.3891C21.3891 9.18849 21.3892 9.1644 21.387 9.14448C21.3849 9.1253 21.3788 9.08779 21.3482 9.0572C21.3176 9.0266 21.2801 9.02048 21.2609 9.01835C21.241 9.01613 21.2169 9.01628 21.1961 9.01628V9.21628ZM10.5914 9.21628H21.1961V9.01628H10.5914V9.21628ZM10.5053 9.30233C10.5053 9.28834 10.5133 9.26598 10.5342 9.24513C10.555 9.22428 10.5774 9.21628 10.5914 9.21628V9.01628C10.5124 9.01628 10.4417 9.05479 10.3928 9.10371C10.3439 9.15263 10.3053 9.22329 10.3053 9.30233H10.5053ZM10.5053 22.6977V9.30233H10.3053V22.6977H10.5053ZM10.5914 22.7837C10.5774 22.7837 10.555 22.7757 10.5342 22.7549C10.5133 22.734 10.5053 22.7117 10.5053 22.6977H10.3053C10.3053 22.7767 10.3439 22.8474 10.3928 22.8963C10.4417 22.9452 10.5124 22.9837 10.5914 22.9837V22.7837ZM15.8937 22.7837H10.5914V22.9837H15.8937V22.7837ZM16.5519 23.4419C16.5519 23.2698 16.4668 23.1061 16.3482 22.9874C16.2295 22.8688 16.0658 22.7837 15.8937 22.7837V22.9837C16.0007 22.9837 16.1161 23.0383 16.2067 23.1289C16.2973 23.2195 16.3519 23.3349 16.3519 23.4419H16.5519ZM15.8937 24.1C16.0658 24.1 16.2295 24.015 16.3482 23.8963C16.4668 23.7776 16.5519 23.6139 16.5519 23.4419H16.3519C16.3519 23.5489 16.2973 23.6643 16.2067 23.7549C16.1161 23.8455 16.0007 23.9 15.8937 23.9V24.1ZM10.5914 24.1H15.8937V23.9H10.5914V24.1ZM9.59045 23.6986C9.73823 23.8464 9.88926 23.948 10.0555 24.012C10.2213 24.0757 10.397 24.1 10.5914 24.1V23.9C10.4137 23.9 10.2638 23.8778 10.1273 23.8253C9.99119 23.7729 9.86315 23.6885 9.73187 23.5572L9.59045 23.6986ZM9.18906 22.6977C9.18906 23.1044 9.39406 23.4076 9.57795 23.6834L9.74436 23.5725C9.55616 23.2902 9.38906 23.0352 9.38906 22.6977H9.18906ZM9.18906 9.30233V22.6977H9.38906V9.30233H9.18906ZM10.5914 7.9C9.79197 7.9 9.18906 8.50291 9.18906 9.30233H9.38906C9.38906 8.61337 9.90243 8.1 10.5914 8.1V7.9ZM21.1961 7.9H10.5914V8.1H21.1961V7.9ZM20.7092 17.7895C20.5931 17.6735 20.4257 17.6207 20.2664 17.6207C20.107 17.6207 19.9396 17.6735 19.8236 17.7895L19.965 17.9309C20.035 17.8609 20.1467 17.8207 20.2664 17.8207C20.386 17.8207 20.4977 17.8609 20.5677 17.9309L20.7092 17.7895ZM22.3836 19.4639L20.7092 17.7895L20.5677 17.9309L22.2422 19.6053L22.3836 19.4639ZM22.3836 20.3495C22.4996 20.2335 22.5524 20.0661 22.5524 19.9067C22.5524 19.7473 22.4996 19.5799 22.3836 19.4639L22.2422 19.6053C22.3122 19.6754 22.3524 19.787 22.3524 19.9067C22.3524 20.0264 22.3122 20.1381 22.2422 20.2081L22.3836 20.3495ZM21.9408 20.5649C22.0116 20.5649 22.0987 20.5326 22.1715 20.4962C22.2475 20.4582 22.3272 20.4059 22.3836 20.3495L22.2422 20.2081C22.2055 20.2447 22.1457 20.2855 22.0821 20.3173C22.0154 20.3506 21.963 20.3649 21.9408 20.3649V20.5649ZM21.498 20.3495C21.5544 20.4059 21.634 20.4582 21.71 20.4962C21.7828 20.5326 21.87 20.5649 21.9408 20.5649V20.3649C21.9185 20.3649 21.8662 20.3506 21.7995 20.3173C21.7359 20.2855 21.676 20.2447 21.6394 20.2081L21.498 20.3495ZM20.7538 19.6053L21.498 20.3495L21.6394 20.2081L20.8952 19.4639L20.7538 19.6053ZM20.9245 23.4416V19.5346H20.7245V23.4416H20.9245ZM20.2664 24.0997C20.4384 24.0997 20.6021 24.0147 20.7208 23.896C20.8395 23.7773 20.9245 23.6137 20.9245 23.4416H20.7245C20.7245 23.5486 20.67 23.664 20.5794 23.7546C20.4888 23.8452 20.3734 23.8997 20.2664 23.8997V24.0997ZM19.6082 23.4416C19.6082 23.6137 19.6932 23.7773 19.8119 23.896C19.9306 24.0147 20.0943 24.0997 20.2664 24.0997V23.8997C20.1593 23.8997 20.044 23.8452 19.9534 23.7546C19.8627 23.664 19.8082 23.5486 19.8082 23.4416H19.6082ZM19.6082 19.5346V23.4416H19.8082V19.5346H19.6082ZM19.0347 20.3495L19.7789 19.6053L19.6375 19.4639L18.8933 20.2081L19.0347 20.3495ZM18.1491 20.3495C18.2652 20.4655 18.4326 20.5183 18.5919 20.5183C18.7513 20.5183 18.9187 20.4655 19.0347 20.3495L18.8933 20.2081C18.8233 20.2781 18.7116 20.3183 18.5919 20.3183C18.4723 20.3183 18.3606 20.2781 18.2906 20.2081L18.1491 20.3495ZM18.1491 19.4639C18.0331 19.5799 17.9803 19.7473 17.9803 19.9067C17.9803 20.0661 18.0331 20.2335 18.1491 20.3495L18.2906 20.2081C18.2205 20.1381 18.1803 20.0264 18.1803 19.9067C18.1803 19.787 18.2205 19.6754 18.2906 19.6053L18.1491 19.4639ZM19.8236 17.7895L18.1491 19.4639L18.2906 19.6053L19.965 17.9309L19.8236 17.7895ZM19.5292 13.023C19.5292 12.8509 19.4441 12.6872 19.3254 12.5686C19.2068 12.4499 19.0431 12.3648 18.871 12.3648V12.5648C18.978 12.5648 19.0934 12.6194 19.184 12.71C19.2746 12.8006 19.3292 12.916 19.3292 13.023H19.5292ZM18.871 13.6811C19.0431 13.6811 19.2068 13.5961 19.3254 13.4774C19.4441 13.3587 19.5292 13.195 19.5292 13.023H19.3292C19.3292 13.13 19.2746 13.2454 19.184 13.336C19.0934 13.4266 18.978 13.4811 18.871 13.4811V13.6811ZM12.9175 13.6811H18.871V13.4811H12.9175V13.6811ZM12.2594 13.023C12.2594 13.195 12.3444 13.3587 12.4631 13.4774C12.5818 13.5961 12.7455 13.6811 12.9175 13.6811V13.4811C12.8105 13.4811 12.6951 13.4266 12.6045 13.336C12.5139 13.2454 12.4594 13.13 12.4594 13.023H12.2594ZM12.9175 12.3648C12.7455 12.3648 12.5818 12.4499 12.4631 12.5686C12.3444 12.6872 12.2594 12.8509 12.2594 13.023H12.4594C12.4594 12.916 12.5139 12.8006 12.6045 12.71C12.6951 12.6194 12.8105 12.5648 12.9175 12.5648V12.3648ZM18.871 12.3648H12.9175V12.5648H18.871V12.3648ZM12.9175 15.3416C12.7043 15.3416 12.5371 15.4225 12.4242 15.5496C12.3129 15.6748 12.2594 15.8389 12.2594 15.9997H12.4594C12.4594 15.8815 12.4989 15.7665 12.5737 15.6824C12.6468 15.6002 12.7586 15.5416 12.9175 15.5416V15.3416ZM15.8943 15.3416H12.9175V15.5416H15.8943V15.3416ZM16.5524 15.9997C16.5524 15.8277 16.4674 15.664 16.3487 15.5453C16.23 15.4266 16.0663 15.3416 15.8943 15.3416V15.5416C16.0013 15.5416 16.1167 15.5961 16.2073 15.6867C16.2979 15.7773 16.3524 15.8927 16.3524 15.9997H16.5524ZM15.8943 16.6579C16.0663 16.6579 16.23 16.5729 16.3487 16.4542C16.4674 16.3355 16.5524 16.1718 16.5524 15.9997H16.3524C16.3524 16.1067 16.2979 16.2221 16.2073 16.3127C16.1167 16.4034 16.0013 16.4579 15.8943 16.4579V16.6579ZM12.9175 16.6579H15.8943V16.4579H12.9175V16.6579ZM12.2594 15.9997C12.2594 16.1718 12.3444 16.3355 12.4631 16.4542C12.5818 16.5729 12.7455 16.6579 12.9175 16.6579V16.4579C12.8105 16.4579 12.6951 16.4034 12.6045 16.3127C12.5139 16.2221 12.4594 16.1067 12.4594 15.9997H12.2594Z" fill="#BBBBBB"/>
</g>
</g>
</svg>
