<svg width="20" height="20" viewBox="0 0 20 20" fill="none" xmlns="http://www.w3.org/2000/svg">
<g id="&#231;&#161;&#174;&#232;&#174;&#164;" clip-path="url(#clip0_713_5748)">
<path id="Vector" d="M13.875 6.5L8.375 11.875L6.125 9.625C5.75 9.375 5.375 9.375 5 9.625C4.75 10 4.75 10.5 5 10.75L7.875 13.5C8.125 13.75 8.625 13.75 9 13.5L15 7.5C15.25 7.25 15.25 6.75 15 6.5C14.75 6.25 14.25 6.25 13.875 6.5Z" fill="#56BB46"/>
<path id="Vector_2" d="M10 20C4.5 20 0 15.5 0 10C0 4.5 4.5 0 10 0C12.125 0 14.125 0.625 15.875 1.875C16.125 2.125 16.25 2.5 16 2.75C15.75 3 15.375 3.125 15.125 2.875C13.625 1.75 11.875 1.25 10 1.25C5.125 1.25 1.25 5.125 1.25 10C1.25 14.875 5.125 18.75 10 18.75C14.875 18.75 18.75 14.875 18.75 10C18.75 8.5 18.375 7 17.625 5.625C17.5 5.375 17.5 5 17.875 4.75C18.125 4.625 18.5 4.625 18.75 5C19.5 6.5 20 8.25 20 10C20 15.5 15.5 20 10 20Z" fill="#56BB46"/>
</g>
<defs>
<clipPath id="clip0_713_5748">
<rect width="20" height="20" fill="white"/>
</clipPath>
</defs>
</svg>
