<svg width="20" height="20" viewBox="0 0 20 20" fill="none" xmlns="http://www.w3.org/2000/svg">
<g id="&#229;&#143;&#150;&#230;&#182;&#136;" clip-path="url(#clip0_713_5751)">
<path id="Vector 1" d="M7 13L13 7" stroke="#979797" stroke-width="1.4" stroke-linecap="round" stroke-linejoin="round"/>
<path id="Vector 2" d="M13 13L7 7" stroke="#979797" stroke-width="1.4" stroke-linecap="round" stroke-linejoin="round"/>
<path id="Vector" d="M10 20C4.5 20 0 15.5 0 10C0 4.5 4.5 0 10 0C12.125 0 14.125 0.625 15.875 1.875C16.125 2.125 16.25 2.5 16 2.75C15.75 3 15.375 3.125 15.125 2.875C13.625 1.75 11.875 1.25 10 1.25C5.125 1.25 1.25 5.125 1.25 10C1.25 14.875 5.125 18.75 10 18.75C14.875 18.75 18.75 14.875 18.75 10C18.75 8.5 18.375 7 17.625 5.625C17.5 5.375 17.5 5 17.875 4.75C18.125 4.625 18.5 4.625 18.75 5C19.5 6.5 20 8.25 20 10C20 15.5 15.5 20 10 20Z" fill="#979797"/>
</g>
<defs>
<clipPath id="clip0_713_5751">
<rect width="20" height="20" fill="white"/>
</clipPath>
</defs>
</svg>
