<svg width="18" height="18" viewBox="0 0 18 18" fill="none" xmlns="http://www.w3.org/2000/svg">
<path id="&#229;&#183;&#178;&#230;&#148;&#182;&#232;&#151;&#143;" d="M8.17556 0.536042C8.5128 -0.17868 9.4872 -0.178681 9.82443 0.536041L11.8934 4.92078C12.0273 5.20459 12.2861 5.40131 12.5856 5.44683L17.2118 6.14995C17.9659 6.26456 18.267 7.23385 17.7214 7.79018L14.3738 11.2032C14.1571 11.4241 14.0582 11.7424 14.1094 12.0544L14.8996 16.8737C15.0284 17.6592 14.2401 18.2583 13.5657 17.8874L9.42782 15.612C9.15999 15.4648 8.84001 15.4648 8.57218 15.612L4.43434 17.8874C3.75986 18.2583 2.97156 17.6592 3.10038 16.8737L3.89063 12.0544C3.94179 11.7424 3.84291 11.4241 3.62622 11.2032L0.278645 7.79019C-0.267019 7.23385 0.0340842 6.26456 0.788173 6.14995L5.41442 5.44683C5.71386 5.40131 5.97273 5.20459 6.10665 4.92078L8.17556 0.536042Z" fill="#FFB657"/>
</svg>
