<svg width="14" height="14" viewBox="0 0 14 14" fill="none" xmlns="http://www.w3.org/2000/svg">
<g id="&#231;&#173;&#155;&#233;&#128;&#137;">
<path id="Union" fill-rule="evenodd" clip-rule="evenodd" d="M11.8708 1.00014C12.3131 1.00014 12.7177 1.26185 12.9016 1.66696C12.9916 1.86501 13.0208 2.08536 12.9853 2.3C12.9499 2.51465 12.8514 2.71391 12.7024 2.87247L12.6591 2.91476L8.9995 5.84061C8.96474 5.87034 8.93677 5.90717 8.91746 5.94863C8.89815 5.99009 8.88796 6.03521 8.88756 6.08094V11.8748C8.89146 12.1756 8.77899 12.4569 8.57078 12.6678C8.35927 12.882 8.07429 13 7.76826 13H7.76739C7.57464 13 7.39709 12.9563 7.22478 12.8664L5.66265 11.9962C5.48421 11.9013 5.33521 11.7593 5.23188 11.5856C5.12855 11.4119 5.07485 11.2132 5.07661 11.0112V6.05008C5.07574 6.0033 5.06436 5.95731 5.04331 5.91552C5.02225 5.87374 4.99207 5.83722 4.955 5.80867L1.34674 2.91691L1.31205 2.8753C0.997017 2.55993 0.913115 2.08693 1.09423 1.66575C1.17751 1.46823 1.31725 1.29969 1.49593 1.18126C1.67461 1.06283 1.88427 0.999773 2.09863 1L11.8708 1.00014ZM12.1079 2.30689L12.113 2.29997C12.1471 2.25439 12.1679 2.20027 12.1732 2.1436C12.1785 2.08692 12.1679 2.02989 12.1428 1.97882C12.1178 1.92771 12.079 1.88459 12.0309 1.85432C11.9827 1.82406 11.927 1.80785 11.8701 1.80753H2.11665C1.99402 1.80753 1.89163 1.87227 1.84276 1.98077C1.78945 2.07966 1.79718 2.20316 1.86488 2.29876L1.9873 2.39893L5.47757 5.18494C5.74621 5.40081 5.90037 5.71899 5.90037 6.05795V11.0184C5.90037 11.1394 5.96 11.244 6.05587 11.2913L7.61707 12.1455C7.66354 12.1705 7.71556 12.1834 7.76833 12.183C7.82194 12.1829 7.87482 12.1706 7.92289 12.1468C8.02125 12.0868 8.07873 11.9837 8.07839 11.8747V6.09002C8.07839 5.74736 8.22966 5.42877 8.4936 5.21593L12.1079 2.30689ZM9.33593 10.1093C9.3322 10.3032 9.4869 10.4649 9.6791 10.47H11.9764L11.981 10.4698C12.0268 10.4685 12.072 10.4582 12.1139 10.4393C12.1557 10.4205 12.1934 10.3935 12.2247 10.36C12.2565 10.3264 12.2812 10.2868 12.2975 10.2436C12.3137 10.2003 12.3213 10.1543 12.3196 10.1081C12.3196 9.90898 12.1656 9.74699 11.9764 9.74699H9.6791C9.48991 9.74699 9.33593 9.90904 9.33593 10.1093ZM9.33593 8.49027C9.33262 8.68367 9.4872 8.84523 9.6791 8.85023V8.85029H11.9764L11.9875 8.84999C12.0329 8.84838 12.0775 8.83779 12.1187 8.81884C12.16 8.7999 12.1971 8.77296 12.2279 8.73959C12.259 8.70604 12.2832 8.66663 12.2989 8.62364C12.3146 8.58066 12.3217 8.53497 12.3196 8.48925C12.3196 8.2897 12.1656 8.12742 11.9764 8.12742H9.6791C9.48991 8.12742 9.33593 8.2897 9.33593 8.49027ZM9.33593 6.87052C9.33262 7.06398 9.4872 7.22554 9.6791 7.23054H11.9759L11.9875 7.2303C12.0798 7.22675 12.1652 7.18756 12.2279 7.11984C12.2906 7.05212 12.3232 6.96406 12.3196 6.8695C12.3196 6.67037 12.1656 6.50845 11.9764 6.50845H9.6791C9.48991 6.50845 9.33593 6.67037 9.33593 6.87052Z" fill="#1A49C0"/>
</g>
</svg>
