<svg width="18" height="18" viewBox="0 0 18 18" fill="none" xmlns="http://www.w3.org/2000/svg">
<g id="&#232;&#191;&#148;&#229;&#155;&#158;">
<path id="Vector" d="M5.23384 2.2517C4.9663 1.98416 4.53283 1.98416 4.26546 2.25153L1.32552 5.19164C1.05816 5.45901 1.05816 5.89248 1.32552 6.16002L4.26546 9.09996C4.53283 9.36733 4.9663 9.36733 5.23367 9.09996C5.50103 8.8326 5.50103 8.39895 5.23349 8.13158L3.46214 6.36129H11.3646C13.6328 6.36129 15.5135 8.21719 15.5053 10.4855C15.497 12.7478 13.6606 14.5792 11.3964 14.5792H5.23279C4.85468 14.5792 4.54812 14.8858 4.54812 15.2639V15.2643C4.54812 15.6424 4.85468 15.9489 5.23279 15.9489H11.3605C14.3933 15.9489 16.8941 13.4674 16.8748 10.4348C16.8556 7.42547 14.4102 4.99196 11.3964 4.99196H3.46214L5.23384 3.22026C5.50121 2.95254 5.50121 2.51907 5.23384 2.2517Z" fill="#616161"/>
</g>
</svg>
