<svg width="36" height="36" viewBox="0 0 36 36" fill="none" xmlns="http://www.w3.org/2000/svg">
<g id="&#231;&#139;&#172;&#231;&#171;&#139;&#231;&#148;&#181;&#230;&#186;&#144;">
<rect id="Rectangle 34625859" width="36" height="36" rx="8" fill="#E9EDF9"/>
<g id="&#230;&#143;&#146;&#229;&#164;&#180; 1" clip-path="url(#clip0_536_191)">
<g id="Group 2927">
<g id="Union">
<path fill-rule="evenodd" clip-rule="evenodd" d="M15.7472 20.9564V22.0176C16.8011 22.0176 17.8353 21.7765 18.7387 21.3198C19.6656 20.8519 20.4347 20.1677 20.9635 19.3406C21.5563 18.4139 21.5409 17.2289 21.5259 16.0839C21.5236 15.904 21.5213 15.7181 21.5213 15.5365H20.4601C20.4601 15.7143 20.4624 15.893 20.4645 16.0665L20.4649 16.0975C20.4785 17.1317 20.4912 18.1094 20.0693 18.7697C19.2077 20.1183 17.551 20.9564 15.7472 20.9564ZM12.7567 21.3208C13.6604 21.7766 14.6946 22.0177 15.7472 22.0177V20.9574C13.9446 20.9574 12.2884 20.1193 11.4263 18.7707C11.0044 18.1105 11.0171 17.1334 11.0304 16.0989L11.0305 16.0985C11.033 15.9154 11.0353 15.726 11.0353 15.5375H9.97411C9.97411 15.7087 9.97185 15.8837 9.96966 16.0538C9.96953 16.0641 9.96939 16.0744 9.96926 16.0847L9.96915 16.0937C9.95511 17.2361 9.9406 18.4165 10.5319 19.3416C11.0604 20.1687 11.8298 20.8529 12.7567 21.3208Z" fill="#1A49C0"/>
<path d="M15.7472 22.0176H15.6472V22.1176H15.7472V22.0176ZM15.7472 20.9564V20.8564H15.6472V20.9564H15.7472ZM18.7387 21.3198L18.6936 21.2305L18.6935 21.2305L18.7387 21.3198ZM20.9635 19.3406L20.8792 19.2867L20.8792 19.2868L20.9635 19.3406ZM21.5259 16.0839L21.4259 16.0852V16.0852L21.5259 16.0839ZM21.5213 15.5365H21.6213V15.4365H21.5213V15.5365ZM20.4601 15.5365V15.4365H20.3601V15.5365H20.4601ZM20.4645 16.0665L20.3646 16.0677V16.0677L20.4645 16.0665ZM20.4649 16.0975L20.3649 16.0988L20.3649 16.0989L20.4649 16.0975ZM20.0693 18.7697L19.985 18.7158L19.985 18.7158L20.0693 18.7697ZM15.7472 22.0177V22.1177H15.8472V22.0177H15.7472ZM12.7567 21.3208L12.7117 21.41L12.7117 21.41L12.7567 21.3208ZM15.7472 20.9574H15.8472V20.8574H15.7472V20.9574ZM11.4263 18.7707L11.3421 18.8245L11.3421 18.8245L11.4263 18.7707ZM11.0304 16.0989L11.1304 16.1002L11.1304 16.1002L11.0304 16.0989ZM11.0305 16.0985L10.9305 16.0972L10.9305 16.0973L11.0305 16.0985ZM11.0353 15.5375H11.1353V15.4375H11.0353V15.5375ZM9.97411 15.5375V15.4375H9.87411V15.5375H9.97411ZM9.96966 16.0538L10.0697 16.0551L9.96966 16.0538ZM9.96926 16.0847L9.86927 16.0834L9.86927 16.0835L9.96926 16.0847ZM9.96915 16.0937L10.0691 16.095V16.095L9.96915 16.0937ZM10.5319 19.3416L10.6162 19.2878L10.6162 19.2878L10.5319 19.3416ZM15.8472 22.0176V20.9564H15.6472V22.0176H15.8472ZM18.6935 21.2305C17.8047 21.6799 16.7861 21.9176 15.7472 21.9176V22.1176C16.816 22.1176 17.8658 21.8732 18.7838 21.409L18.6935 21.2305ZM20.8792 19.2868C20.3607 20.0978 19.6055 20.7702 18.6936 21.2305L18.7837 21.409C19.7257 20.9336 20.5087 20.2375 21.0477 19.3945L20.8792 19.2868ZM21.4259 16.0852C21.441 17.2378 21.453 18.39 20.8792 19.2867L21.0477 19.3945C21.6597 18.4379 21.6408 17.2199 21.6259 16.0826L21.4259 16.0852ZM21.4213 15.5365C21.4213 15.7188 21.4236 15.9053 21.4259 16.0852L21.6259 16.0827C21.6236 15.9026 21.6213 15.7173 21.6213 15.5365H21.4213ZM20.4601 15.6365H21.5213V15.4365H20.4601V15.6365ZM20.5645 16.0652C20.5623 15.8916 20.5601 15.7136 20.5601 15.5365H20.3601C20.3601 15.7151 20.3624 15.8944 20.3646 16.0677L20.5645 16.0652ZM20.5649 16.0963L20.5645 16.0652L20.3646 16.0677L20.3649 16.0988L20.5649 16.0963ZM20.1536 18.8235C20.3765 18.4747 20.4813 18.0475 20.5299 17.5843C20.5785 17.1211 20.5717 16.6119 20.5649 16.0962L20.3649 16.0989C20.3718 16.6174 20.3781 17.1142 20.331 17.5634C20.2839 18.0126 20.184 18.4045 19.985 18.7158L20.1536 18.8235ZM15.7472 21.0564C17.58 21.0564 19.271 20.205 20.1536 18.8235L19.985 18.7158C19.1444 20.0316 17.522 20.8564 15.7472 20.8564V21.0564ZM15.7472 21.9177C14.7096 21.9177 13.6909 21.68 12.8018 21.2315L12.7117 21.41C13.6299 21.8732 14.6796 22.1177 15.7472 22.1177V21.9177ZM15.6472 20.9574V22.0177H15.8472V20.9574H15.6472ZM11.3421 18.8245C12.2251 20.206 13.9155 21.0574 15.7472 21.0574V20.8574C13.9736 20.8574 12.3517 20.0327 11.5106 18.7168L11.3421 18.8245ZM10.9305 16.0976C10.9238 16.6134 10.9171 17.1225 10.9657 17.5856C11.0143 18.0487 11.1191 18.4757 11.3421 18.8245L11.5106 18.7168C11.3116 18.4055 11.2118 18.0138 11.1646 17.5647C11.1174 17.1156 11.1237 16.6189 11.1304 16.1002L10.9305 16.0976ZM10.9305 16.0973L10.9305 16.0976L11.1304 16.1002L11.1304 16.0998L10.9305 16.0973ZM10.9353 15.5375C10.9353 15.7252 10.933 15.914 10.9305 16.0972L11.1304 16.0999C11.133 15.9167 11.1353 15.7267 11.1353 15.5375H10.9353ZM9.97411 15.6375H11.0353V15.4375H9.97411V15.6375ZM10.0697 16.0551C10.0718 15.8851 10.0741 15.7094 10.0741 15.5375H9.87411C9.87411 15.7079 9.87186 15.8823 9.86967 16.0525L10.0697 16.0551ZM10.0693 16.086C10.0694 16.0757 10.0695 16.0654 10.0697 16.0551L9.86967 16.0525C9.86953 16.0628 9.8694 16.0731 9.86927 16.0834L10.0693 16.086ZM10.0691 16.095L10.0693 16.0859L9.86927 16.0835L9.86916 16.0925L10.0691 16.095ZM10.6162 19.2878C10.0439 18.3924 10.055 17.2449 10.0691 16.095L9.86916 16.0925C9.85521 17.2273 9.83727 18.4405 10.4477 19.3955L10.6162 19.2878ZM12.8018 21.2315C11.8899 20.7712 11.1345 20.0988 10.6162 19.2878L10.4477 19.3955C10.9864 20.2385 11.7697 20.9346 12.7117 21.41L12.8018 21.2315Z" fill="#1A49C0"/>
</g>
<path id="Vector" d="M22.0312 16.1268H9.34537C9.15283 16.1266 8.96826 16.05 8.83212 15.9138C8.69598 15.7777 8.61938 15.5931 8.61914 15.4006V13.7896C8.61932 13.5971 8.6959 13.4125 8.83205 13.2763C8.9682 13.1402 9.15281 13.0636 9.34537 13.0634H22.0312C22.2238 13.0636 22.4084 13.1402 22.5445 13.2763C22.6807 13.4125 22.7573 13.5971 22.7574 13.7896V15.4006C22.7572 15.5931 22.6806 15.7777 22.5445 15.9138C22.4083 16.05 22.2238 16.1266 22.0312 16.1268ZM9.67895 15.0663H21.6981V14.1239H9.67895V15.0663Z" fill="#1A49C0" stroke="#1A49C0" stroke-width="0.2"/>
<path id="Vector_2" d="M12.3314 14.1237C12.1907 14.1237 12.0557 14.0678 11.9562 13.9683C11.8567 13.8688 11.8008 13.7338 11.8008 13.5931V8.8805C11.8008 8.7398 11.8567 8.60486 11.9562 8.50538C12.0557 8.40589 12.1907 8.35001 12.3314 8.35001C12.4721 8.35001 12.607 8.40589 12.7065 8.50538C12.806 8.60486 12.8619 8.7398 12.862 8.8805V13.5933C12.8619 13.734 12.806 13.8689 12.7065 13.9684C12.607 14.0678 12.4721 14.1237 12.3314 14.1237ZM19.165 14.1237C19.0243 14.1237 18.8893 14.0678 18.7898 13.9683C18.6903 13.8688 18.6344 13.7338 18.6344 13.5931V8.8805C18.6344 8.7398 18.6903 8.60486 18.7898 8.50538C18.8893 8.40589 19.0243 8.35001 19.165 8.35001C19.3057 8.35001 19.4406 8.40589 19.5401 8.50538C19.6396 8.60486 19.6956 8.7398 19.6956 8.8805V13.5933C19.6955 13.734 19.6396 13.8689 19.5401 13.9684C19.4406 14.0678 19.3057 14.1237 19.165 14.1237ZM19.9985 27.5752C19.8284 27.5752 19.6541 27.5676 19.4757 27.5522C17.4823 27.3907 16.0086 26.2954 15.2146 24.385C14.6355 22.9925 14.6289 21.66 14.6289 21.604C14.6289 21.4633 14.6848 21.3283 14.7843 21.2288C14.8838 21.1294 15.0187 21.0735 15.1595 21.0735C15.3002 21.0735 15.4351 21.1294 15.5346 21.2288C15.6341 21.3283 15.69 21.4633 15.6901 21.604C15.6901 21.6157 15.6997 22.8068 16.2059 24.0062C16.8488 25.5299 17.9781 26.3676 19.562 26.4961C20.6735 26.586 21.5483 26.3373 22.1619 25.7562C23.2598 24.7167 23.2314 22.9491 23.2307 22.915C23.2284 22.8375 23.2111 21.9152 23.6114 20.9707C23.861 20.3815 24.2204 19.9028 24.6793 19.5485C25.2512 19.1069 25.9661 18.8675 26.8044 18.8363C26.8757 18.8308 26.9474 18.8397 27.0152 18.8625C27.0829 18.8853 27.1454 18.9216 27.1988 18.9692C27.2521 19.0168 27.2954 19.0746 27.3258 19.1393C27.3563 19.204 27.3733 19.2742 27.376 19.3457C27.3786 19.4171 27.3668 19.4884 27.3412 19.5552C27.3156 19.6219 27.2768 19.6829 27.2271 19.7343C27.1774 19.7856 27.1178 19.8265 27.0519 19.8542C26.986 19.882 26.9151 19.8962 26.8436 19.8959C25.7437 19.9367 25.0096 20.4145 24.5997 21.3567C24.2726 22.1083 24.2906 22.8765 24.2908 22.8841V22.8869C24.2933 22.9791 24.3337 25.1603 22.8909 26.5263C22.1543 27.2234 21.1831 27.5752 19.9985 27.5752Z" fill="#1A49C0" stroke="#1A49C0" stroke-width="0.2"/>
</g>
</g>
</g>
<defs>
<clipPath id="clip0_536_191">
<rect width="20" height="20" fill="white" transform="translate(8 8)"/>
</clipPath>
</defs>
</svg>
