<svg width="20" height="20" viewBox="0 0 20 20" fill="none" xmlns="http://www.w3.org/2000/svg">
<g id="&#233;&#128;&#137;&#230;&#139;&#169;&#230;&#151;&#165;&#230;&#156;&#159;" clip-path="url(#clip0_366_5362)">
<path id="Vector" d="M1.9974 17.8045H18.0026V7.828H1.9974V17.8045ZM4.4246 3.8425H1.9974V6.3325H18.0026V3.8425H15.5724V4.149C15.5724 4.24729 15.5531 4.34462 15.5155 4.43543C15.4779 4.52623 15.4227 4.60872 15.3531 4.67818C15.2836 4.74764 15.201 4.8027 15.1102 4.84022C15.0193 4.87773 14.922 4.89696 14.8237 4.8968C14.4105 4.8968 14.0751 4.5618 14.0751 4.149V3.8425H5.9219V4.149C5.9219 4.5618 5.5865 4.8968 5.1733 4.8968C4.76 4.8968 4.4246 4.5618 4.4246 4.149V3.8425ZM18.7513 2.3469C18.8496 2.34675 18.9469 2.36597 19.0378 2.40349C19.1286 2.441 19.2112 2.49606 19.2807 2.56552C19.3503 2.63498 19.4055 2.71747 19.4431 2.80828C19.4807 2.89908 19.5 2.99641 19.5 3.0947V18.5522C19.5 18.6505 19.4807 18.7478 19.4431 18.8386C19.4055 18.9294 19.3503 19.0119 19.2807 19.0814C19.2112 19.1508 19.1286 19.2059 19.0378 19.2434C18.9469 19.2809 18.8496 19.3002 18.7513 19.3H1.2487C0.8354 19.3 0.5 18.965 0.5 18.5522V3.0947C0.5 2.6819 0.8354 2.3469 1.2487 2.3469H4.4246V1.2478C4.42456 1.14951 4.44391 1.05218 4.48153 0.961377C4.51915 0.870574 4.57431 0.788081 4.64386 0.718622C4.7134 0.649163 4.79596 0.5941 4.88681 0.556587C4.97766 0.519073 5.07501 0.499845 5.1733 0.500003C5.27158 0.499858 5.36893 0.519096 5.45976 0.556616C5.5506 0.594135 5.63315 0.649199 5.70268 0.718657C5.77221 0.788115 5.82737 0.870603 5.86498 0.961401C5.9026 1.0522 5.92194 1.14952 5.9219 1.2478V2.3469H14.0751V1.2478C14.0751 1.14952 14.0944 1.0522 14.132 0.961401C14.1696 0.870603 14.2248 0.788115 14.2943 0.718657C14.3639 0.649199 14.4464 0.594135 14.5372 0.556616C14.6281 0.519096 14.7254 0.499858 14.8237 0.500003C14.922 0.499726 15.0194 0.518873 15.1103 0.556345C15.2012 0.593816 15.2838 0.648874 15.3534 0.718357C15.423 0.78784 15.4781 0.870379 15.5157 0.961237C15.5533 1.05209 15.5726 1.14948 15.5724 1.2478V2.3469H18.7514H18.7513ZM5.8635 9.9384C6.2768 9.9384 6.6122 10.2734 6.6122 10.6862C6.6122 11.0989 6.2768 11.4339 5.8635 11.4339H4.6627C4.2494 11.4339 3.914 11.0989 3.914 10.6862C3.914 10.2734 4.2494 9.9384 4.6627 9.9384H5.8635ZM10.5998 9.9384C11.0131 9.9384 11.3485 10.2734 11.3485 10.6862C11.3485 11.0989 11.0131 11.4339 10.5998 11.4339H9.399C8.9857 11.4339 8.6503 11.0989 8.6503 10.6862C8.6503 10.2734 8.9857 9.9384 9.399 9.9384H10.5998ZM15.3361 9.9384C15.7494 9.9384 16.0848 10.2734 16.0848 10.6862C16.0848 11.0989 15.7494 11.4339 15.3361 11.4339H14.1353C13.722 11.4339 13.3866 11.0989 13.3866 10.6862C13.3866 10.2734 13.722 9.9384 14.1353 9.9384H15.3361ZM5.8635 13.6663C6.2768 13.6663 6.6122 14.0013 6.6122 14.414C6.6122 14.8268 6.2768 15.1618 5.8635 15.1618H4.6627C4.2494 15.1618 3.914 14.8268 3.914 14.414C3.914 14.0013 4.2494 13.6663 4.6627 13.6663H5.8635ZM10.5998 13.6663C11.0131 13.6663 11.3485 14.0013 11.3485 14.414C11.3485 14.8268 11.0131 15.1618 10.5998 15.1618H9.399C8.9857 15.1618 8.6503 14.8268 8.6503 14.414C8.6503 14.0013 8.9857 13.6663 9.399 13.6663H10.5998ZM15.3361 13.6663C15.7494 13.6663 16.0848 14.0013 16.0848 14.414C16.0848 14.8268 15.7494 15.1618 15.3361 15.1618H14.1353C13.722 15.1618 13.3866 14.8268 13.3866 14.414C13.3866 14.0013 13.722 13.6663 14.1353 13.6663H15.3361Z" fill="#1A49C0"/>
</g>
<defs>
<clipPath id="clip0_366_5362">
<rect width="20" height="20" fill="white"/>
</clipPath>
</defs>
</svg>
