<svg width="16" height="16" viewBox="0 0 16 16" fill="none" xmlns="http://www.w3.org/2000/svg">
<g id="&#230;&#151;&#182;&#233;&#151;&#180;">
<path id="Union" fill-rule="evenodd" clip-rule="evenodd" d="M8 1.875C11.3766 1.875 14.125 4.62344 14.125 8C14.125 11.3766 11.3766 14.125 8 14.125C4.62344 14.125 1.875 11.3766 1.875 8C1.875 4.62344 4.62344 1.875 8 1.875ZM8 1C4.14062 1 1 4.14062 1 8C1 11.8594 4.14062 15 8 15C11.8594 15 15 11.8594 15 8C15 4.14062 11.8594 1 8 1ZM7.34146 8.6511C7.26717 8.57274 7.22168 8.46678 7.22168 8.3499V4.31396C7.22168 4.07178 7.41699 3.87646 7.65918 3.87646C7.90137 3.87646 8.09668 4.07178 8.09668 4.31396V8.1124L10.7192 9.82197C10.9207 9.95321 10.9786 10.2251 10.8457 10.4267C10.7629 10.5548 10.6223 10.6251 10.4801 10.6251C10.3989 10.6251 10.3145 10.6017 10.2411 10.5548L7.42074 8.71728C7.39117 8.69802 7.36469 8.67574 7.34146 8.6511Z" fill="#868686"/>
</g>
</svg>
