<svg width="20" height="20" viewBox="0 0 20 20" fill="none" xmlns="http://www.w3.org/2000/svg">
<g id="&#229;&#183;&#178;&#231;&#186;&#166;&#231;&#169;&#186;&#233;&#151;&#180;">
<path id="Vector" d="M4.17942 17.7309C3.61465 17.7309 3.24188 17.336 3.24188 16.7352C3.24188 12.224 3.24188 12.7685 3.23851 11.2722C3.23851 10.937 3.35641 10.6693 3.60118 10.4589C5.54363 8.77588 7.47037 7.20762 9.4117 5.52462C9.80132 5.18712 10.2314 5.18712 10.621 5.52238C12.5657 7.20762 14.5216 8.77925 16.4663 10.4634C16.7021 10.6692 16.8211 10.9291 16.8211 11.2565V16.7544C16.8211 17.3225 16.4394 17.7275 15.9071 17.7275L4.17942 17.7309ZM8.14518 10.2991C8.14518 11.297 8.94237 12.1048 9.92595 12.1048C10.9107 12.1048 11.7078 11.297 11.7078 10.2991C11.7078 9.30237 10.9107 8.49462 9.92595 8.49462C8.94237 8.49462 8.14518 9.30237 8.14518 10.2991ZM7.00665 16.0445H12.8475C12.933 16.0441 13.0176 16.0267 13.0965 15.9935C13.1753 15.9603 13.2468 15.9119 13.307 15.851C13.3672 15.7901 13.4148 15.7179 13.4471 15.6386C13.4794 15.5592 13.4958 15.4743 13.4954 15.3886C13.4971 15.0453 13.4314 14.7051 13.3019 14.3872C13.1724 14.0694 12.9816 13.7803 12.7405 13.5363C12.4995 13.2924 12.2128 13.0984 11.8969 12.9655C11.581 12.8326 11.242 12.7634 10.8994 12.7618H8.9536C8.61088 12.7632 8.27182 12.8324 7.95578 12.9652C7.63975 13.098 7.35294 13.292 7.11175 13.5359C6.87056 13.7799 6.67972 14.0691 6.55014 14.387C6.42056 14.7049 6.35477 15.0452 6.35655 15.3886C6.35655 15.7509 6.64848 16.0445 7.00665 16.0445ZM10.8074 2.252L18.649 8.87825C18.743 8.95237 18.8212 9.04466 18.8788 9.14963C18.9365 9.2546 18.9726 9.37012 18.9848 9.48932C18.9971 9.60852 18.9853 9.72897 18.9502 9.84353C18.9151 9.95808 18.8574 10.0644 18.7805 10.1562C18.7036 10.2479 18.609 10.3233 18.5025 10.3777C18.3959 10.4322 18.2796 10.4646 18.1603 10.4731C18.041 10.4816 17.9212 10.466 17.808 10.4272C17.6949 10.3885 17.5906 10.3273 17.5015 10.2474L10.6266 4.46825C10.4393 4.30949 10.2004 4.22503 9.95514 4.23088C9.84177 4.22711 9.7288 4.24617 9.62291 4.28695C9.51703 4.32772 9.42039 4.38937 9.33872 4.46825L2.47051 10.2474C2.38082 10.3237 2.27696 10.3815 2.16489 10.4175C2.05282 10.4534 1.93476 10.4668 1.81751 10.4569C1.70025 10.447 1.58611 10.4139 1.48165 10.3597C1.37719 10.3054 1.28447 10.2309 1.20883 10.1406C1.13319 10.0503 1.07612 9.94587 1.04091 9.83337C1.00569 9.72086 0.993025 9.6025 1.00364 9.48507C1.01425 9.36765 1.04793 9.25348 1.10274 9.14915C1.15754 9.04481 1.2324 8.95237 1.323 8.87712L9.14897 2.252C9.38476 2.05175 9.70251 2 9.95402 2C10.2067 2 10.5817 2.05175 10.8085 2.252H10.8074Z" fill="#1A49C0"/>
</g>
</svg>
