<svg width="20" height="20" viewBox="0 0 20 20" fill="none" xmlns="http://www.w3.org/2000/svg">
<g id="&#229;&#183;&#178;&#231;&#186;&#166;&#229;&#186;&#167;&#228;&#189;&#141;">
<g id="Group 3022">
<path id="Union" fill-rule="evenodd" clip-rule="evenodd" d="M3.85883 10.3027V8.07423C3.85883 7.67451 3.53369 7.34937 3.134 7.34937H1.72456C1.33172 7.34937 1.01087 7.66345 1 8.05367C1.04508 8.44712 1.50079 12.444 1.56997 13.8533C1.5908 14.2778 1.90264 14.5979 2.29533 14.5979H2.71292C2.59257 14.3753 2.52969 14.1261 2.52997 13.8731V11.8193C2.52997 11.0438 3.10994 10.4016 3.85883 10.3027ZM16.665 13.8732V11.8195C16.665 11.4198 16.3398 11.0946 15.9402 11.0946H4.06056C3.66087 11.0946 3.33569 11.4198 3.33569 11.8195V13.8732C3.33569 14.273 3.66087 14.5981 4.06056 14.5981H15.9402C16.3398 14.5981 16.665 14.2729 16.665 13.8732ZM16.1412 8.07423C16.1412 7.67455 16.4664 7.3494 16.8661 7.3494V7.34937H18.2755C18.6684 7.34937 18.9892 7.66341 19.0001 8.05367C18.955 8.44712 18.4992 12.444 18.4301 13.8533C18.4093 14.2778 18.0974 14.5979 17.7048 14.5979H17.2872C17.4076 14.3753 17.4704 14.1261 17.4701 13.8731V11.8193C17.4701 11.0438 16.8901 10.4016 16.1412 10.3027V8.07423ZM3.13408 15.4034C3.29117 15.4035 3.44733 15.3792 3.59698 15.3314C3.60187 15.333 3.60682 15.3345 3.61177 15.3359C3.61482 15.3368 3.61786 15.3376 3.62089 15.3386L2.96342 17.8413C2.9159 18.0221 2.75276 18.1418 2.57422 18.1418C2.54032 18.1418 2.50592 18.1375 2.47159 18.1285C2.25653 18.072 2.12794 17.8518 2.18446 17.6367L2.77119 15.4034H3.13408ZM16.8661 15.4034H17.2289L17.8157 17.6367C17.8722 17.8518 17.7436 18.072 17.5285 18.1285C17.4942 18.1375 17.4598 18.1418 17.4259 18.1418C17.2473 18.1418 17.0842 18.0221 17.0367 17.8413L16.3792 15.3386C16.3822 15.3377 16.3852 15.3368 16.3882 15.336C16.3932 15.3345 16.3982 15.333 16.4031 15.3314C16.5524 15.379 16.7073 15.4034 16.8661 15.4034Z" fill="#1A49C0"/>
<path id="Subtract" fill-rule="evenodd" clip-rule="evenodd" d="M16.7061 2.13131C16.5394 1.95821 16.3056 1.85889 16.0646 1.85889H3.93495C3.69396 1.85889 3.46011 1.95817 3.29344 2.13135C3.13926 2.29153 3.05883 2.49747 3.06697 2.71124C3.09122 3.34842 3.20613 4.93594 3.33168 6.55653C4.08228 6.65399 4.66407 7.29691 4.66407 8.07358V10.2884H15.3356V8.07358C15.3356 7.30618 15.9035 6.66908 16.6411 6.55999C16.6674 6.23243 16.694 5.90656 16.7199 5.58977L16.7201 5.58759L16.7201 5.58744C16.8225 4.33324 16.9132 3.22166 16.9327 2.71124C16.9408 2.49747 16.8603 2.29149 16.7061 2.13131ZM8.9995 5.00012C8.9995 5.5524 8.55179 6.00012 7.99951 6.00012C7.44722 6.00012 6.99951 5.5524 6.99951 5.00012C6.99951 4.44783 7.44722 4.00012 7.99951 4.00012C8.55179 4.00012 8.9995 4.44783 8.9995 5.00012ZM11.9996 6.00012C12.5519 6.00012 12.9996 5.5524 12.9996 5.00012C12.9996 4.44783 12.5519 4.00012 11.9996 4.00012C11.4473 4.00012 10.9996 4.44783 10.9996 5.00012C10.9996 5.5524 11.4473 6.00012 11.9996 6.00012ZM8.9995 8.00048C8.9995 8.55276 8.55179 9.00048 7.99951 9.00048C7.44722 9.00048 6.99951 8.55276 6.99951 8.00048C6.99951 7.4482 7.44722 7.00048 7.99951 7.00048C8.55179 7.00048 8.9995 7.4482 8.9995 8.00048ZM11.9996 9.00048C12.5519 9.00048 12.9996 8.55276 12.9996 8.00048C12.9996 7.4482 12.5519 7.00048 11.9996 7.00048C11.4473 7.00048 10.9996 7.4482 10.9996 8.00048C10.9996 8.55276 11.4473 9.00048 11.9996 9.00048Z" fill="#1A49C0"/>
</g>
</g>
</svg>
