<svg width="20" height="20" viewBox="0 0 20 20" fill="none" xmlns="http://www.w3.org/2000/svg">
<g id="&#229;&#189;&#147;&#229;&#137;&#141;&#233;&#162;&#132;&#231;&#186;&#166;">
<path id="Union" fill-rule="evenodd" clip-rule="evenodd" d="M6.14474 5.10615C6.48462 5.10615 6.76084 4.82993 6.76084 4.49005V2.6161C6.76084 2.27622 6.48462 2 6.14474 2C5.80486 2 5.52865 2.27622 5.52865 2.6161V4.49005C5.52865 4.83096 5.80486 5.10615 6.14474 5.10615ZM13.005 5.10615C13.3448 5.10615 13.6211 4.82993 13.6211 4.49005V2.6161C13.6211 2.27622 13.3448 2 13.005 2C12.6651 2 12.3889 2.27622 12.3889 2.6161V4.49005C12.3889 4.83096 12.6651 5.10615 13.005 5.10615ZM16.5885 6.28286C16.5885 5.07943 15.8502 4.04849 14.8008 3.61825V4.49003C14.8008 5.48297 13.9968 6.28697 13.0039 6.28697C12.0109 6.28697 11.2069 5.48297 11.2069 4.49003V3.40365H7.94161V4.49003C7.94161 5.48297 7.13761 6.28697 6.14467 6.28697C5.15173 6.28697 4.34773 5.48297 4.34773 4.49003V3.45191C3.00772 3.69834 1.99219 4.87201 1.99219 6.28389V7.41956H16.5885V6.28286ZM10.3239 14.3763C10.3239 11.8329 12.3857 9.76996 14.9302 9.76996C15.5155 9.76996 16.0741 9.87983 16.5885 10.079V8.65175H1.99219V15.1197C1.99219 16.7103 3.28188 18 4.87243 18H12.0879C11.0149 17.1569 10.3239 15.8477 10.3239 14.3763ZM7.6962 15.1177H4.87038C4.5305 15.1177 4.25428 14.8415 4.25428 14.5016C4.25428 14.1617 4.5305 13.8855 4.87038 13.8855H7.6962C8.03608 13.8855 8.3123 14.1617 8.3123 14.5016C8.3123 14.8415 8.03711 15.1177 7.6962 15.1177ZM7.6962 11.8092H4.87038C4.5305 11.8092 4.25428 11.533 4.25428 11.1931C4.25428 10.8533 4.5305 10.577 4.87038 10.577H7.6962C8.03608 10.577 8.3123 10.8533 8.3123 11.1931C8.3123 11.533 8.03711 11.8092 7.6962 11.8092ZM11.562 14.3774C11.562 12.5168 13.0704 11.0094 14.93 11.0094C16.7895 11.0094 18.298 12.5168 18.298 14.3774C18.298 16.238 16.7906 17.7453 14.93 17.7453C13.0694 17.7453 11.562 16.2369 11.562 14.3774ZM14.7492 15.1167H16.4425C16.7824 15.1167 17.0586 14.8405 17.0586 14.5006C17.0586 14.1607 16.7824 13.8845 16.4425 13.8845H15.3653V12.909C15.3653 12.5691 15.0891 12.2929 14.7492 12.2929C14.4094 12.2929 14.1331 12.5691 14.1331 12.909V14.5006C14.1331 14.8405 14.4094 15.1167 14.7492 15.1167Z" fill="#1A49C0"/>
</g>
</svg>
