<svg width="20" height="20" viewBox="0 0 20 20" fill="none" xmlns="http://www.w3.org/2000/svg">
<g id="&#231;&#173;&#155;&#233;&#128;&#137;">
<path id="Vector" d="M18.8535 2.2421C18.58 1.6395 17.9781 1.2502 17.3202 1.2502L2.78455 1.25C2.4657 1.24966 2.15383 1.34345 1.88806 1.51962C1.62229 1.69579 1.41443 1.94649 1.29055 2.2403C1.02115 2.8668 1.14595 3.5704 1.61455 4.0395L1.66615 4.1014L7.03325 8.4029C7.0884 8.44536 7.1333 8.49968 7.16461 8.56184C7.19593 8.624 7.21286 8.69241 7.21415 8.762V16.1416C7.21153 16.4422 7.29141 16.7378 7.44511 16.9961C7.59881 17.2544 7.82043 17.4657 8.08585 17.6068L10.4095 18.9012C10.6658 19.035 10.9299 19.1 11.2166 19.1H11.2179C11.6731 19.1 12.097 18.9245 12.4116 18.6058C12.7213 18.2921 12.8886 17.8737 12.8828 17.4262V8.8079C12.8833 8.73987 12.8985 8.67276 12.9272 8.61109C12.956 8.54942 12.9976 8.49463 13.0493 8.4504L18.4928 4.0982L18.5572 4.0353C18.7787 3.79944 18.9252 3.50304 18.978 3.18375C19.0307 2.86447 18.9874 2.5367 18.8535 2.2421ZM17.6805 3.1837L17.6729 3.194L12.2968 7.5212C11.9042 7.8378 11.6792 8.3117 11.6792 8.8214V17.4261C11.6797 17.5882 11.5942 17.7416 11.4479 17.8309C11.3763 17.8662 11.2977 17.8846 11.218 17.8847C11.1395 17.8853 11.0621 17.8661 10.993 17.8289L8.67075 16.5583C8.52815 16.4879 8.43945 16.3324 8.43945 16.1524V8.7737C8.43945 8.2695 8.21015 7.7962 7.81055 7.4751L2.61895 3.3309L2.43685 3.1819C2.33615 3.0397 2.32465 2.856 2.40395 2.7089C2.47665 2.5475 2.62895 2.4512 2.81135 2.4512H17.3192C17.4038 2.45168 17.4866 2.47578 17.5583 2.5208C17.6299 2.56582 17.6876 2.62997 17.7248 2.706C17.7621 2.78197 17.7778 2.86679 17.77 2.9511C17.7622 3.03541 17.7312 3.11591 17.6805 3.1837Z" fill="#1A49C0"/>
<path id="Vector_2" d="M14.6132 15.7366C14.2939 15.7281 14.0369 15.4595 14.0431 15.1374C14.0431 14.8047 14.2989 14.5355 14.6132 14.5355H18.4297C18.7441 14.5355 18.9998 14.8046 18.9998 15.1354C19.0026 15.2121 18.9901 15.2886 18.9631 15.3605C18.9361 15.4323 18.895 15.4981 18.8423 15.5539C18.7902 15.6096 18.7276 15.6543 18.6581 15.6857C18.5885 15.717 18.5135 15.7342 18.4373 15.7363L18.4297 15.7366H14.6132ZM14.6132 13.0457C14.2944 13.0374 14.0376 12.769 14.0431 12.4477C14.0431 12.1145 14.2989 11.8449 14.6132 11.8449H18.4297C18.7441 11.8449 18.9998 12.1145 18.9998 12.446C19.0033 12.5219 18.9916 12.5978 18.9655 12.6692C18.9393 12.7407 18.8992 12.8061 18.8475 12.8619C18.7963 12.9173 18.7347 12.9621 18.6662 12.9935C18.5976 13.025 18.5236 13.0426 18.4482 13.0453L18.4297 13.0458H14.6132V13.0457ZM14.6132 10.3549C14.2944 10.3466 14.0376 10.0782 14.0431 9.75677C14.0431 9.42427 14.2989 9.15527 14.6132 9.15527H18.4297C18.7441 9.15527 18.9998 9.42427 18.9998 9.75507C19.0058 9.91217 18.9517 10.0585 18.8475 10.171C18.7433 10.2835 18.6015 10.3486 18.4482 10.3545L18.4289 10.3549H14.6132Z" fill="#1A49C0"/>
</g>
</svg>
