<svg width="24" height="24" viewBox="0 0 24 24" fill="none" xmlns="http://www.w3.org/2000/svg">
<g id="&#229;&#184;&#184;&#231;&#148;&#168;&#233;&#162;&#132;&#231;&#186;&#166;">
<g id="Group 2613">
<path id="Vector" d="M5.49741 3.87178C4.77962 3.87178 4.19531 4.45176 4.19531 5.16932V20.1309C4.19531 20.8491 4.77915 21.4284 5.49741 21.4284H18.4991C19.2169 21.4284 19.8012 20.8484 19.8012 20.1309V5.16932C19.8012 4.45108 19.2174 3.87178 18.4991 3.87178H16.55L17.2002 4.52203V3.54569C17.2002 3.0097 16.7641 2.57129 16.226 2.57129H7.77054C7.23041 2.57129 6.7963 3.00754 6.7963 3.54569V4.52203L7.44654 3.87178H5.49741ZM8.09679 5.17227V4.52203V3.54569C8.09679 3.72436 7.95009 3.87178 7.77054 3.87178H16.226C16.0443 3.87178 15.8997 3.72646 15.8997 3.54569V4.52203V5.17227H16.55H18.4991C18.5014 5.17227 18.5007 20.1309 18.5007 20.1309C18.5007 20.128 5.49741 20.1279 5.49741 20.1279C5.49513 20.1279 5.4958 5.16932 5.4958 5.16932C5.4958 5.17217 7.44654 5.17227 7.44654 5.17227H8.09679ZM15.8997 5.49836C15.8997 5.3197 16.0464 5.17227 16.226 5.17227H7.77054C7.95221 5.17227 8.09679 5.31759 8.09679 5.49836V4.52203C8.09679 4.16291 7.80566 3.87178 7.44654 3.87178C7.08742 3.87178 6.7963 4.16291 6.7963 4.52203V5.49836C6.7963 6.03436 7.23248 6.47277 7.77054 6.47277H16.226C16.7661 6.47277 17.2002 6.03651 17.2002 5.49836V4.52203C17.2002 4.16291 16.9091 3.87178 16.55 3.87178C16.1909 3.87178 15.8997 4.16291 15.8997 4.52203V5.49836Z" fill="white"/>
<path id="Vector_2" d="M15.8985 10.6989C16.2576 10.6989 16.5488 10.4078 16.5488 10.0487C16.5488 9.68956 16.2576 9.39844 15.8985 9.39844H8.09556C7.73644 9.39844 7.44531 9.68956 7.44531 10.0487C7.44531 10.4078 7.73644 10.6989 8.09556 10.6989H15.8985ZM8.09556 12.6497C7.73644 12.6497 7.44531 12.9408 7.44531 13.2999C7.44531 13.659 7.73644 13.9502 8.09556 13.9502H15.8985C16.2576 13.9502 16.5488 13.659 16.5488 13.2999C16.5488 12.9408 16.2576 12.6497 15.8985 12.6497H8.09556ZM8.09556 15.9009C7.73644 15.9009 7.44531 16.192 7.44531 16.5511C7.44531 16.9103 7.73644 17.2014 8.09556 17.2014H13.2975C13.6566 17.2014 13.9478 16.9103 13.9478 16.5511C13.9478 16.192 13.6566 15.9009 13.2975 15.9009H8.09556Z" fill="white"/>
</g>
</g>
</svg>
