<svg width="44" height="44" viewBox="0 0 44 44" fill="none" xmlns="http://www.w3.org/2000/svg">
<g id="&#229;&#186;&#167;&#228;&#189;&#141;&#233;&#162;&#132;&#231;&#186;&#166;">
<g id="Group 1236">
<path id="Vector" d="M36.7315 19.4529H34.2671V10.1427C34.2671 9.02627 33.4877 8.12053 32.5398 8.12053H11.4339C10.486 8.12053 9.70666 9.02627 9.70666 10.1427V19.4529H7.24219V9.72138C7.24219 7.59393 8.84304 5.8667 10.802 5.8667H33.1718C35.1307 5.8667 36.7315 7.59393 36.7315 9.72138V19.4529Z" fill="#3E3A39"/>
<path id="Vector_2" d="M36.4645 38.8667H33.5993C31.5136 38.8667 29.8492 37.0879 29.8492 35.4254V35.3931H14.1747V35.4254C14.1747 37.0879 12.4471 38.8667 10.3825 38.8667H7.51725C5.43152 38.8667 3.74609 37.5109 3.74609 35.8484V22.2255C3.74609 20.563 5.24191 19.2072 7.30657 19.2072H9.96112C13.2266 19.2072 14.1536 20.563 14.1536 22.2255V27.7134L29.8071 27.6972L29.8281 22.2255C29.8281 20.563 31.1343 19.2233 33.831 19.2233H36.9069C38.9927 19.2233 40.2567 20.5791 40.2567 22.2416V35.8645C40.2357 37.5109 38.5502 38.8667 36.4645 38.8667ZM11.9836 33.2497H32.0192L32.0192 34.7475C32.0192 35.5384 32.7776 36.607 33.7468 36.607H36.317C37.2862 36.607 38.0657 35.9614 38.0657 35.1705V22.9196C38.0657 22.1286 37.2862 21.483 36.317 21.483H33.7468C32.7776 21.483 31.9981 22.1286 31.9981 22.9196L31.9981 29.855L11.9836 29.8712L11.9626 22.9196C11.9626 22.1286 11.1831 21.483 10.2139 21.483H7.64365C6.67453 21.483 5.89502 22.1286 5.89502 22.9196V35.1705C5.89502 35.9614 6.67453 36.607 7.64365 36.607H10.2139C11.1831 36.607 11.9836 35.5384 11.9836 34.7475L11.9836 33.2497Z" fill="#3E3A39"/>
<path id="Line 20 (Stroke)" fill-rule="evenodd" clip-rule="evenodd" d="M29.0541 13.2474C29.5487 13.6706 29.6066 14.4145 29.1835 14.9091L22.4613 22.7663C22.2534 23.0092 21.9557 23.1573 21.6365 23.1765C21.3173 23.1957 21.0041 23.0844 20.7685 22.8681L16.4908 18.9396C16.0113 18.4993 15.9796 17.7537 16.4199 17.2743C16.8602 16.7949 17.6057 16.7632 18.0851 17.2035L21.4638 20.3063L27.3924 13.3768C27.8156 12.8822 28.5595 12.8243 29.0541 13.2474Z" fill="#1A49C0"/>
</g>
</g>
</svg>
