<svg width="13" height="13" viewBox="0 0 13 13" fill="none" xmlns="http://www.w3.org/2000/svg">
<path id="&#229;&#183;&#178;&#228;&#189;&#191;&#231;&#148;&#168;&#230;&#151;&#182;&#233;&#149;&#191;" fill-rule="evenodd" clip-rule="evenodd" d="M4.427 11.5047C5.08422 11.7769 5.78863 11.917 6.5 11.917C7.93668 11.917 9.31452 11.3463 10.3304 10.3304C11.3463 9.31452 11.917 7.93668 11.917 6.5C11.917 5.06332 11.3463 3.68548 10.3304 2.66959C9.31452 1.65371 7.93668 1.08299 6.5 1.08299C5.78863 1.08299 5.08422 1.2231 4.427 1.49533C3.76978 1.76756 3.17261 2.16658 2.66959 2.66959C2.16658 3.17261 1.76756 3.76978 1.49533 4.427C1.2231 5.08422 1.08299 5.78863 1.08299 6.5C1.08299 7.21137 1.2231 7.91578 1.49533 8.573C1.76756 9.23022 2.16658 9.82739 2.66959 10.3304C3.17261 10.8334 3.76978 11.2324 4.427 11.5047ZM8.98744 12.5052C8.19883 12.8319 7.35359 13 6.5 13C5.64641 13 4.80117 12.8319 4.01256 12.5052C3.22394 12.1786 2.50739 11.6998 1.90381 11.0962C1.30023 10.4926 0.821439 9.77606 0.494783 8.98744C0.168127 8.19883 0 7.35359 0 6.5C0 5.64641 0.168127 4.80117 0.494783 4.01256C0.821439 3.22394 1.30023 2.50739 1.90381 1.90381C2.50739 1.30023 3.22394 0.821439 4.01256 0.494783C4.80117 0.168127 5.64641 0 6.5 0C7.35359 0 8.19883 0.168127 8.98744 0.494783C9.77606 0.821439 10.4926 1.30023 11.0962 1.90381C11.6998 2.50739 12.1786 3.22394 12.5052 4.01256C12.8319 4.80117 13 5.64641 13 6.5C13 7.35359 12.8319 8.19883 12.5052 8.98744C12.1786 9.77606 11.6998 10.4926 11.0962 11.0962C10.4926 11.6998 9.77606 12.1786 8.98744 12.5052ZM6.44588 7.52849H6.44865V7.5278H9.62828C9.69939 7.5278 9.7698 7.51379 9.8355 7.48658C9.90119 7.45937 9.96089 7.41948 10.0112 7.3692C10.0615 7.31892 10.1013 7.25922 10.1286 7.19353C10.1558 7.12783 10.1698 7.05742 10.1698 6.98631C10.1698 6.9152 10.1558 6.84478 10.1286 6.77909C10.1013 6.71339 10.0615 6.6537 10.0112 6.60341C9.96089 6.55313 9.90119 6.51325 9.8355 6.48603C9.7698 6.45882 9.69939 6.44481 9.62828 6.44481H6.99014V4.27815C6.99014 4.13453 6.93309 3.9968 6.83154 3.89525C6.72999 3.7937 6.59226 3.73665 6.44865 3.73665C6.30504 3.73665 6.1673 3.7937 6.06576 3.89525C5.96421 3.9968 5.90716 4.13453 5.90716 4.27815V6.93223C5.8995 7.00757 5.90772 7.08368 5.93131 7.15564C5.95489 7.22761 5.99331 7.29382 6.04408 7.35001C6.09485 7.40621 6.15684 7.45112 6.22605 7.48187C6.29526 7.51261 6.37015 7.52849 6.44588 7.52849Z" fill="#1A49C0"/>
</svg>
