<svg width="16" height="16" viewBox="0 0 16 16" fill="none" xmlns="http://www.w3.org/2000/svg">
<g id="&#233;&#128;&#154;&#231;&#159;&#165;">
<path id="Vector" d="M8.53156 1.36272C8.29797 1.25286 8.02223 1.28912 7.82383 1.45392L3.99823 4.63792L0.9465 4.62566C0.771031 4.62566 0.601969 4.69498 0.477703 4.81925C0.352375 4.94351 0.281438 5.11258 0.281438 5.28966L0.267578 10.6107C0.267578 10.7878 0.336906 10.9574 0.461719 11.0822C0.585984 11.208 0.755578 11.2779 0.932656 11.2779H4.01798L7.82439 14.4502C7.94598 14.5515 8.09798 14.6038 8.24998 14.6038C8.34598 14.6038 8.44199 14.583 8.53213 14.5408C8.76572 14.4315 8.91506 14.1968 8.91506 13.9387V1.96484C8.91506 1.70725 8.76573 1.47258 8.53159 1.3627L8.53156 1.36272ZM11.1108 4.68858C10.7828 4.53337 10.3929 4.67472 10.2334 5.00111C10.0745 5.32858 10.2121 5.72484 10.5374 5.88858C10.5796 5.91044 11.5758 6.42831 11.5758 7.90298C11.5758 9.47845 10.6441 10.0006 10.6132 10.0177C10.2846 10.1819 10.1513 10.5819 10.3156 10.9105C10.4329 11.144 10.667 11.2785 10.9118 11.2785C11.0116 11.2785 11.1134 11.256 11.2084 11.2086C11.2777 11.1734 12.906 10.3307 12.906 7.903C12.906 5.56059 11.1838 4.72325 11.1108 4.68858ZM13.1817 2.73498C12.875 2.53819 12.4681 2.62778 12.2676 2.93392C12.0681 3.24006 12.1556 3.65178 12.4606 3.85339C12.5326 3.90086 14.2366 5.06192 14.2366 7.95206C14.2366 10.8486 12.602 12.0107 12.5369 12.055C12.2308 12.2593 12.1486 12.6715 12.3524 12.9777C12.4804 13.1697 12.6916 13.2737 12.9065 13.2737C13.0329 13.2737 13.1614 13.2369 13.275 13.1617C13.3684 13.0998 15.5668 11.5926 15.5668 7.95153C15.5668 4.30353 13.2793 2.79739 13.1817 2.735V2.73498Z" fill="#1A49C0"/>
</g>
</svg>
