<svg width="20" height="20" viewBox="0 0 20 20" fill="none" xmlns="http://www.w3.org/2000/svg">
<g id="&#232;&#182;&#133;&#230;&#151;&#182;&#230;&#151;&#182;&#233;&#149;&#191;&#230;&#159;&#165;&#232;&#175;&#162;" clip-path="url(#clip0_695_2633)">
<g id="Union">
<path fill-rule="evenodd" clip-rule="evenodd" d="M5.00016 17.4844C6.48031 18.4734 8.2205 19.0013 10.0007 19.0013C12.3869 18.9984 14.6745 18.0492 16.3618 16.3618C18.0492 14.6745 18.9984 12.3869 19.0013 10.0007C19.0013 8.22049 18.4734 6.48031 17.4844 5.00016C16.4954 3.52001 15.0897 2.36638 13.4451 1.68514C12.3477 1.23062 11.177 1.00001 10.0007 1C9.4139 0.999996 8.82578 1.05737 8.24472 1.17295C6.49876 1.52024 4.895 2.37747 3.63623 3.63623C2.37747 4.895 1.52024 6.49876 1.17295 8.24471C0.825657 9.99067 1.0039 11.8004 1.68514 13.4451C2.36638 15.0897 3.52001 16.4954 5.00016 17.4844ZM9.44676 2.12723V3.34837C9.44676 3.49527 9.50512 3.63615 9.60899 3.74003C9.71287 3.8439 9.85375 3.90226 10.0007 3.90226C10.1475 3.90226 10.2884 3.8439 10.3923 3.74003C10.4962 3.63615 10.5545 3.49527 10.5545 3.34837V2.12778C12.4447 2.26254 14.2307 3.07335 15.5793 4.42198C16.9279 5.77057 17.7387 7.55655 17.8735 9.44666H16.6528C16.5059 9.44666 16.365 9.50502 16.2612 9.60889C16.1573 9.71276 16.0989 9.85365 16.0989 10.0005C16.0989 10.1474 16.1573 10.2883 16.2612 10.3922C16.365 10.4961 16.5059 10.5544 16.6528 10.5544H17.8741C17.778 11.9206 17.3277 13.2417 16.5633 14.3857C15.6961 15.6837 14.4634 16.6953 13.0211 17.2927C12.2314 17.6199 11.3982 17.8147 10.5545 17.8741V16.6527C10.5545 16.5058 10.4961 16.365 10.3923 16.2611C10.2884 16.1573 10.1475 16.0989 10.0007 16.0989C9.85377 16.0989 9.7129 16.1573 9.60903 16.2611C9.50516 16.365 9.44679 16.5058 9.44676 16.6527V17.8741C9.11687 17.8509 8.78758 17.8069 8.46083 17.7419C6.92976 17.4373 5.52339 16.6856 4.41955 15.5818C3.31571 14.4779 2.56398 13.0715 2.25944 11.5405C2.19443 11.2137 2.15043 10.8844 2.12722 10.5544H3.34848C3.49538 10.5544 3.63626 10.4961 3.74013 10.3922C3.84401 10.2883 3.90236 10.1474 3.90236 10.0005C3.90236 9.85365 3.84401 9.71276 3.74013 9.60889C3.63626 9.50502 3.49538 9.44666 3.34848 9.44666H2.12724C2.1866 8.60306 2.38147 7.76992 2.70859 6.98018C3.30598 5.53795 4.31763 4.30525 5.61561 3.43797C6.75957 2.6736 8.08066 2.22333 9.44676 2.12723ZM13.6508 14.3679C13.7539 14.4703 13.8932 14.528 14.0385 14.5286H14.044C14.1536 14.5281 14.2605 14.4952 14.3513 14.4339C14.4422 14.3727 14.5128 14.2859 14.5543 14.1845C14.5958 14.0831 14.6063 13.9717 14.5845 13.8644C14.5627 13.757 14.5095 13.6586 14.4317 13.5814L10.5545 9.76791V5.50022C10.5545 5.35334 10.4961 5.21248 10.3923 5.10863C10.2884 5.00478 10.1475 4.94644 10.0007 4.94644C9.85377 4.94644 9.7129 5.00478 9.60903 5.10863C9.50516 5.21248 9.44679 5.35334 9.44676 5.50022V10.0005C9.44707 10.0738 9.46191 10.1463 9.49043 10.2138C9.51896 10.2813 9.56059 10.3425 9.61293 10.3938L13.6508 14.3679Z" fill="#1A49C0"/>
<path d="M10.0007 19.0013V19.1013H10.0008L10.0007 19.0013ZM5.00016 17.4844L5.05572 17.4013L5.00016 17.4844ZM16.3618 16.3618L16.4326 16.4325L16.3618 16.3618ZM19.0013 10.0007L19.1013 10.0008V10.0007H19.0013ZM17.4844 5.00016L17.4013 5.05572L17.4844 5.00016ZM13.4451 1.68514L13.4833 1.59275L13.4451 1.68514ZM10.0007 1L10.0007 0.9L10.0007 1ZM8.24472 1.17295L8.22521 1.07487L8.24472 1.17295ZM3.63623 3.63623L3.70694 3.70694L3.63623 3.63623ZM1.68514 13.4451L1.59275 13.4833H1.59275L1.68514 13.4451ZM9.44676 2.12723H9.54676V2.01995L9.43975 2.02748L9.44676 2.12723ZM9.60899 3.74003L9.53828 3.81074L9.53828 3.81074L9.60899 3.74003ZM10.3923 3.74003L10.3216 3.66932L10.3216 3.66932L10.3923 3.74003ZM10.5545 2.12778L10.5616 2.02803L10.4545 2.0204V2.12778H10.5545ZM15.5793 4.42198L15.65 4.35127L15.5793 4.42198ZM17.8735 9.44666V9.54666H17.9809L17.9733 9.43955L17.8735 9.44666ZM16.2612 10.3922L16.3319 10.3215L16.3319 10.3215L16.2612 10.3922ZM17.8741 10.5544L17.9738 10.5614L17.9814 10.4544H17.8741V10.5544ZM16.5633 14.3857L16.6465 14.4413L16.5633 14.3857ZM13.0211 17.2927L12.9829 17.2003L13.0211 17.2927ZM10.5545 17.8741H10.4545V17.9814L10.5616 17.9738L10.5545 17.8741ZM10.5545 16.6527H10.6545V16.6527L10.5545 16.6527ZM10.3923 16.2611L10.463 16.1904L10.3923 16.2611ZM9.60903 16.2611L9.53833 16.1904L9.53833 16.1904L9.60903 16.2611ZM9.44676 16.6527L9.34676 16.6527V16.6527H9.44676ZM9.44676 17.8741L9.43975 17.9738L9.54676 17.9814V17.8741H9.44676ZM8.46083 17.7419L8.48034 17.6438H8.48034L8.46083 17.7419ZM4.41955 15.5818L4.49026 15.5111L4.41955 15.5818ZM2.25944 11.5405L2.16136 11.56L2.25944 11.5405ZM2.12722 10.5544V10.4544H2.01994L2.02747 10.5614L2.12722 10.5544ZM3.74013 10.3922L3.66942 10.3215L3.66942 10.3215L3.74013 10.3922ZM3.74013 9.60889L3.81084 9.53818L3.81084 9.53818L3.74013 9.60889ZM2.12724 9.44666L2.02749 9.43964L2.01996 9.54666H2.12724V9.44666ZM2.70859 6.98018L2.80097 7.01845L2.70859 6.98018ZM5.61561 3.43797L5.67116 3.52111L5.61561 3.43797ZM14.0385 14.5286L14.0381 14.6286H14.0385V14.5286ZM13.6508 14.3679L13.7212 14.2969L13.7209 14.2967L13.6508 14.3679ZM14.044 14.5286V14.6286L14.0444 14.6286L14.044 14.5286ZM14.5845 13.8644L14.6825 13.8445V13.8445L14.5845 13.8644ZM14.4317 13.5814L14.5022 13.5104L14.5019 13.5101L14.4317 13.5814ZM10.5545 9.76791H10.4545V9.80982L10.4844 9.83921L10.5545 9.76791ZM10.5545 5.50022H10.6545V5.5002L10.5545 5.50022ZM10.3923 5.10863L10.3216 5.17935L10.3216 5.17935L10.3923 5.10863ZM9.60903 5.10863L9.53833 5.03791L9.53833 5.03791L9.60903 5.10863ZM9.44676 5.50022L9.34676 5.5002V5.50022H9.44676ZM9.44676 10.0005H9.34676L9.34676 10.001L9.44676 10.0005ZM9.61293 10.3938L9.68308 10.3225L9.68293 10.3224L9.61293 10.3938ZM10.0007 18.9013C8.24027 18.9013 6.51942 18.3793 5.05572 17.4013L4.9446 17.5676C6.4412 18.5676 8.20072 19.1013 10.0007 19.1013V18.9013ZM16.2911 16.2911C14.6225 17.9597 12.3603 18.8984 10.0005 18.9013L10.0008 19.1013C12.4135 19.0983 14.7265 18.1386 16.4326 16.4325L16.2911 16.2911ZM18.9013 10.0005C18.8984 12.3603 17.9597 14.6225 16.2911 16.2911L16.4326 16.4325C18.1386 14.7265 19.0983 12.4135 19.1013 10.0008L18.9013 10.0005ZM17.4013 5.05572C18.3793 6.51942 18.9013 8.24027 18.9013 10.0007H19.1013C19.1013 8.20072 18.5676 6.4412 17.5676 4.9446L17.4013 5.05572ZM13.4068 1.77753C15.0332 2.45119 16.4233 3.59201 17.4013 5.05572L17.5676 4.9446C16.5676 3.44801 15.1463 2.28156 13.4833 1.59275L13.4068 1.77753ZM10.0006 1.1C11.1639 1.10001 12.3217 1.32806 13.4068 1.77753L13.4833 1.59275C12.3738 1.13318 11.19 0.900007 10.0007 0.9L10.0006 1.1ZM8.26422 1.27103C8.83883 1.15673 9.42042 1.1 10.0006 1.1L10.0007 0.9C9.40738 0.899996 8.81272 0.958007 8.22521 1.07487L8.26422 1.27103ZM3.70694 3.70694C4.95172 2.46217 6.53767 1.61446 8.26422 1.27103L8.22521 1.07487C6.45985 1.42602 4.83827 2.29277 3.56552 3.56552L3.70694 3.70694ZM1.27103 8.26422C1.61446 6.53767 2.46217 4.95172 3.70694 3.70694L3.56552 3.56552C2.29277 4.83827 1.42602 6.45985 1.07487 8.22521L1.27103 8.26422ZM1.77753 13.4068C1.10386 11.7804 0.927594 9.99078 1.27103 8.26422L1.07487 8.22521C0.72372 9.99056 0.903943 11.8204 1.59275 13.4833L1.77753 13.4068ZM5.05572 17.4013C3.59201 16.4233 2.4512 15.0332 1.77753 13.4068L1.59275 13.4833C2.28156 15.1462 3.44801 16.5676 4.9446 17.5676L5.05572 17.4013ZM9.54676 3.34837V2.12723H9.34676V3.34837H9.54676ZM9.6797 3.66932C9.59458 3.5842 9.54676 3.46875 9.54676 3.34837H9.34676C9.34676 3.52179 9.41566 3.68811 9.53828 3.81074L9.6797 3.66932ZM10.0007 3.80226C9.88027 3.80226 9.76482 3.75444 9.6797 3.66932L9.53828 3.81074C9.66091 3.93337 9.82723 4.00226 10.0007 4.00226V3.80226ZM10.3216 3.66932C10.2365 3.75444 10.121 3.80226 10.0007 3.80226V4.00226C10.1741 4.00226 10.3404 3.93337 10.463 3.81074L10.3216 3.66932ZM10.4545 3.34837C10.4545 3.46875 10.4067 3.5842 10.3216 3.66932L10.463 3.81074C10.5856 3.68811 10.6545 3.52179 10.6545 3.34837H10.4545ZM10.4545 2.12778V3.34837H10.6545V2.12778H10.4545ZM15.65 4.35127C14.2844 2.98557 12.4757 2.16449 10.5616 2.02803L10.5474 2.22753C12.4136 2.36058 14.1771 3.16113 15.5086 4.49269L15.65 4.35127ZM17.9733 9.43955C17.8368 7.52552 17.0157 5.71693 15.65 4.35127L15.5086 4.49269C16.8402 5.82421 17.6407 7.58759 17.7738 9.45377L17.9733 9.43955ZM16.6528 9.54666H17.8735V9.34666H16.6528V9.54666ZM16.3319 9.6796C16.417 9.59448 16.5324 9.54666 16.6528 9.54666V9.34666C16.4794 9.34666 16.3131 9.41555 16.1905 9.53818L16.3319 9.6796ZM16.1989 10.0005C16.1989 9.88017 16.2468 9.76472 16.3319 9.6796L16.1905 9.53818C16.0678 9.66081 15.9989 9.82712 15.9989 10.0005H16.1989ZM16.3319 10.3215C16.2468 10.2364 16.1989 10.1209 16.1989 10.0005H15.9989C15.9989 10.174 16.0678 10.3403 16.1905 10.4629L16.3319 10.3215ZM16.6528 10.4544C16.5324 10.4544 16.417 10.4066 16.3319 10.3215L16.1905 10.4629C16.3131 10.5855 16.4794 10.6544 16.6528 10.6544V10.4544ZM17.8741 10.4544H16.6528V10.6544H17.8741V10.4544ZM16.6465 14.4413C17.4206 13.2828 17.8765 11.9449 17.9738 10.5614L17.7743 10.5474C17.6795 11.8963 17.2349 13.2006 16.4802 14.3301L16.6465 14.4413ZM13.0594 17.3851C14.5199 16.7801 15.7682 15.7557 16.6465 14.4413L16.4802 14.3301C15.6239 15.6117 14.4068 16.6105 12.9829 17.2003L13.0594 17.3851ZM10.5616 17.9738C11.4159 17.9137 12.2596 17.7164 13.0594 17.3851L12.9829 17.2003C12.2031 17.5233 11.3805 17.7157 10.5475 17.7743L10.5616 17.9738ZM10.4545 16.6527V17.8741H10.6545V16.6527H10.4545ZM10.3216 16.3318C10.4067 16.4169 10.4545 16.5324 10.4545 16.6527L10.6545 16.6527C10.6545 16.4793 10.5856 16.313 10.463 16.1904L10.3216 16.3318ZM10.0007 16.1989C10.121 16.1989 10.2364 16.2467 10.3216 16.3318L10.463 16.1904C10.3404 16.0678 10.1741 15.9989 10.0007 15.9989V16.1989ZM9.67973 16.3318C9.76485 16.2467 9.88029 16.1989 10.0007 16.1989V15.9989C9.82725 15.9989 9.66095 16.0678 9.53833 16.1904L9.67973 16.3318ZM9.54676 16.6527C9.54679 16.5324 9.59462 16.4169 9.67974 16.3318L9.53833 16.1904C9.4157 16.313 9.3468 16.4793 9.34676 16.6527L9.54676 16.6527ZM9.54676 17.8741V16.6527H9.34676V17.8741H9.54676ZM8.44132 17.84C8.77221 17.9058 9.10567 17.9503 9.43975 17.9738L9.45378 17.7743C9.12807 17.7514 8.80295 17.708 8.48034 17.6438L8.44132 17.84ZM4.34884 15.6525C5.46666 16.7703 6.89086 17.5315 8.44132 17.84L8.48034 17.6438C6.96867 17.3431 5.58011 16.6009 4.49026 15.5111L4.34884 15.6525ZM2.16136 11.56C2.46976 13.1105 3.23101 14.5346 4.34884 15.6525L4.49026 15.5111C3.4004 14.4212 2.6582 13.0326 2.35751 11.521L2.16136 11.56ZM2.02747 10.5614C2.05097 10.8956 2.09553 11.2291 2.16136 11.56L2.35751 11.521C2.29334 11.1983 2.24989 10.8732 2.22698 10.5474L2.02747 10.5614ZM3.34848 10.4544H2.12722V10.6544H3.34848V10.4544ZM3.66942 10.3215C3.5843 10.4066 3.46886 10.4544 3.34848 10.4544V10.6544C3.5219 10.6544 3.68822 10.5855 3.81084 10.4629L3.66942 10.3215ZM3.80236 10.0005C3.80236 10.1209 3.75454 10.2364 3.66942 10.3215L3.81084 10.4629C3.93347 10.3403 4.00236 10.174 4.00236 10.0005H3.80236ZM3.66942 9.6796C3.75454 9.76472 3.80236 9.88017 3.80236 10.0005H4.00236C4.00236 9.82712 3.93347 9.66081 3.81084 9.53818L3.66942 9.6796ZM3.34848 9.54666C3.46885 9.54666 3.5843 9.59448 3.66942 9.6796L3.81084 9.53818C3.68822 9.41555 3.5219 9.34666 3.34848 9.34666V9.54666ZM2.12724 9.54666H3.34848V9.34666H2.12724V9.54666ZM2.6162 6.94191C2.28493 7.74166 2.0876 8.58536 2.02749 9.43964L2.227 9.45368C2.2856 8.62077 2.478 7.79818 2.80097 7.01845L2.6162 6.94191ZM5.56005 3.35482C4.24563 4.23309 3.22116 5.4814 2.6162 6.94191L2.80097 7.01845C3.3908 5.59449 4.38963 4.37741 5.67116 3.52111L5.56005 3.35482ZM9.43975 2.02748C8.05633 2.12479 6.71851 2.58076 5.56005 3.35482L5.67116 3.52111C6.80063 2.76643 8.10498 2.32186 9.45378 2.22698L9.43975 2.02748ZM14.0389 14.4286C13.9198 14.4281 13.8057 14.3808 13.7212 14.2969L13.5803 14.4389C13.7021 14.5597 13.8665 14.6278 14.0381 14.6286L14.0389 14.4286ZM14.044 14.4286H14.0385V14.6286H14.044V14.4286ZM14.2954 14.351C14.221 14.4012 14.1334 14.4282 14.0436 14.4286L14.0444 14.6286C14.1738 14.628 14.3 14.5891 14.4072 14.5168L14.2954 14.351ZM14.4618 14.1466C14.4277 14.2297 14.3699 14.3008 14.2954 14.351L14.4072 14.5168C14.5145 14.4446 14.5978 14.3421 14.6468 14.2224L14.4618 14.1466ZM14.4865 13.8843C14.5044 13.9723 14.4958 14.0636 14.4618 14.1466L14.6468 14.2224C14.6958 14.1027 14.7082 13.9712 14.6825 13.8445L14.4865 13.8843ZM14.3613 13.6524C14.4251 13.7156 14.4686 13.7963 14.4865 13.8843L14.6825 13.8445C14.6567 13.7177 14.594 13.6015 14.5022 13.5104L14.3613 13.6524ZM10.4844 9.83921L14.3616 13.6527L14.5019 13.5101L10.6247 9.69662L10.4844 9.83921ZM10.4545 5.50022V9.76791H10.6545V5.50022H10.4545ZM10.3216 5.17935C10.4067 5.26445 10.4545 5.37988 10.4545 5.50024L10.6545 5.5002C10.6545 5.3268 10.5856 5.16051 10.463 5.03791L10.3216 5.17935ZM10.0007 5.04644C10.121 5.04644 10.2364 5.09425 10.3216 5.17935L10.463 5.03791C10.3403 4.91531 10.174 4.84644 10.0007 4.84644V5.04644ZM9.67973 5.17935C9.76485 5.09425 9.88029 5.04644 10.0007 5.04644V4.84644C9.82725 4.84644 9.66095 4.91531 9.53833 5.03791L9.67973 5.17935ZM9.54676 5.50024C9.54679 5.37988 9.59462 5.26445 9.67974 5.17935L9.53833 5.03791C9.4157 5.16051 9.3468 5.3268 9.34676 5.5002L9.54676 5.50024ZM9.54676 10.0005V5.50022H9.34676V10.0005H9.54676ZM9.58255 10.1749C9.55918 10.1196 9.54701 10.0602 9.54676 10.0001L9.34676 10.001C9.34712 10.0875 9.36465 10.1731 9.39832 10.2527L9.58255 10.1749ZM9.68293 10.3224C9.64004 10.2804 9.60592 10.2302 9.58255 10.1749L9.39832 10.2527C9.43199 10.3324 9.48114 10.4047 9.54293 10.4652L9.68293 10.3224ZM13.7209 14.2967L9.68308 10.3225L9.54278 10.4651L13.5806 14.4392L13.7209 14.2967Z" fill="#1A49C0"/>
</g>
</g>
<defs>
<clipPath id="clip0_695_2633">
<rect width="20" height="20" fill="white"/>
</clipPath>
</defs>
</svg>
