<svg width="12" height="12" viewBox="0 0 12 12" fill="none" xmlns="http://www.w3.org/2000/svg">
<g id="&#230;&#184;&#133;&#230;&#159;&#156;" clip-path="url(#clip0_723_5010)">
<path id="Vector" d="M4.8295 0.5C4.71306 0.5 4.60139 0.546875 4.51905 0.630312C4.43671 0.713749 4.39046 0.826914 4.39046 0.944912V2.87316H0.439046C0.322604 2.87316 0.210931 2.92003 0.128594 3.00347C0.0462565 3.08691 0 3.20007 0 3.31807V5.69123C0 5.80923 0.0462565 5.92239 0.128594 6.00583C0.210931 6.08927 0.322604 6.13614 0.439046 6.13614H0.878092V11.0551C0.878092 11.1731 0.924348 11.2863 1.00669 11.3697C1.08902 11.4531 1.2007 11.5 1.31714 11.5H10.6829C10.7993 11.5 10.911 11.4531 10.9933 11.3697C11.0757 11.2863 11.1219 11.1731 11.1219 11.0551V6.13614H11.561C11.6774 6.13614 11.7891 6.08927 11.8714 6.00583C11.9537 5.92239 12 5.80923 12 5.69123V3.31807C12 3.20007 11.9537 3.08691 11.8714 3.00347C11.7891 2.92003 11.6774 2.87316 11.561 2.87316H7.60954V0.944912C7.60954 0.826914 7.56328 0.713749 7.48095 0.630312C7.39861 0.546875 7.28694 0.5 7.1705 0.5H4.8295ZM10.2438 10.6102H8.78092V9.25053C8.78092 9.13253 8.73466 9.01936 8.65232 8.93593C8.56999 8.85249 8.45831 8.80561 8.34187 8.80561C8.22543 8.80561 8.11376 8.85249 8.03142 8.93593C7.94908 9.01936 7.90282 9.13253 7.90282 9.25053V10.6102H6.43905V9.24608C6.43905 9.12808 6.39279 9.01491 6.31045 8.93148C6.22812 8.84804 6.11644 8.80116 6 8.80116C5.88356 8.80116 5.77188 8.84804 5.68955 8.93148C5.60721 9.01491 5.56095 9.12808 5.56095 9.24608V10.6111H4.09718V9.25142C4.09718 9.13342 4.05092 9.02025 3.96858 8.93682C3.88624 8.85338 3.77457 8.8065 3.65813 8.8065C3.54169 8.8065 3.43001 8.85338 3.34768 8.93682C3.26534 9.02025 3.21908 9.13342 3.21908 9.25142V10.6111H1.75618V6.16195H10.2438V10.6111V10.6102ZM5.26855 3.31807V1.38982H6.73145V3.31807C6.73145 3.43607 6.77771 3.54923 6.86004 3.63267C6.94238 3.71611 7.05405 3.76298 7.1705 3.76298H11.1219V5.24632H0.878092V3.76298H4.8295C4.94595 3.76298 5.05762 3.71611 5.13996 3.63267C5.22229 3.54923 5.26855 3.43607 5.26855 3.31807Z" fill="#1A49C0"/>
</g>
<defs>
<clipPath id="clip0_723_5010">
<rect width="12" height="12" fill="white"/>
</clipPath>
</defs>
</svg>
