<svg width="14" height="14" viewBox="0 0 14 14" fill="none" xmlns="http://www.w3.org/2000/svg">
<g id="&#230;&#159;&#165;&#232;&#175;&#162;">
<path id="Vector" d="M12.8853 12.2806L10.845 10.0994C11.6731 9.10419 12.1262 7.86305 12.1262 6.55756C12.1262 3.49377 9.63045 1 6.56195 1C3.49575 1 1 3.49377 1 6.55756C1 9.62134 3.49575 12.1151 6.56195 12.1151C7.36473 12.1151 8.13991 11.9473 8.86448 11.6164C9.0807 11.5175 9.17501 11.2647 9.0761 11.0509C8.97719 10.8349 8.72416 10.7407 8.51024 10.8395C7.89608 11.1176 7.24052 11.2601 6.56195 11.2601C3.96729 11.2601 1.85568 9.15016 1.85568 6.55756C1.85568 3.96495 3.96729 1.85501 6.56195 1.85501C9.15661 1.85501 11.2682 3.96495 11.2682 6.55756C11.2682 7.77801 10.8013 8.93411 9.95708 9.8144C9.79377 9.98449 9.79837 10.2557 9.96859 10.4189C9.98239 10.4304 9.99849 10.435 10.0123 10.4465C10.0238 10.4626 10.0307 10.4832 10.0445 10.4993L12.2573 12.8644C12.3401 12.954 12.4551 13 12.5701 13C12.676 13 12.7795 12.9609 12.8623 12.8851C13.0371 12.7242 13.0463 12.453 12.8853 12.2806Z" fill="#1A49C0"/>
</g>
</svg>
