<svg width="16" height="16" viewBox="0 0 16 16" fill="none" xmlns="http://www.w3.org/2000/svg">
<g id="&#233;&#128;&#154;&#231;&#159;&#165;">
<path id="Vector" d="M8.53156 1.36369C8.29797 1.25384 8.02223 1.2901 7.82383 1.4549L3.99823 4.6389L0.9465 4.62663C0.771031 4.62663 0.601969 4.69596 0.477703 4.82023C0.352375 4.94449 0.281438 5.11355 0.281438 5.29063L0.267578 10.6117C0.267578 10.7888 0.336906 10.9584 0.461719 11.0832C0.585984 11.209 0.755578 11.2789 0.932656 11.2789H4.01798L7.82439 14.4512C7.94598 14.5525 8.09798 14.6048 8.24998 14.6048C8.34598 14.6048 8.44198 14.584 8.53213 14.5418C8.76572 14.4325 8.91506 14.1978 8.91506 13.9397V1.96582C8.91506 1.70823 8.76573 1.47355 8.53159 1.36368L8.53156 1.36369ZM11.1108 4.68955C10.7828 4.53435 10.3929 4.67569 10.2334 5.00209C10.0745 5.32955 10.2121 5.72582 10.5374 5.88955C10.5796 5.91141 11.5758 6.42929 11.5758 7.90396C11.5758 9.47943 10.6441 10.0016 10.6132 10.0186C10.2846 10.1829 10.1513 10.5829 10.3156 10.9114C10.4329 11.145 10.667 11.2794 10.9118 11.2794C11.0116 11.2794 11.1134 11.257 11.2084 11.2096C11.2777 11.1744 12.906 10.3317 12.906 7.90398C12.906 5.56157 11.1838 4.72423 11.1108 4.68955ZM13.1817 2.73596C12.875 2.53916 12.4681 2.62876 12.2676 2.9349C12.0681 3.24104 12.1556 3.65276 12.4606 3.85437C12.5326 3.90184 14.2366 5.0629 14.2366 7.95304C14.2366 10.8496 12.602 12.0117 12.5369 12.056C12.2308 12.2602 12.1486 12.6725 12.3524 12.9786C12.4804 13.1706 12.6916 13.2746 12.9065 13.2746C13.0329 13.2746 13.1614 13.2379 13.275 13.1626C13.3684 13.1008 15.5668 11.5936 15.5668 7.95251C15.5668 4.30451 13.2793 2.79837 13.1817 2.73598V2.73596Z" fill="#1A49C0"/>
</g>
</svg>
