<svg width="107" height="89" viewBox="0 0 107 89" fill="none" xmlns="http://www.w3.org/2000/svg">
<g id="&#229;&#189;&#147;&#229;&#137;&#141;&#233;&#162;&#132;&#231;&#186;&#166;-&#233;&#128;&#137;&#228;&#184;&#173;">
<g id="Ellipse 548" filter="url(#filter0_d_339_241)">
<path d="M87 33.5C87 52.0015 72.0015 67 53.5 67C34.9985 67 20 52.0015 20 33.5C20 14.9985 34.9985 0 53.5 0C72.0015 0 87 14.9985 87 33.5Z" fill="white"/>
</g>
<g id="&#230;&#151;&#165;&#229;&#142;&#134; (1) 2" clip-path="url(#clip0_339_241)">
<path id="Vector" d="M20 33.5C20 42.3848 23.5295 50.9056 29.8119 57.1881C36.0944 63.4705 44.6152 67 53.5 67C62.3848 67 70.9056 63.4705 77.1881 57.1881C83.4705 50.9056 87 42.3848 87 33.5C87 24.6152 83.4705 16.0944 77.1881 9.81192C70.9056 3.52945 62.3848 0 53.5 0C44.6152 0 36.0944 3.52945 29.8119 9.81192C23.5295 16.0944 20 24.6152 20 33.5Z" fill="#4A77EB"/>
<path id="Vector_2" d="M29.1923 15.8311C28.3166 17.3632 27.7554 18.9919 27.6321 20.3587C27.5088 21.7256 27.8335 22.7186 28.5349 23.1195C29.2362 23.5203 30.2567 23.2961 31.3719 22.4962C32.487 21.6962 33.6054 20.3861 34.4811 18.8539C34.9147 18.0953 35.2757 17.305 35.5434 16.5281C35.8111 15.7513 35.9803 15.0031 36.0413 14.3263C36.1024 13.6495 36.0541 13.0574 35.8992 12.5837C35.7443 12.11 35.4858 11.764 35.1385 11.5655C34.7912 11.3671 34.362 11.3199 33.8752 11.4269C33.3884 11.5338 32.8537 11.7927 32.3015 12.1888C31.1864 12.9888 30.068 14.2989 29.1923 15.8311Z" fill="white"/>
<path id="Vector_3" d="M24.6611 28.2566C24.6611 28.4479 24.6987 28.6374 24.7719 28.8141C24.8451 28.9909 24.9524 29.1515 25.0876 29.2868C25.2229 29.422 25.3835 29.5293 25.5602 29.6026C25.7369 29.6758 25.9264 29.7135 26.1177 29.7135C26.309 29.7135 26.4984 29.6758 26.6751 29.6026C26.8518 29.5293 27.0124 29.422 27.1477 29.2868C27.2829 29.1515 27.3902 28.9909 27.4634 28.8141C27.5366 28.6374 27.5742 28.4479 27.5742 28.2566C27.5742 28.0653 27.5366 27.8759 27.4634 27.6992C27.3902 27.5224 27.2829 27.3618 27.1477 27.2265C27.0124 27.0912 26.8518 26.9839 26.6751 26.9107C26.4984 26.8375 26.309 26.7998 26.1177 26.7998C25.9264 26.7998 25.7369 26.8375 25.5602 26.9107C25.3835 26.9839 25.2229 27.0912 25.0876 27.2265C24.9524 27.3618 24.8451 27.5224 24.7719 27.6992C24.6987 27.8759 24.6611 28.0653 24.6611 28.2566Z" fill="white"/>
<path id="Vector_4" d="M74.4739 56.0761C74.6843 56.0761 74.8927 56.0347 75.0871 55.9542C75.2815 55.8737 75.4582 55.7557 75.607 55.6069C75.7558 55.4581 75.8739 55.2815 75.9544 55.0871C76.0349 54.8927 76.0764 54.6843 76.0764 54.4739C76.0764 54.2635 76.0349 54.0551 75.9544 53.8607C75.8739 53.6663 75.7558 53.4896 75.607 53.3409C75.4582 53.1921 75.2815 53.0741 75.0871 52.9936C74.8927 52.9131 74.6843 52.8717 74.4739 52.8717C74.049 52.8718 73.6416 53.0406 73.3412 53.3411C73.0408 53.6415 72.872 54.049 72.872 54.4739C72.872 54.8987 73.0408 55.3062 73.3412 55.6067C73.6416 55.9071 74.049 56.076 74.4739 56.0761ZM74.4739 57.6782C75.3237 57.6782 76.1388 57.3406 76.7397 56.7397C77.3406 56.1388 77.6782 55.3237 77.6782 54.4739C77.6782 53.624 77.3406 52.809 76.7397 52.2081C76.1388 51.6071 75.3237 51.2695 74.4739 51.2695C73.624 51.2695 72.809 51.6071 72.2081 52.2081C71.6071 52.809 71.2695 53.624 71.2695 54.4739C71.2695 55.3237 71.6071 56.1388 72.2081 56.7397C72.809 57.3406 73.624 57.6782 74.4739 57.6782Z" fill="white"/>
<path id="&#229;&#189;&#147;&#229;&#137;&#141; &#233;&#162;&#132;&#231;&#186;&#166;" d="M49.688 22.88C50.2213 22.88 50.616 22.976 50.872 23.168C51.128 23.36 51.24 23.68 51.208 24.128L50.76 30.4C50.7493 30.7307 50.6053 31.0027 50.328 31.216C50.0613 31.4293 49.7413 31.536 49.368 31.536H38.584L38.728 29.536H48.344L48.44 28.288H39.832L39.976 26.128H48.584L48.68 24.88H39.32L39.448 22.88H43.944L44.264 18.48H46.824L46.504 22.88H49.688ZM51.48 18.96C51.2773 19.568 51.032 20.1973 50.744 20.848C50.456 21.488 50.1733 22.032 49.896 22.48L47.736 22.24C48.024 21.8027 48.312 21.264 48.6 20.624C48.888 19.984 49.128 19.3653 49.32 18.768L51.48 18.96ZM41.496 21.888C41.112 21.888 40.8027 21.7813 40.568 21.568C40.344 21.344 40.232 21.0453 40.232 20.672C40.232 20.256 40.3653 19.92 40.632 19.664C40.9093 19.408 41.256 19.28 41.672 19.28C42.0453 19.28 42.344 19.3867 42.568 19.6C42.792 19.8027 42.904 20.0853 42.904 20.448C42.904 20.8747 42.776 21.2213 42.52 21.488C42.264 21.7547 41.9227 21.888 41.496 21.888ZM68.912 20.208L68.768 22.208H55.824L55.968 20.208H58.736C58.6507 20.0373 58.608 19.8667 58.608 19.696C58.608 19.3333 58.752 19.0187 59.04 18.752C59.3387 18.4853 59.6853 18.352 60.08 18.352C60.4427 18.352 60.7467 18.464 60.992 18.688C61.2373 18.912 61.36 19.1947 61.36 19.536C61.36 19.792 61.296 20.016 61.168 20.208H63.44C63.856 19.6107 64.1973 18.9867 64.464 18.336L66.944 18.656C66.6773 19.2213 66.4053 19.7387 66.128 20.208H68.912ZM65.744 22.8H68.064L67.52 30.704C67.4987 31.0773 67.3493 31.3867 67.072 31.632C66.8053 31.888 66.4853 32.016 66.112 32.016H63.232L63.216 29.936H65.248L65.744 22.8ZM61.68 22.864C61.9573 22.864 62.1813 22.96 62.352 23.152C62.5333 23.3333 62.6133 23.5627 62.592 23.84L62.08 31.04C62.0693 31.3173 61.9627 31.5467 61.76 31.728C61.5573 31.92 61.3173 32.016 61.04 32.016H58.976L58.944 30.272H59.904L59.952 29.488H58.192L58.016 32.016H55.776L56.416 22.864H57.856C58.08 22.864 58.2613 22.9493 58.4 23.12C58.5387 23.28 58.6027 23.4773 58.592 23.712L58.56 24.16C58.56 24.2133 58.5867 24.24 58.64 24.24C58.704 24.24 58.7413 24.2187 58.752 24.176L59.072 23.376C59.1253 23.2267 59.2213 23.104 59.36 23.008C59.4987 22.912 59.6427 22.864 59.792 22.864H61.68ZM64.624 29.136H62.912L63.296 23.552H65.008L64.624 29.136ZM58.512 24.912L58.464 25.648H60.224L60.272 24.912H58.512ZM60.064 27.936L60.112 27.2H58.352L58.304 27.936H60.064ZM43.208 41.456C43.9227 41.456 44.28 41.7227 44.28 42.256C44.28 42.3733 44.264 42.5067 44.232 42.656C44.136 43.136 43.928 43.6533 43.608 44.208C43.2987 44.752 42.9573 45.1733 42.584 45.472L41.96 44.736L41.688 48.704C41.6667 49.0773 41.528 49.3867 41.272 49.632C41.0267 49.888 40.7333 50.016 40.392 50.016H38.216L38.168 48.096H39.272L39.608 43.456H38.312L38.44 41.456H39.928C39.3627 40.848 38.8933 40.3893 38.52 40.08L40.296 39.344C40.6053 39.5893 40.8613 39.808 41.064 40L41.496 38.96H38.744L38.888 36.96H43.032C43.32 36.96 43.5547 37.0347 43.736 37.184C43.9173 37.3333 44.008 37.5307 44.008 37.776C44.008 37.8613 43.992 37.9627 43.96 38.08C43.608 39.264 43.112 40.3733 42.472 41.408L42.52 41.456H43.208ZM49.608 38.72L49.544 39.488H50.632C51.0267 39.488 51.3307 39.5733 51.544 39.744C51.7573 39.9147 51.8533 40.16 51.832 40.48L51.368 47.056H50.024C50.76 47.5467 51.3413 48.0107 51.768 48.448L50.552 50.288C50.1147 49.7973 49.6613 49.3387 49.192 48.912C48.7333 48.4853 48.344 48.1653 48.024 47.952L49.128 46.48L49.272 46.576L49.624 41.568H46.664L46.312 46.704C46.6533 46.2027 46.8453 45.6053 46.888 44.912L47.096 42.128H49.128L48.936 44.752C48.872 45.6587 48.6853 46.4373 48.376 47.088C48.0667 47.728 47.5973 48.288 46.968 48.768C46.3493 49.2587 45.5227 49.7067 44.488 50.112L42.936 48.896C43.6933 48.5867 44.3173 48.288 44.808 48C45.3093 47.712 45.7147 47.3973 46.024 47.056H44.152L44.616 40.48C44.6373 40.16 44.76 39.9147 44.984 39.744C45.2187 39.5733 45.5227 39.488 45.896 39.488H47.064L47.128 38.72H44.568L44.696 36.96H52.312L52.184 38.72H49.608ZM41.992 44.416C42.1307 44.1707 42.28 43.8507 42.44 43.456H42.056L41.992 44.416ZM67.664 38.16C68.0373 38.16 68.3413 38.288 68.576 38.544C68.8107 38.7893 68.912 39.0987 68.88 39.472L68.08 48.544C68.048 48.9173 67.8987 49.2267 67.632 49.472C67.376 49.728 67.0613 49.856 66.688 49.856H62.736L62.72 47.776H65.664L66.32 40.24H63.104C62.464 41.6267 61.7707 42.7147 61.024 43.504L60.192 41.36C60.576 40.7307 60.9387 39.9893 61.28 39.136C61.6213 38.2827 61.9093 37.3653 62.144 36.384L64.368 36.704C64.1973 37.28 64.048 37.7653 63.92 38.16H67.664ZM60.576 39.264C60.4053 40.1173 60.128 40.9387 59.744 41.728C59.3707 42.5173 58.9067 43.232 58.352 43.872C59.12 43.7547 59.6907 43.6533 60.064 43.568V45.488C59.296 45.6693 58.48 45.8347 57.616 45.984C56.752 46.1227 55.936 46.224 55.168 46.288L55.12 44.208C55.8027 43.7067 56.4 43.1253 56.912 42.464C56.336 42.56 55.8027 42.6347 55.312 42.688L55.28 40.608C55.5893 40.1707 55.8933 39.5627 56.192 38.784C56.5013 38.0053 56.7467 37.2213 56.928 36.432L58.928 36.64C58.672 37.952 58.2187 39.1893 57.568 40.352C58.0373 40.2667 58.2667 40.224 58.256 40.224C58.4267 39.84 58.56 39.4507 58.656 39.056L60.576 39.264ZM64.8 43.824C64.8 44.2293 64.6453 44.5813 64.336 44.88C64.0373 45.168 63.6907 45.312 63.296 45.312C62.9227 45.312 62.6133 45.1893 62.368 44.944C62.1227 44.6987 62 44.3893 62 44.016C62 43.6107 62.144 43.264 62.432 42.976C62.7307 42.6773 63.088 42.528 63.504 42.528C63.8667 42.528 64.1707 42.656 64.416 42.912C64.672 43.1573 64.8 43.4613 64.8 43.824ZM54.848 47.344C55.5413 47.28 56.3947 47.1627 57.408 46.992C58.4213 46.8107 59.2853 46.6347 60 46.464L59.84 48.464C59.328 48.656 58.5547 48.8587 57.52 49.072C56.4853 49.296 55.5893 49.4507 54.832 49.536L54.848 47.344Z" fill="white"/>
</g>
</g>
<defs>
<filter id="filter0_d_339_241" x="0" y="-18" width="107" height="107" filterUnits="userSpaceOnUse" color-interpolation-filters="sRGB">
<feFlood flood-opacity="0" result="BackgroundImageFix"/>
<feColorMatrix in="SourceAlpha" type="matrix" values="0 0 0 0 0 0 0 0 0 0 0 0 0 0 0 0 0 0 127 0" result="hardAlpha"/>
<feOffset dy="2"/>
<feGaussianBlur stdDeviation="10"/>
<feComposite in2="hardAlpha" operator="out"/>
<feColorMatrix type="matrix" values="0 0 0 0 0.156863 0 0 0 0 0.509804 0 0 0 0 1 0 0 0 0.1 0"/>
<feBlend mode="normal" in2="BackgroundImageFix" result="effect1_dropShadow_339_241"/>
<feBlend mode="normal" in="SourceGraphic" in2="effect1_dropShadow_339_241" result="shape"/>
</filter>
<clipPath id="clip0_339_241">
<rect width="67" height="67" fill="white" transform="translate(20)"/>
</clipPath>
</defs>
</svg>
