<svg width="107" height="107" viewBox="0 0 107 107" fill="none" xmlns="http://www.w3.org/2000/svg">
<g id="&#229;&#189;&#147;&#229;&#137;&#141;&#233;&#162;&#132;&#231;&#186;&#166;-&#230;&#156;&#170;&#233;&#128;&#137;">
<g id="Ellipse 548" filter="url(#filter0_d_123_359)">
<path d="M87 51.5C87 70.0015 72.0015 85 53.5 85C34.9985 85 20 70.0015 20 51.5C20 32.9985 34.9985 18 53.5 18C72.0015 18 87 32.9985 87 51.5Z" fill="white"/>
</g>
<g id="&#230;&#151;&#165;&#229;&#142;&#134; (1) 1" clip-path="url(#clip0_123_359)">
<path id="Vector" d="M20 51.5C20 60.3848 23.5295 68.9056 29.8119 75.1881C36.0944 81.4705 44.6152 85 53.5 85C62.3848 85 70.9056 81.4705 77.1881 75.1881C83.4705 68.9056 87 60.3848 87 51.5C87 42.6152 83.4705 34.0944 77.1881 27.8119C70.9056 21.5295 62.3848 18 53.5 18C44.6152 18 36.0944 21.5295 29.8119 27.8119C23.5295 34.0944 20 42.6152 20 51.5Z" fill="#1A49C0" fill-opacity="0.1"/>
<path id="Vector_2" d="M29.1913 33.8311C28.3156 35.3632 27.7544 36.9919 27.6311 38.3587C27.5078 39.7256 27.8326 40.7186 28.5339 41.1195C29.2353 41.5203 30.2557 41.2961 31.3709 40.4962C32.486 39.6962 33.6045 38.3861 34.4802 36.8539C34.9138 36.0953 35.2747 35.305 35.5424 34.5281C35.8101 33.7513 35.9793 33.0031 36.0404 32.3263C36.1014 31.6495 36.0531 31.0574 35.8982 30.5837C35.7433 30.11 35.4848 29.764 35.1375 29.5655C34.7903 29.3671 34.361 29.3199 33.8742 29.4269C33.3875 29.5338 32.8527 29.7927 32.3006 30.1888C31.1854 30.9888 30.067 32.2989 29.1913 33.8311Z" fill="white"/>
<path id="Vector_3" d="M24.6602 46.2566C24.6601 46.4479 24.6978 46.6374 24.7709 46.8141C24.8441 46.9909 24.9514 47.1515 25.0867 47.2868C25.2219 47.422 25.3825 47.5293 25.5592 47.6026C25.736 47.6758 25.9254 47.7135 26.1167 47.7135C26.308 47.7135 26.4974 47.6758 26.6741 47.6026C26.8509 47.5293 27.0114 47.422 27.1467 47.2868C27.282 47.1515 27.3892 46.9909 27.4624 46.8141C27.5356 46.6374 27.5732 46.4479 27.5732 46.2566C27.5732 46.0653 27.5356 45.8759 27.4624 45.6992C27.3892 45.5224 27.282 45.3618 27.1467 45.2265C27.0114 45.0912 26.8509 44.9839 26.6741 44.9107C26.4974 44.8375 26.308 44.7998 26.1167 44.7998C25.9254 44.7998 25.736 44.8375 25.5592 44.9107C25.3825 44.9839 25.2219 45.0912 25.0867 45.2265C24.9514 45.3618 24.8441 45.5224 24.7709 45.6992C24.6978 45.8759 24.6601 46.0653 24.6602 46.2566Z" fill="white"/>
<path id="Vector_4" d="M74.4739 74.0761C74.6843 74.0761 74.8927 74.0347 75.0871 73.9542C75.2815 73.8737 75.4582 73.7557 75.607 73.6069C75.7558 73.4581 75.8739 73.2815 75.9544 73.0871C76.0349 72.8927 76.0764 72.6843 76.0764 72.4739C76.0764 72.2635 76.0349 72.0551 75.9544 71.8607C75.8739 71.6663 75.7558 71.4896 75.607 71.3409C75.4582 71.1921 75.2815 71.0741 75.0871 70.9936C74.8927 70.9131 74.6843 70.8717 74.4739 70.8717C74.049 70.8718 73.6416 71.0406 73.3412 71.3411C73.0408 71.6415 72.872 72.049 72.872 72.4739C72.872 72.8987 73.0408 73.3062 73.3412 73.6067C73.6416 73.9071 74.049 74.076 74.4739 74.0761ZM74.4739 75.6782C75.3237 75.6782 76.1388 75.3406 76.7397 74.7397C77.3406 74.1388 77.6782 73.3237 77.6782 72.4739C77.6782 71.624 77.3406 70.809 76.7397 70.2081C76.1388 69.6071 75.3237 69.2695 74.4739 69.2695C73.624 69.2695 72.809 69.6071 72.2081 70.2081C71.6071 70.809 71.2695 71.624 71.2695 72.4739C71.2695 73.3237 71.6071 74.1388 72.2081 74.7397C72.809 75.3406 73.624 75.6782 74.4739 75.6782Z" fill="white"/>
<path id="&#229;&#189;&#147;&#229;&#137;&#141; &#233;&#162;&#132;&#231;&#186;&#166;" d="M49.688 40.88C50.2213 40.88 50.616 40.976 50.872 41.168C51.128 41.36 51.24 41.68 51.208 42.128L50.76 48.4C50.7493 48.7307 50.6053 49.0027 50.328 49.216C50.0613 49.4293 49.7413 49.536 49.368 49.536H38.584L38.728 47.536H48.344L48.44 46.288H39.832L39.976 44.128H48.584L48.68 42.88H39.32L39.448 40.88H43.944L44.264 36.48H46.824L46.504 40.88H49.688ZM51.48 36.96C51.2773 37.568 51.032 38.1973 50.744 38.848C50.456 39.488 50.1733 40.032 49.896 40.48L47.736 40.24C48.024 39.8027 48.312 39.264 48.6 38.624C48.888 37.984 49.128 37.3653 49.32 36.768L51.48 36.96ZM41.496 39.888C41.112 39.888 40.8027 39.7813 40.568 39.568C40.344 39.344 40.232 39.0453 40.232 38.672C40.232 38.256 40.3653 37.92 40.632 37.664C40.9093 37.408 41.256 37.28 41.672 37.28C42.0453 37.28 42.344 37.3867 42.568 37.6C42.792 37.8027 42.904 38.0853 42.904 38.448C42.904 38.8747 42.776 39.2213 42.52 39.488C42.264 39.7547 41.9227 39.888 41.496 39.888ZM68.912 38.208L68.768 40.208H55.824L55.968 38.208H58.736C58.6507 38.0373 58.608 37.8667 58.608 37.696C58.608 37.3333 58.752 37.0187 59.04 36.752C59.3387 36.4853 59.6853 36.352 60.08 36.352C60.4427 36.352 60.7467 36.464 60.992 36.688C61.2373 36.912 61.36 37.1947 61.36 37.536C61.36 37.792 61.296 38.016 61.168 38.208H63.44C63.856 37.6107 64.1973 36.9867 64.464 36.336L66.944 36.656C66.6773 37.2213 66.4053 37.7387 66.128 38.208H68.912ZM65.744 40.8H68.064L67.52 48.704C67.4987 49.0773 67.3493 49.3867 67.072 49.632C66.8053 49.888 66.4853 50.016 66.112 50.016H63.232L63.216 47.936H65.248L65.744 40.8ZM61.68 40.864C61.9573 40.864 62.1813 40.96 62.352 41.152C62.5333 41.3333 62.6133 41.5627 62.592 41.84L62.08 49.04C62.0693 49.3173 61.9627 49.5467 61.76 49.728C61.5573 49.92 61.3173 50.016 61.04 50.016H58.976L58.944 48.272H59.904L59.952 47.488H58.192L58.016 50.016H55.776L56.416 40.864H57.856C58.08 40.864 58.2613 40.9493 58.4 41.12C58.5387 41.28 58.6027 41.4773 58.592 41.712L58.56 42.16C58.56 42.2133 58.5867 42.24 58.64 42.24C58.704 42.24 58.7413 42.2187 58.752 42.176L59.072 41.376C59.1253 41.2267 59.2213 41.104 59.36 41.008C59.4987 40.912 59.6427 40.864 59.792 40.864H61.68ZM64.624 47.136H62.912L63.296 41.552H65.008L64.624 47.136ZM58.512 42.912L58.464 43.648H60.224L60.272 42.912H58.512ZM60.064 45.936L60.112 45.2H58.352L58.304 45.936H60.064ZM43.208 59.456C43.9227 59.456 44.28 59.7227 44.28 60.256C44.28 60.3733 44.264 60.5067 44.232 60.656C44.136 61.136 43.928 61.6533 43.608 62.208C43.2987 62.752 42.9573 63.1733 42.584 63.472L41.96 62.736L41.688 66.704C41.6667 67.0773 41.528 67.3867 41.272 67.632C41.0267 67.888 40.7333 68.016 40.392 68.016H38.216L38.168 66.096H39.272L39.608 61.456H38.312L38.44 59.456H39.928C39.3627 58.848 38.8933 58.3893 38.52 58.08L40.296 57.344C40.6053 57.5893 40.8613 57.808 41.064 58L41.496 56.96H38.744L38.888 54.96H43.032C43.32 54.96 43.5547 55.0347 43.736 55.184C43.9173 55.3333 44.008 55.5307 44.008 55.776C44.008 55.8613 43.992 55.9627 43.96 56.08C43.608 57.264 43.112 58.3733 42.472 59.408L42.52 59.456H43.208ZM49.608 56.72L49.544 57.488H50.632C51.0267 57.488 51.3307 57.5733 51.544 57.744C51.7573 57.9147 51.8533 58.16 51.832 58.48L51.368 65.056H50.024C50.76 65.5467 51.3413 66.0107 51.768 66.448L50.552 68.288C50.1147 67.7973 49.6613 67.3387 49.192 66.912C48.7333 66.4853 48.344 66.1653 48.024 65.952L49.128 64.48L49.272 64.576L49.624 59.568H46.664L46.312 64.704C46.6533 64.2027 46.8453 63.6053 46.888 62.912L47.096 60.128H49.128L48.936 62.752C48.872 63.6587 48.6853 64.4373 48.376 65.088C48.0667 65.728 47.5973 66.288 46.968 66.768C46.3493 67.2587 45.5227 67.7067 44.488 68.112L42.936 66.896C43.6933 66.5867 44.3173 66.288 44.808 66C45.3093 65.712 45.7147 65.3973 46.024 65.056H44.152L44.616 58.48C44.6373 58.16 44.76 57.9147 44.984 57.744C45.2187 57.5733 45.5227 57.488 45.896 57.488H47.064L47.128 56.72H44.568L44.696 54.96H52.312L52.184 56.72H49.608ZM41.992 62.416C42.1307 62.1707 42.28 61.8507 42.44 61.456H42.056L41.992 62.416ZM67.664 56.16C68.0373 56.16 68.3413 56.288 68.576 56.544C68.8107 56.7893 68.912 57.0987 68.88 57.472L68.08 66.544C68.048 66.9173 67.8987 67.2267 67.632 67.472C67.376 67.728 67.0613 67.856 66.688 67.856H62.736L62.72 65.776H65.664L66.32 58.24H63.104C62.464 59.6267 61.7707 60.7147 61.024 61.504L60.192 59.36C60.576 58.7307 60.9387 57.9893 61.28 57.136C61.6213 56.2827 61.9093 55.3653 62.144 54.384L64.368 54.704C64.1973 55.28 64.048 55.7653 63.92 56.16H67.664ZM60.576 57.264C60.4053 58.1173 60.128 58.9387 59.744 59.728C59.3707 60.5173 58.9067 61.232 58.352 61.872C59.12 61.7547 59.6907 61.6533 60.064 61.568V63.488C59.296 63.6693 58.48 63.8347 57.616 63.984C56.752 64.1227 55.936 64.224 55.168 64.288L55.12 62.208C55.8027 61.7067 56.4 61.1253 56.912 60.464C56.336 60.56 55.8027 60.6347 55.312 60.688L55.28 58.608C55.5893 58.1707 55.8933 57.5627 56.192 56.784C56.5013 56.0053 56.7467 55.2213 56.928 54.432L58.928 54.64C58.672 55.952 58.2187 57.1893 57.568 58.352C58.0373 58.2667 58.2667 58.224 58.256 58.224C58.4267 57.84 58.56 57.4507 58.656 57.056L60.576 57.264ZM64.8 61.824C64.8 62.2293 64.6453 62.5813 64.336 62.88C64.0373 63.168 63.6907 63.312 63.296 63.312C62.9227 63.312 62.6133 63.1893 62.368 62.944C62.1227 62.6987 62 62.3893 62 62.016C62 61.6107 62.144 61.264 62.432 60.976C62.7307 60.6773 63.088 60.528 63.504 60.528C63.8667 60.528 64.1707 60.656 64.416 60.912C64.672 61.1573 64.8 61.4613 64.8 61.824ZM54.848 65.344C55.5413 65.28 56.3947 65.1627 57.408 64.992C58.4213 64.8107 59.2853 64.6347 60 64.464L59.84 66.464C59.328 66.656 58.5547 66.8587 57.52 67.072C56.4853 67.296 55.5893 67.4507 54.832 67.536L54.848 65.344Z" fill="#1A49C0"/>
</g>
</g>
<defs>
<filter id="filter0_d_123_359" x="0" y="0" width="107" height="107" filterUnits="userSpaceOnUse" color-interpolation-filters="sRGB">
<feFlood flood-opacity="0" result="BackgroundImageFix"/>
<feColorMatrix in="SourceAlpha" type="matrix" values="0 0 0 0 0 0 0 0 0 0 0 0 0 0 0 0 0 0 127 0" result="hardAlpha"/>
<feOffset dy="2"/>
<feGaussianBlur stdDeviation="10"/>
<feComposite in2="hardAlpha" operator="out"/>
<feColorMatrix type="matrix" values="0 0 0 0 0.156863 0 0 0 0 0.509804 0 0 0 0 1 0 0 0 0.1 0"/>
<feBlend mode="normal" in2="BackgroundImageFix" result="effect1_dropShadow_123_359"/>
<feBlend mode="normal" in="SourceGraphic" in2="effect1_dropShadow_123_359" result="shape"/>
</filter>
<clipPath id="clip0_123_359">
<rect width="67" height="67" fill="white" transform="translate(20 18)"/>
</clipPath>
</defs>
</svg>
