<svg width="30" height="30" viewBox="0 0 30 30" fill="none" xmlns="http://www.w3.org/2000/svg">
<g id="&#233;&#166;&#150;&#233;&#161;&#181;-&#230;&#156;&#170;&#233;&#128;&#137;">
<g id="&#233;&#166;&#150;&#233;&#161;&#181; 1">
<path id="Union" fill-rule="evenodd" clip-rule="evenodd" d="M6.1 22.2001C6.1 23.4001 7 24.4001 8.2 24.4001H15L15.0035 24.4001H21.8C22.9 24.4001 23.9 23.4001 23.9 22.3001C24 17.4001 24 14.7001 24 14.1001V12.9001C24 12.6001 23.9 12.3001 23.8 12.1001L23.5 11.5001C23.3 11.2001 23 11.0001 22.7 10.8001C22.1211 10.5107 17.5391 7.33528 15.601 5.94475C15.5871 5.86458 15.6558 6.02697 15.601 5.94475C15 5.50012 14.9617 5.50013 14.6617 5.70013C13.7667 6.31549 12.8786 6.85433 11.9975 7.46192C9.72863 9.02656 7.76015 10.384 7.4 10.6001C7.16125 10.7195 6.99375 10.8745 6.83371 11.0226C6.72562 11.1226 6.62094 11.2195 6.5 11.3001L6.2 11.9001C6.1 12.2001 6 12.5001 6 12.8001V14.0001C6 14.7001 6 17.3001 6.1 22.2001ZM14.9136 6.84697C11.6758 9.15204 9.69479 10.4844 8.67985 11.167C8.26542 11.4457 8.01207 11.6161 7.9 11.7001C7.7 11.8001 7.6 11.9001 7.5 12.0001C7.4 12.1001 7.3 12.3001 7.3 12.4001C7.2 12.6001 7.2 12.8001 7.2 13.0001V14.1001C7.2 14.7001 7.2 17.4001 7.3 22.2001C7.3 22.8001 7.7 23.3001 8.3 23.3001L14.9857 23.2003C14.9904 23.2002 14.9952 23.2001 15 23.2001M15 23.2001L21.7 23.3001C22.2 23.3001 22.7 22.8001 22.7 22.2001C22.8 17.4001 22.8 14.7001 22.8 14.1001V13.0001C22.8 12.8001 22.8 12.6001 22.7 12.4001C22.7 12.3001 22.6 12.2001 22.5 12.1001C22.4303 11.9607 22.3119 11.8698 22.2128 11.7937C22.1697 11.7607 22.1303 11.7304 22.1 11.7001C21.706 11.5031 19.5654 10.0447 14.9136 6.84697" fill="#AAAAAA"/>
<path id="Vector" d="M16 18.8998H14.1C13.2 18.8998 12.5 18.1998 12.5 17.2998V15.3998C12.5 14.4998 13.2 13.7998 14.1 13.7998H16C16.9 13.7998 17.6 14.4998 17.6 15.3998V17.2998C17.5 18.1998 16.8 18.8998 16 18.8998ZM14.1 14.9998C13.9 14.9998 13.7 15.1998 13.7 15.3998V17.2998C13.7 17.4998 13.9 17.6998 14.1 17.6998H16C16.2 17.6998 16.4 17.4998 16.4 17.2998V15.3998C16.4 15.1998 16.2 14.9998 16 14.9998H14.1Z" fill="#AAAAAA"/>
</g>
</g>
</svg>
