<svg width="30" height="30" viewBox="0 0 30 30" fill="none" xmlns="http://www.w3.org/2000/svg">
<g id="&#230;&#136;&#145;&#231;&#154;&#132;-&#229;&#183;&#178;&#233;&#128;&#137;">
<g id="&#231;&#130;&#185;&#232;&#181;&#158; 1">
<path id="Vector" d="M15 16C11.7273 16 9 13.5 9 10.5C9 7.5 11.7273 5 15 5C18.2727 5 21 7.5 21 10.5C21 13.6 18.2727 16 15 16ZM15 6.4C12.4909 6.4 10.5273 8.3 10.5273 10.5C10.5273 12.7 12.6 14.6 15 14.6C17.4 14.6 19.4727 12.7 19.4727 10.5C19.4727 8.3 17.5091 6.4 15 6.4Z" fill="#1A49C0"/>
<path id="Vector_2" d="M15 15C12.8462 15 11 13.2564 11 11C11 8.74359 12.7436 7 15 7C17.2564 7 19 8.74359 19 11C19 13.2564 17.1538 15 15 15Z" fill="#1A49C0" fill-opacity="0.2"/>
<path id="Vector_3" d="M14 11.7114C13.6 11.7114 13.4 11.5101 13.4 11.2081V10.5034C13.4 10.2013 13.6 10 13.9 10H14C14.3 10 14.5 10.2013 14.5 10.5034V11.1074C14.6 11.5101 14.3 11.7114 14 11.7114ZM16.2 11.7114C15.8 11.7114 15.6 11.5101 15.6 11.2081V10.5034C15.6 10.2013 15.8 10 16.1 10H16.2C16.5 10 16.7 10.2013 16.7 10.5034V11.1074C16.7 11.5101 16.5 11.7114 16.2 11.7114ZM21.3 25H8.7C6.7 25 5 23.2886 5 21.2752C5 19.2617 6.7 17.5503 8.7 17.5503H21.3C23.3 17.5503 25 19.2617 25 21.2752C25 23.3893 23.3 25 21.3 25ZM8.7 18.9597C7.4 18.9597 6.4 19.9664 6.4 21.2752C6.4 22.5839 7.4 23.5906 8.7 23.5906H21.3C22.6 23.5906 23.6 22.5839 23.6 21.2752C23.6 19.9664 22.6 18.9597 21.3 18.9597H8.7Z" fill="#1A49C0"/>
</g>
</g>
</svg>
