<svg width="375" height="330" viewBox="0 0 375 330" fill="none" xmlns="http://www.w3.org/2000/svg">
<g id="&#229;&#164;&#180;&#233;&#131;&#168;&#232;&#131;&#140;&#230;&#153;&#175;">
<path id="Vector" fill-rule="evenodd" clip-rule="evenodd" d="M0 0H375V330H0V0Z" fill="white"/>
<g id="Group 3314">
<path id="&#232;&#183;&#175;&#229;&#190;&#132;" d="M65.5684 85.6834C64.4127 79.4039 59.0319 74.8921 52.8253 75.002C49.5031 74.9863 46.2981 76.2547 43.8419 78.5625C42.4675 77.9219 40.9759 77.5923 39.4689 77.5923C34.6891 77.5138 30.5072 80.8796 29.4224 85.674C25.7489 86.5092 23.1017 89.8122 23 93.6835C23.1418 98.3806 26.9262 102.089 31.4903 101.998H63.4758C68.0523 102.108 71.8582 98.3963 72 93.6835C71.8952 89.8122 69.2418 86.5123 65.5684 85.6834Z" fill="url(#paint0_linear_534_204)"/>
<path id="&#232;&#183;&#175;&#229;&#190;&#132;_2" d="M128.63 67.8996C125.731 61.8844 119.664 58.0532 113.003 58.0348C109.295 58.0409 105.689 59.2464 102.716 61.4733C99.1798 54.5532 91.5024 50.8233 83.9011 52.3324C76.2969 53.8447 70.612 60.228 69.9712 67.9793C61.8848 70.6388 56.9078 78.7797 58.2047 87.2181C59.5046 95.6566 66.7 101.914 75.2075 102H123.589C132.215 102.015 139.548 95.6811 140.811 87.12C142.074 78.5557 136.89 70.3596 128.63 67.8658V67.8996Z" fill="url(#paint1_linear_534_204)"/>
<path id="&#230;&#164;&#173;&#229;&#156;&#134;&#229;&#189;&#162;" d="M375 230.319C375 246.055 355.247 261.143 320.083 272.269C284.919 283.394 237.228 289.646 187.5 289.646C137.772 289.646 90.0806 283.394 54.917 272.269C19.7534 261.143 0 246.055 0 230.319C0 214.583 19.7534 199.495 54.917 188.37C90.0806 177.244 137.772 170.993 187.5 170.993C237.228 170.993 284.919 177.244 320.083 188.37C355.247 199.495 375 214.583 375 230.319Z" fill="url(#paint2_linear_534_204)"/>
<path id="&#232;&#183;&#175;&#229;&#190;&#132;_3" d="M331.787 180.881L330.004 203.952L316.772 200.166L331.787 180.881Z" fill="#F2F8FF"/>
<path id="&#232;&#183;&#175;&#229;&#190;&#132;_4" d="M331.366 180.881L342.407 201.209L329.59 203.952L331.366 180.881Z" fill="#DEEDFF"/>
</g>
<g id="Group">
<g id="Group_2">
<g id="Group_3">
<path id="Vector_2" d="M45.11 154.066C45.11 154.066 45.0501 153.911 44.9683 154.077C44.2326 155.573 37.5699 171.778 37.0413 184.286C37.0413 184.286 35.9295 191.472 45.2463 191.377C53.0234 191.298 52.8163 184.673 52.7891 182.441C52.6855 173.389 45.11 154.066 45.11 154.066Z" fill="url(#paint3_linear_534_204)"/>
<g id="Group_4">
<path id="Vector_3" d="M44.8975 199.334C44.7476 199.334 44.625 199.211 44.625 199.061V158.423C44.625 158.273 44.7476 158.151 44.8975 158.151C45.0474 158.151 45.17 158.273 45.17 158.423V199.061C45.17 199.214 45.0474 199.334 44.8975 199.334Z" fill="url(#paint4_linear_534_204)"/>
</g>
</g>
<g id="Group_5">
<path id="Vector_4" d="M277.22 157.042C277.22 157.042 277.182 156.942 277.131 157.051C276.656 158.013 272.367 168.449 272.027 176.502C272.027 176.502 271.31 181.129 277.31 181.069C282.319 181.02 282.185 176.752 282.166 175.316C282.098 169.485 277.22 157.042 277.22 157.042Z" fill="url(#paint5_linear_534_204)"/>
<g id="Group_6">
<path id="Vector_5" d="M277.085 186.192C276.986 186.192 276.91 186.113 276.91 186.017V159.852C276.91 159.754 276.989 159.678 277.085 159.678C277.183 159.678 277.259 159.757 277.259 159.852V186.017C277.259 186.113 277.183 186.192 277.085 186.192Z" fill="url(#paint6_linear_534_204)"/>
</g>
</g>
</g>
<path id="Vector_6" d="M193.185 167.625L238.804 189.291L222.193 210.325L188.25 208.344L193.185 167.625Z" fill="url(#paint7_linear_534_204)"/>
<path id="Vector_7" d="M200.665 124.902V217.756H133.467L133.184 135.543L200.665 124.902Z" fill="url(#paint8_linear_534_204)"/>
<path id="Vector_8" d="M132.627 135.505C132.627 135.505 187.127 139.077 208.633 134.824C213.072 169.908 215.666 195.553 220.508 212.849C204.264 215.579 154.015 214.178 139.892 211.448C136.562 182.876 132.627 135.505 132.627 135.505Z" fill="url(#paint9_linear_534_204)"/>
<path id="Vector_9" d="M132.627 135.399C132.627 135.399 171.069 145.271 199.422 141.282C199.926 163.025 210.723 209.557 214.053 219.642C189.331 219.642 141.508 215.124 141.508 215.124L132.627 135.399Z" fill="url(#paint10_linear_534_204)"/>
<path id="Vector_10" d="M132.627 135.399C132.627 135.399 161.686 145.587 193.166 146.849C194.88 161.134 203.256 209.102 207.393 224.964C187.416 227.555 139.589 222.582 139.589 222.582L132.627 135.399Z" fill="url(#paint11_linear_534_204)"/>
<path id="Vector_11" d="M132.829 135.45C132.829 135.45 166.396 147.653 185.465 151.013C187.989 168.502 193.673 218.274 198.616 232.245C172.178 229.725 147.762 225.523 147.762 225.523L132.829 135.45Z" fill="url(#paint12_linear_534_204)"/>
<path id="Vector_12" d="M132.692 135.505C132.692 135.505 172.883 151.155 180.652 153.256C181.056 168.905 188.421 235.502 188.421 235.502L157.648 229.934L132.692 135.505Z" fill="url(#paint13_linear_534_204)"/>
<path id="Vector_13" d="M131.047 136.085C131.047 136.085 159.212 148.792 173.996 153.256C174.249 168.014 173.998 240.036 173.998 240.036L132.022 223.631L131.047 136.085Z" fill="url(#paint14_linear_534_204)"/>
<path id="Vector_14" d="M198.578 124.038L200.665 124.899L133.319 135.581C133.319 135.581 169.595 152.073 173.993 153.256C172.949 153.64 170.761 154.438 170.761 154.438L131.044 136.083L132.81 134.625L198.578 124.038Z" fill="url(#paint15_linear_534_204)"/>
<path id="Vector_15" d="M170.764 154.438L173.998 240.036L177.388 239.297L173.996 153.256L170.764 154.438Z" fill="url(#paint16_linear_534_204)"/>
<path id="Vector_16" d="M138.999 157.458L137.797 155.22L138.053 155.054L163.371 166.57L163.36 182.048L162.957 181.985L138.999 157.458Z" fill="url(#paint17_linear_534_204)"/>
<path id="Vector_17" d="M137.797 155.22V169.671L162.957 181.985V166.796L137.797 155.22Z" fill="white"/>
<g id="Group 3315">
<path id="Vector_18" d="M214.094 241.159L236.741 203.952H262.018L219.508 241.742L219.258 239.878L216.879 241.279L214.094 241.159Z" fill="url(#paint18_linear_534_204)"/>
<path id="Vector_19" d="M218.716 165.252C218.716 165.252 215.879 164.895 214.914 167.028C213.95 169.162 215.795 170.059 215.795 170.059L214.844 174.217C214.844 174.217 213.179 175.111 213.604 179.021C214.031 182.931 218.244 186.125 218.244 186.125L219.953 168.061L218.716 165.252Z" fill="url(#paint19_linear_534_204)"/>
<path id="Vector_20" d="M216.004 168.219C216.004 168.219 212.75 175.048 214.6 176.105C216.453 177.16 217.366 176.375 217.366 176.375L219.347 170.484L216.004 168.219Z" fill="url(#paint20_linear_534_204)"/>
<path id="Vector_21" d="M217.002 217.969C217.002 217.969 217.702 237.47 217.632 238.162C217.561 238.854 215.495 240.62 215.495 240.62L216.738 241.222L219.261 239.124C219.261 239.124 222.937 218.051 222.171 216.313C221.406 214.574 217.002 217.969 217.002 217.969Z" fill="url(#paint21_linear_534_204)"/>
<path id="Vector_22" d="M225.068 217.484C225.068 217.484 224.016 219.305 226.201 220.155C228.387 221.005 240.121 225.88 240.121 225.88L240.864 229.491C240.864 229.491 239.434 230.772 239.502 230.431C239.788 229.038 239.172 227.27 238.734 227.18C233.18 226.03 220.773 223.659 219.402 221.487C217.541 218.534 221.141 215.582 221.141 215.582L225.068 217.484Z" fill="url(#paint22_linear_534_204)"/>
<path id="Vector_23" d="M228.19 191.044C228.19 191.044 227.523 193.06 222.808 198.23C221.487 196.894 221.517 196.567 221.517 196.567L224.896 191.256L228.19 191.044Z" fill="url(#paint23_linear_534_204)"/>
<path id="Vector_24" d="M222.882 177.332C222.882 177.332 226.158 182.427 222.76 189.526C221.667 191.529 221.648 193.752 223.528 197.191C225.525 200.843 225.188 204.584 225.367 207.98C225.55 211.378 226.218 216.839 228.885 216.958C227.55 219.081 222.152 221.569 214.83 220.681C215.476 219.386 214.078 210.457 214.241 205.563C214.402 200.668 215.002 199.066 214.241 194.319C213.582 190.21 213.576 188.414 213.576 188.414C213.576 188.414 210.584 185.948 213.132 182.226C215.683 178.503 218.879 175.429 222.882 177.332Z" fill="url(#paint24_linear_534_204)"/>
<path id="Vector_25" d="M215.317 167.137C215.317 167.137 215.078 169.2 217.26 171.386C215.012 175.146 214.772 178.828 217.704 180.77C220.637 182.711 221.555 179.8 221.555 179.8C221.555 179.8 223.19 183.076 222.135 184.817C221.078 186.556 219.852 190.64 219.819 192.3C222.751 193.635 227.692 193.028 229.054 187.932C229.327 186.436 229.425 185.147 228.978 183.615C228.531 182.084 228.351 181.991 228.836 180.264C229.321 178.533 230.076 175.394 226.771 171.876C226.874 168.317 224.591 165.769 220.533 166.254C219.408 164.549 215.655 164.347 215.317 167.137Z" fill="url(#paint25_linear_534_204)"/>
<path id="Vector_26" d="M205.864 170.236C205.864 170.236 207.707 170.98 207.925 171.966C207.968 172.168 208.012 173.358 208.213 174.274C208.704 176.503 209.448 180.04 209.628 180.879C209.878 182.065 210.709 182.01 211.53 181.961C212.59 181.899 215.576 181.245 217.849 181.95C219.71 182.536 219.596 185.624 216.168 185.346C213.535 185.13 207.51 185.299 207.281 182.953C207.053 180.607 206.723 174.615 206.723 174.615C206.723 174.615 205.567 173.165 205.666 172.764C205.764 172.361 205.377 172.35 205.415 172.048C205.453 171.745 205.303 171.639 205.456 171.366C205.791 170.759 203.693 169.879 204.039 169.508C204.21 169.32 205.864 170.236 205.864 170.236Z" fill="url(#paint26_linear_534_204)"/>
<path id="Vector_27" d="M219.378 238.771C219.441 238.946 219.482 239.123 219.485 239.279C219.481 239.284 219.477 239.289 219.471 239.296C219.46 239.308 219.443 239.327 219.413 239.363C219.365 239.42 219.316 239.486 219.271 239.565C219.177 239.526 219.07 239.507 218.956 239.515C218.778 239.529 218.626 239.606 218.503 239.695C218.471 239.718 218.437 239.744 218.399 239.774C218.501 239.672 218.602 239.571 218.7 239.472C218.957 239.211 219.205 238.955 219.378 238.771ZM215.526 240.917C215.857 241.063 216.591 241.299 217.302 240.787C217.256 240.836 217.217 240.882 217.185 240.921C217.112 241.011 217.031 241.085 216.921 241.137C216.812 241.188 216.642 241.232 216.368 241.209C216.061 241.182 215.559 241.114 215.124 241.023C215.269 240.973 215.41 240.936 215.526 240.917Z" fill="url(#paint27_linear_534_204)" stroke="#3B4E71"/>
<path id="Vector_28" d="M240.496 227.081C240.433 226.718 240.369 226.369 240.321 226.122C240.499 226.173 240.668 226.242 240.797 226.331C240.798 226.336 240.8 226.342 240.802 226.351C240.805 226.367 240.811 226.391 240.823 226.436C240.841 226.508 240.866 226.585 240.903 226.668C240.816 226.722 240.738 226.798 240.678 226.897C240.586 227.051 240.561 227.221 240.563 227.372C240.564 227.413 240.565 227.459 240.568 227.508C240.544 227.363 240.52 227.219 240.496 227.081ZM239.675 230.89C239.719 230.743 239.771 230.607 239.822 230.503C240.137 230.316 240.755 229.855 240.752 228.979C240.766 229.047 240.78 229.108 240.795 229.159C240.825 229.266 240.839 229.375 240.817 229.494C240.795 229.613 240.731 229.777 240.552 229.986C240.351 230.221 240.003 230.59 239.675 230.89Z" fill="url(#paint28_linear_534_204)" stroke="#3B4E71"/>
</g>
</g>
<path id="&#229;&#155;&#190;&#228;&#185;&#166;&#233;&#166;&#134;&#231;&#169;&#186;&#233;&#151;&#180;&#233;&#162;&#132;&#231;&#186;&#166;&#231;&#179;&#187;&#231;&#187;&#159;" d="M109.312 286.392L107.008 302.808H88.768L90.952 287.28L90.184 286.392H109.312ZM103.672 300.528L105.352 288.672H94.408L92.728 300.528H103.672ZM99.88 295.056L99.04 294.528L98.056 295.056H94.168L94.408 293.472H96.496L96.976 293.232L95.56 292.32H94.336L95.488 289.128H98.224L98.104 289.464H104.32L103.984 291.864L101.488 293.208L101.92 293.472H104.008L103.768 295.056H99.88ZM102.832 300.072L93.784 299.616L94.024 297.792L103.096 298.248L102.832 300.072ZM102.424 297.792L94.816 297.336L95.08 295.512L102.688 295.968L102.424 297.792ZM98.104 291.072L99.424 291.912L100.936 291.072H98.104ZM130.574 285.936L131.582 289.584H129.302L128.75 293.664H130.55L129.566 300.72C129.502 301.184 129.294 301.576 128.942 301.896C128.59 302.2 128.182 302.352 127.718 302.352H122.966L125.102 300.072L125.678 295.968H120.662L119.63 303.216H115.07L116.078 295.968H110.63L110.942 293.664H116.414L116.942 289.824H112.406L112.718 287.544H117.278L117.374 286.848L116.606 285.936H122.078L121.838 287.544H126.158L125.726 285.936H130.574ZM121.526 289.824L120.974 293.664H124.19L124.718 289.824H121.526ZM139.956 302.784L141.564 291.264H140.82L141.372 287.28H145.932L145.98 286.896L145.188 285.984H149.628L149.436 287.28H153.54L152.988 291.264H152.268L151.596 296.136H144.66L144.516 297.096H151.788L150.996 302.784H139.956ZM138.036 292.344L136.98 299.928L138.924 299.472L138.588 301.92L132.828 303.192L134.34 292.344H138.036ZM138.276 286.176L137.676 287.688H140.892L139.788 291.888H137.268L137.844 290.064H136.764L136.14 291.696H132.948L134.796 286.896L134.172 286.176H138.276ZM143.916 290.784H150.06L150.228 289.56H144.084L143.916 290.784ZM147.876 300.672L148.092 299.136H144.228L144.012 300.672H147.876ZM148.524 294.072L148.716 292.704H145.14L144.948 294.072H148.524ZM162.202 300.528L162.754 296.664H156.874L157.186 294.384H173.602L173.29 296.664H167.314L166.762 300.528H174.082L173.77 302.808H154.618L154.93 300.528H162.202ZM171.058 289.584H161.026L160.834 290.784H156.274L156.778 287.304H164.074L164.146 286.848L163.354 285.936H168.826L168.634 287.304H175.93L175.426 290.784H170.866L171.058 289.584ZM163.378 291.264L160.042 293.808H155.482L158.818 291.264H163.378ZM172.546 291.264L174.85 293.808H170.29L167.986 291.264H172.546ZM191.529 300.984L193.185 289.128H183.849L184.185 286.848H197.625L195.537 301.632C195.473 302.096 195.257 302.48 194.889 302.784C194.537 303.072 194.137 303.216 193.689 303.216H189.393L191.529 300.984ZM192.345 290.496L191.025 299.856H182.337L183.657 290.496H192.345ZM183.033 290.04L181.185 303.216H177.081L178.929 290.04H183.033ZM183.321 286.392L183.345 289.584H179.241L179.217 286.392H183.321ZM187.665 297.792L187.905 295.968H186.561L186.321 297.792H187.665ZM186.849 293.904H188.193L188.385 292.56H187.041L186.849 293.904ZM203.839 289.68L204.103 290.352L204.919 289.344L205.231 288.648H200.287L200.599 286.416H208.975L208.663 288.696L205.903 292.032H208.471L207.823 296.712H205.423L205.759 294.24H204.943L203.911 301.608C203.847 302.072 203.639 302.456 203.287 302.76C202.951 303.048 202.567 303.192 202.135 303.192H198.463L200.287 300.96L201.223 294.24H199.303L199.615 292.032H201.919L200.863 289.68H203.839ZM220.399 286.392L220.087 288.72H216.103L215.671 289.752H219.535L218.311 298.416H215.959L215.527 297.84L216.367 291.888H212.023L211.183 297.84L210.607 298.416H208.255L209.479 289.752H212.527L212.959 288.72H209.239L209.551 286.392H220.399ZM215.527 292.728L214.807 297.792L218.119 303.168H214.231L213.031 300.192L210.751 303.168H207.103L211.927 297.768L212.623 292.728H215.527ZM235.373 287.976H242.333L240.413 301.584C240.349 302.048 240.133 302.432 239.765 302.736C239.413 303.024 239.005 303.168 238.541 303.168H234.629L236.837 300.936L238.325 290.28H234.365L233.453 292.344H229.469L232.109 286.608L231.533 285.96H236.285L235.373 287.976ZM222.245 291.432L225.533 286.56L224.957 285.96H230.021L226.325 291.432H229.565L225.941 296.424H228.869L228.557 298.704H221.237L221.549 296.424L223.637 293.712H221.933L222.245 291.432ZM231.773 299.16L231.029 293.712H234.605L235.349 299.16H231.773ZM228.053 302.328L220.661 302.784L220.973 300.504L228.365 300.096L228.053 302.328ZM264.219 288.192L253.491 288.6L251.667 289.824H263.091L262.731 292.392H253.251L250.131 294.384H258.123L258.027 293.448H262.587L262.971 297.12H258.411L258.363 296.664H255.747L255.051 301.632C254.971 302.096 254.755 302.48 254.403 302.784C254.051 303.072 253.643 303.216 253.179 303.216H248.427L250.563 300.984L251.187 296.664H244.803L245.115 294.384L248.475 292.368H245.403L245.763 289.872L247.563 288.816L244.971 288.912L245.331 286.392L264.555 285.912L264.219 288.192ZM262.683 302.352H258.579L256.947 297.792H261.051L262.683 302.352ZM246.723 302.352H242.619L245.547 297.792H249.627L246.723 302.352ZM284.881 291.408L285.673 295.512H282.481L282.385 295.08L273.361 295.512L273.673 293.232L276.001 289.584H273.721L274.057 287.304H277.897L277.969 286.848L277.201 285.936H282.673L282.457 287.304H286.369L286.033 289.584H280.561L278.377 292.992L281.953 292.824L281.689 291.408H284.881ZM266.569 291.864L269.665 286.992L269.161 286.392H274.177L270.673 291.864H273.409L269.905 297.336H272.641L272.329 299.616H265.489L265.801 297.336L267.841 294.144H266.257L266.569 291.864ZM282.865 295.968L282.289 300.072H284.113L285.145 299.16L284.641 302.808H278.257L279.217 295.968H282.865ZM278.305 295.968L275.977 302.808H272.329L274.657 295.968H278.305ZM271.873 302.808L264.961 303.216L265.297 300.984L272.185 300.528L271.873 302.808Z" fill="#1A49C0"/>
</g>
<defs>
<linearGradient id="paint0_linear_534_204" x1="47.4827" y1="102.033" x2="47.4827" y2="74.9841" gradientUnits="userSpaceOnUse">
<stop stop-color="white" stop-opacity="0.1"/>
<stop offset="1" stop-color="#DEEDFF"/>
</linearGradient>
<linearGradient id="paint1_linear_534_204" x1="99.3991" y1="102.034" x2="99.3991" y2="51.968" gradientUnits="userSpaceOnUse">
<stop stop-color="white" stop-opacity="0.1"/>
<stop offset="0.09" stop-color="white" stop-opacity="0.13"/>
<stop offset="0.23" stop-color="#F7FBFF" stop-opacity="0.21"/>
<stop offset="0.4" stop-color="#F2F8FF" stop-opacity="0.33"/>
<stop offset="0.59" stop-color="#EDF5FF" stop-opacity="0.51"/>
<stop offset="0.79" stop-color="#E7F2FF" stop-opacity="0.74"/>
<stop offset="1" stop-color="#DEEDFF"/>
</linearGradient>
<linearGradient id="paint2_linear_534_204" x1="187.5" y1="289.646" x2="187.5" y2="170.993" gradientUnits="userSpaceOnUse">
<stop stop-color="white" stop-opacity="0.1"/>
<stop offset="1" stop-color="#DEEDFF"/>
</linearGradient>
<linearGradient id="paint3_linear_534_204" x1="44.8975" y1="191.38" x2="44.8975" y2="154" gradientUnits="userSpaceOnUse">
<stop offset="0.2267" stop-color="#DEEDFF"/>
<stop offset="0.7893" stop-color="#F2F8FF"/>
</linearGradient>
<linearGradient id="paint4_linear_534_204" x1="44.8981" y1="158.151" x2="44.8981" y2="199.335" gradientUnits="userSpaceOnUse">
<stop stop-color="#ECF1FB"/>
<stop offset="0.818" stop-color="#BACBEE"/>
</linearGradient>
<linearGradient id="paint5_linear_534_204" x1="277.084" y1="181.069" x2="277.084" y2="157.001" gradientUnits="userSpaceOnUse">
<stop offset="0.173224" stop-color="#F0F7FF"/>
<stop offset="0.7893" stop-color="#ECF1FB"/>
</linearGradient>
<linearGradient id="paint6_linear_534_204" x1="277.085" y1="159.673" x2="277.085" y2="186.191" gradientUnits="userSpaceOnUse">
<stop stop-color="#ECF1FB"/>
<stop offset="1" stop-color="#BACBEE"/>
</linearGradient>
<linearGradient id="paint7_linear_534_204" x1="184.722" y1="202.233" x2="230.889" y2="175.579" gradientUnits="userSpaceOnUse">
<stop offset="0.3396" stop-color="#C0D8FF"/>
<stop offset="0.8657" stop-color="#E0EDFF"/>
</linearGradient>
<linearGradient id="paint8_linear_534_204" x1="133.182" y1="171.329" x2="200.666" y2="171.329" gradientUnits="userSpaceOnUse">
<stop offset="0.00319211" stop-color="#C8DCFF"/>
<stop offset="0.7893" stop-color="#E7EFFF"/>
</linearGradient>
<linearGradient id="paint9_linear_534_204" x1="217.241" y1="216.116" x2="134.628" y2="133.502" gradientUnits="userSpaceOnUse">
<stop offset="0.3651" stop-color="#FDFEFF"/>
<stop offset="0.5567" stop-color="#C6DBFF"/>
</linearGradient>
<linearGradient id="paint10_linear_534_204" x1="212.976" y1="220.716" x2="130.143" y2="137.882" gradientUnits="userSpaceOnUse">
<stop offset="0.397" stop-color="#FDFEFF"/>
<stop offset="0.601" stop-color="#C7DBFF"/>
</linearGradient>
<linearGradient id="paint11_linear_534_204" x1="207.008" y1="225.347" x2="124.843" y2="143.182" gradientUnits="userSpaceOnUse">
<stop offset="0.4066" stop-color="#FDFEFF"/>
<stop offset="0.6393" stop-color="#CDDFFF"/>
</linearGradient>
<linearGradient id="paint12_linear_534_204" x1="204.602" y1="226.258" x2="123.312" y2="144.968" gradientUnits="userSpaceOnUse">
<stop offset="0.4066" stop-color="#FDFEFF"/>
<stop offset="0.6648" stop-color="#D7E5FF"/>
</linearGradient>
<linearGradient id="paint13_linear_534_204" x1="200.74" y1="223.185" x2="122.877" y2="145.321" gradientUnits="userSpaceOnUse">
<stop offset="0.4673" stop-color="#FDFEFF"/>
<stop offset="0.6524" stop-color="#DCE8FF"/>
</linearGradient>
<linearGradient id="paint14_linear_534_204" x1="124.846" y1="139.665" x2="180.596" y2="236.228" gradientUnits="userSpaceOnUse">
<stop offset="0.1157" stop-color="#F2F8FF"/>
<stop offset="0.8472" stop-color="#C8DCFF"/>
</linearGradient>
<linearGradient id="paint15_linear_534_204" x1="165.856" y1="124.039" x2="165.856" y2="154.439" gradientUnits="userSpaceOnUse">
<stop offset="0.1157" stop-color="#DEEDFF"/>
<stop offset="0.8472" stop-color="#C6DBFF"/>
</linearGradient>
<linearGradient id="paint16_linear_534_204" x1="197.018" y1="219.669" x2="151.276" y2="173.927" gradientUnits="userSpaceOnUse">
<stop stop-color="#DEEDFF"/>
<stop offset="1" stop-color="#F2F8FF"/>
</linearGradient>
<linearGradient id="paint17_linear_534_204" x1="167.146" y1="178.262" x2="140.95" y2="152.066" gradientUnits="userSpaceOnUse">
<stop offset="0.15" stop-color="#9FB6CC"/>
<stop offset="1" stop-color="#D5E1F2"/>
</linearGradient>
<linearGradient id="paint18_linear_534_204" x1="238.056" y1="241.744" x2="238.056" y2="203.952" gradientUnits="userSpaceOnUse">
<stop stop-color="#DDEAFF"/>
<stop offset="0.8657" stop-color="#EDF4FF"/>
</linearGradient>
<linearGradient id="paint19_linear_534_204" x1="-389.286" y1="186.126" x2="-389.286" y2="165.23" gradientUnits="userSpaceOnUse">
<stop stop-color="#4F5C7C"/>
<stop offset="1" stop-color="#274168"/>
</linearGradient>
<linearGradient id="paint20_linear_534_204" x1="-389.346" y1="176.655" x2="-389.346" y2="168.219" gradientUnits="userSpaceOnUse">
<stop stop-color="#F4B9A4"/>
<stop offset="0.652" stop-color="#FAD1BB"/>
</linearGradient>
<linearGradient id="paint21_linear_534_204" x1="-387.15" y1="215.816" x2="-387.15" y2="241.222" gradientUnits="userSpaceOnUse">
<stop stop-color="#F4B9A4"/>
<stop offset="0.652" stop-color="#FAD1BB"/>
</linearGradient>
<linearGradient id="paint22_linear_534_204" x1="-376.167" y1="215.584" x2="-376.167" y2="230.489" gradientUnits="userSpaceOnUse">
<stop stop-color="#F4B9A4"/>
<stop offset="0.652" stop-color="#FAD1BB"/>
</linearGradient>
<linearGradient id="paint23_linear_534_204" x1="-381.179" y1="198.23" x2="-381.179" y2="191.045" gradientUnits="userSpaceOnUse">
<stop stop-color="#F4B9A4"/>
<stop offset="0.652" stop-color="#FAD1BB"/>
</linearGradient>
<linearGradient id="paint24_linear_534_204" x1="-385.536" y1="220.866" x2="-385.536" y2="176.751" gradientUnits="userSpaceOnUse">
<stop stop-color="#D9E4FF"/>
<stop offset="1" stop-color="#2157DE"/>
</linearGradient>
<linearGradient id="paint25_linear_534_204" x1="-383.738" y1="192.905" x2="-383.738" y2="164.999" gradientUnits="userSpaceOnUse">
<stop stop-color="#4F5C7C"/>
<stop offset="1" stop-color="#274168"/>
</linearGradient>
<linearGradient id="paint26_linear_534_204" x1="-394.512" y1="185.364" x2="-394.512" y2="169.481" gradientUnits="userSpaceOnUse">
<stop stop-color="#F4B9A4"/>
<stop offset="0.652" stop-color="#FAD1BB"/>
</linearGradient>
<linearGradient id="paint27_linear_534_204" x1="-388.995" y1="237.932" x2="-388.995" y2="241.744" gradientUnits="userSpaceOnUse">
<stop stop-color="#FFDB80"/>
<stop offset="1" stop-color="#FFBB24"/>
</linearGradient>
<linearGradient id="paint28_linear_534_204" x1="240.879" y1="225.52" x2="240.879" y2="231.806" gradientUnits="userSpaceOnUse">
<stop stop-color="#FFDB80"/>
<stop offset="1" stop-color="#FFBB24"/>
</linearGradient>
</defs>
</svg>
