<svg width="154" height="120" viewBox="0 0 154 120" fill="none" xmlns="http://www.w3.org/2000/svg">
<g id="&#232;&#174;&#190;&#229;&#164;&#135;&#230;&#138;&#165;&#228;&#191;&#174;">
<g id="Group 3118">
<g id="Group">
<path id="Vector" fill-rule="evenodd" clip-rule="evenodd" d="M100.43 113.853L136.998 86.3317C139.42 83.1816 137.182 78.6186 133.211 78.6106L106.827 78.5632L100.43 113.853Z" fill="#B1C2EE" fill-opacity="0.3"/>
</g>
<path id="Vector_2" fill-rule="evenodd" clip-rule="evenodd" d="M110.126 8.7772C110.126 8.7772 118.014 8.60966 117.5 15.6179L102.985 108.555C102.985 108.555 102.069 117.168 92.9026 115.156L29.8238 100.506C29.8238 100.506 23.103 98.9898 23.9439 93.099L91.6863 100.474L110.126 8.7772Z" fill="#1A49C0"/>
<path id="Vector_3" fill-rule="evenodd" clip-rule="evenodd" d="M51.353 9.48787L109.435 8.6802C109.435 8.6802 116.344 8.60908 115.082 15.9508L99.7535 106.467C99.7535 106.467 99.0009 114.417 91.687 112.933L28.7675 98.3917C28.7675 98.3917 23.1164 98.0155 23.9273 91.1211L44.0943 13.5294C44.0943 13.5294 45.8376 9.05796 51.353 9.48787Z" fill="#4572E3"/>
<path id="Vector_4" fill-rule="evenodd" clip-rule="evenodd" d="M106.137 19.1018L93.1454 102.764C92.9246 104.135 92.1531 105.353 91.0125 106.141C89.8718 106.928 88.4598 107.214 87.1031 106.931L34.4398 95.8669C33.3986 95.6503 32.5293 94.9343 32.1144 93.9512C31.701 92.9697 31.7941 91.8459 32.3652 90.9466L41.1416 77.1324L106.137 19.1018Z" fill="#2757D1"/>
<path id="Vector_5" fill-rule="evenodd" clip-rule="evenodd" d="M53.007 14.2041H101.971C103.22 14.2041 104.407 14.7573 105.21 15.7167C106.014 16.6761 106.352 17.9421 106.136 19.175L94.9186 82.8972C94.9186 82.8972 92.915 93.1883 89.2391 100.95C88.4014 102.706 86.4767 103.666 84.574 103.274L30.8948 92.2415C29.5475 91.9649 28.4195 91.0498 27.8689 89.7869C27.3183 88.5256 27.4161 87.0731 28.1292 85.8955C30.5461 81.9267 32.6207 77.7588 34.3325 73.4375C34.394 73.2779 34.4476 73.1166 34.4902 72.9507L48.9146 17.3731C49.3989 15.5065 51.0823 14.2025 53.007 14.2041Z" fill="#9BB7FF"/>
<path id="Vector_6" fill-rule="evenodd" clip-rule="evenodd" d="M53.8031 24.0337L97.0305 24.8414L96.2243 30.4982L52.6641 29.6905L53.8031 24.0337Z" fill="#F0F5FF"/>
<path id="Vector_7" fill-rule="evenodd" clip-rule="evenodd" d="M51.8899 33.259L95.4501 34.0667L94.6424 39.7251L50.7461 38.9159L51.8899 33.259Z" fill="#F0F5FF"/>
<path id="Vector_8" fill-rule="evenodd" clip-rule="evenodd" d="M50.1422 42.4866L67.7203 42.8232L66.9141 48.4817L49 47.9759L50.1422 42.4866Z" fill="#F0F5FF"/>
<path id="Vector_9" fill-rule="evenodd" clip-rule="evenodd" d="M46.9467 57.2778C45.754 57.2162 44.6828 58.0001 44.3767 59.1555L40.8649 72.524C40.8649 72.524 39.4623 78.4495 37.3152 82.5195C36.9365 83.2244 36.916 84.0685 37.2584 84.7908C37.6007 85.5147 38.2665 86.0315 39.0506 86.1833L80.2791 94.0166C81.3456 94.2189 82.4199 93.7147 82.95 92.7663C85.2786 88.4719 86.8689 83.814 87.6514 78.9901L90.4154 62.3815C90.5322 61.6718 90.3429 60.9463 89.8932 60.3868C89.4436 59.8257 88.7778 59.4843 88.0616 59.4448L46.9467 57.2778Z" fill="#F0F5FF"/>
<path id="Vector_10" fill-rule="evenodd" clip-rule="evenodd" d="M63.1451 10.0434L59.832 18.3619C59.832 18.3619 60.5704 19.4683 61.9019 19.4683H91.5915C91.5915 19.4683 93.9264 19.726 94.8178 17.1781L96.6542 8.94647H99.1784C99.1784 8.94647 99.9262 6.80322 97.4067 6.80322C87.4944 6.80322 66.5023 7.3501 66.5023 7.3501C66.5023 7.3501 63.8172 6.8459 63.1451 10.0434Z" fill="#1A49C0"/>
<path id="Vector_11" fill-rule="evenodd" clip-rule="evenodd" d="M65.605 75.267L34.6832 50.0728L29.5117 69.6354L65.605 75.267Z" fill="#14295F" fill-opacity="0.1"/>
<path id="Vector_12" fill-rule="evenodd" clip-rule="evenodd" d="M61.2972 57.4857L67.9549 74.0184C67.9549 74.0184 67.7861 75.7428 66.2195 75.4979L50.2695 67.9254C50.2695 67.9254 50.3405 56.7808 61.2972 57.4857Z" fill="#FCFCFC"/>
<path id="Vector_13" fill-rule="evenodd" clip-rule="evenodd" d="M66.1699 69.6721C66.1699 69.6721 62.4671 69.0778 61.8203 73.505L65.6067 75.329C66.1604 75.5977 66.8214 75.5044 67.2821 75.0951C67.7649 74.6651 67.9242 73.976 67.6813 73.377L66.1699 69.6721Z" fill="#6D5D4A"/>
<path id="Vector_14" fill-rule="evenodd" clip-rule="evenodd" d="M23.2195 20.5756L20.9414 20.6941L56.2538 58.6926L61.471 57.2985L27.7237 22.3585C26.5515 21.1383 24.9076 20.4887 23.2195 20.5756Z" fill="#B7CCFF"/>
<path id="Vector_15" fill-rule="evenodd" clip-rule="evenodd" d="M15.4126 27.9547L15.9742 25.252L51.5579 63.0497L50.34 67.9289L16.6258 32.2396C15.5467 31.0953 15.0939 29.4958 15.4126 27.9547Z" fill="#89A8F8"/>
<path id="Vector_16" fill-rule="evenodd" clip-rule="evenodd" d="M20.9753 20.7429L15.8984 25.2317L51.5784 63.0484L56.275 58.607L20.9753 20.7429Z" fill="#9BB7FF"/>
<path id="Vector_17" fill-rule="evenodd" clip-rule="evenodd" d="M61.141 9.51061L59.3898 16.1838C59.3898 16.1838 58.4527 18.9371 61.8099 18.945H90.1838C90.1838 18.945 92.5187 19.2011 93.4101 16.6548L95.3411 8.28725C95.3411 8.28725 95.6361 6.80626 97.8559 6.80626H94.7448C84.8324 6.80626 64.4998 6.8189 64.4998 6.8189C64.4998 6.8189 61.8131 6.30838 61.141 9.51061Z" fill="#5E8BFF"/>
</g>
</g>
</svg>
