<svg width="154" height="120" viewBox="0 0 154 120" fill="none" xmlns="http://www.w3.org/2000/svg">
<g id="&#230;&#132;&#143;&#232;&#167;&#129;&#229;&#143;&#141;&#233;&#166;&#136;">
<g id="Group 3117">
<g id="Group">
<path id="Vector" fill-rule="evenodd" clip-rule="evenodd" d="M148.206 83.1645L132.83 96.7721C132.83 96.7721 129.885 100.958 116.906 100.405L111.504 100.06L100.987 104.997C93.9035 106.99 92.2409 103.919 92.2409 103.919L91.2334 99.1767L72.6134 99.2215L58.8263 105.264C56.1992 106.403 51.7479 106.497 51.7479 106.497L43.1307 105.889C38.7912 107.347 34.1491 107.121 34.1491 107.121L28.668 105.271L34.1491 93.2479L47.7574 95.184C48.2629 94.7999 48.7959 94.4537 49.3546 94.1505L74.3172 81.032C74.3172 81.032 79.5783 77.3717 89.533 77.3562L140.596 78.512C140.596 78.512 151.639 78.5137 148.206 83.1645Z" fill="#B1C2EE" fill-opacity="0.34"/>
</g>
<path id="Vector_2" fill-rule="evenodd" clip-rule="evenodd" d="M125.777 77.3265C125.777 77.3265 124.94 86.6021 114.847 87.8992L112.956 26.3459L32.2969 18.4155C32.2969 18.4155 34.4993 16.9514 37.1969 15.0171C41.2493 12.4333 48.1282 12.3748 48.1282 12.3748L113.716 17.2821C113.716 17.2821 125.884 17.7627 126.154 29.6944L125.777 77.3265ZM104.308 97.7174C104.19 103.851 97.8848 104.893 97.8848 104.893L93.3614 81.8584L103.54 82.9901L104.308 97.7174Z" fill="url(#paint0_linear_370_1767)"/>
<path id="Vector_3" fill-rule="evenodd" clip-rule="evenodd" d="M121.634 77.7692C121.634 77.7692 120.807 88.8982 109.406 89.5631L99.5749 88.6399L100.149 103.004C95.679 109.193 89.9709 102.627 89.9709 102.627L75.546 86.7572L42.7537 84.1889C42.7537 84.1889 28.872 84.7935 28.7448 71.4304L28.6778 27.9961C28.6778 27.9961 26.5269 16.24 39.1655 15.7664L109.449 21.2783C109.449 21.2783 121.3 20.4171 122.017 32.3884L121.634 77.7692Z" fill="url(#paint1_linear_370_1767)"/>
<path id="Vector_4" fill-rule="evenodd" clip-rule="evenodd" d="M107.31 44.0944L43.6713 39.1853C42.4196 39.1853 40.5938 38.002 40.5938 36.5413V31.2515C40.5938 29.7926 42.4196 28.8159 43.6713 28.8159L107.31 33.5183C108.009 33.5183 108.68 33.7956 109.175 34.2917C109.67 34.7878 109.949 35.4596 109.949 36.1606V41.4487C109.95 42.1497 109.672 42.8232 109.177 43.3193C108.682 43.8154 108.009 44.0944 107.31 44.0944ZM44.555 44.8506L106.937 49.7597C108.393 49.7597 109.574 50.9431 109.574 52.402V57.6901C109.574 59.149 108.393 60.3324 106.937 60.3324L44.555 55.4233C42.5314 55.4233 41.3502 54.2399 41.3502 52.781V47.4929C41.3468 46.034 42.528 44.8592 44.5516 44.8592L44.555 44.8506ZM44.555 61.0885L80.5504 64.1081C82.0083 64.1081 83.5162 65.2931 83.5162 66.7521V72.0384C83.5162 73.4991 82.0083 74.6825 80.5504 74.6825L44.5516 72.2469C42.528 72.2469 41.3468 70.4761 41.3468 69.0172V63.7291C41.3468 62.2719 42.528 61.0885 44.5516 61.0885H44.555Z" fill="white"/>
<path id="Vector_5" fill-rule="evenodd" clip-rule="evenodd" d="M28.6992 47.9683L58.5274 50.3711C58.5274 50.3711 72.0411 50.1145 73.236 64.6437L73.1948 86.6021L28.6992 83.6308V47.9683Z" fill="#4171EA" fill-opacity="0.3"/>
<path id="Vector_6" fill-rule="evenodd" clip-rule="evenodd" d="M60.3208 101.875L61.4503 64.1106L7.93359 55.4241C7.93359 55.4241 10.5762 54.4388 12.7098 52.8403C15.1736 51.6656 18.8649 52.284 18.8649 52.284L58.4416 54.6783C58.4416 54.6783 67.5539 55.7617 68.6198 64.8737L68.9964 94.7055C68.9964 94.7055 67.4249 101.382 60.3208 101.875ZM46.7503 100.741L36.2505 106.405C34.4452 107.6 28.2867 107.536 28.2867 107.536L40.7259 99.6129L46.7503 100.741Z" fill="#1A49C0"/>
<path id="Vector_7" fill-rule="evenodd" clip-rule="evenodd" d="M57.9323 102.627L39.9536 100.978L30.9221 106.404C25.4942 109.908 24.1377 106.025 24.1377 106.025L23.8385 99.4469L13.6947 98.4736C13.6947 98.4736 5.3801 98.0844 5.30445 89.5632V62.2203C5.30445 62.2203 3.46824 55.0617 12.0905 54.2969L53.9298 57.6971C53.9298 57.6971 64.366 58.6565 64.4829 67.1363L65.2359 95.0803C65.2359 95.0803 65.119 102.294 57.9323 102.627Z" fill="url(#paint2_linear_370_1767)"/>
<path id="Vector_8" fill-rule="evenodd" clip-rule="evenodd" d="M50.9172 84.6498C48.2093 84.6498 46.0138 82.4502 46.0138 80.0335C46.0138 77.0243 48.2093 74.8264 50.9172 74.8264C53.6251 74.8264 56.2196 77.0243 56.2196 80.0335C56.2196 82.4553 53.6251 84.6498 50.9172 84.6498ZM35.2922 83.5526C33.2927 83.5612 31.4857 82.3606 30.7154 80.5124C29.9452 78.6624 30.363 76.5317 31.7762 75.1141C33.1895 73.6965 35.3163 73.271 37.1628 74.041C39.0093 74.8092 40.2111 76.6178 40.206 78.6211C40.2077 81.3426 38.0087 83.5508 35.2922 83.5577V83.5526ZM19.2305 82.1039C16.851 82.1039 14.3047 79.8992 14.3047 77.1811C14.3047 74.463 16.851 72.2565 19.2305 72.2565C21.0082 72.2237 22.6657 73.1539 23.5631 74.6921C24.4623 76.2285 24.4623 78.1319 23.5631 79.6683C22.6657 81.2065 21.0082 82.1367 19.2305 82.1039Z" fill="#DCE6FF"/>
</g>
</g>
<defs>
<linearGradient id="paint0_linear_370_1767" x1="159217" y1="-128248" x2="159217" y2="-128341" gradientUnits="userSpaceOnUse">
<stop stop-color="#81A2F4"/>
<stop offset="0.99" stop-color="#81A2F4"/>
</linearGradient>
<linearGradient id="paint1_linear_370_1767" x1="158556" y1="-124621" x2="158556" y2="-124711" gradientUnits="userSpaceOnUse">
<stop stop-color="#9BB8FF"/>
<stop offset="1" stop-color="#EEF3FF"/>
</linearGradient>
<linearGradient id="paint2_linear_370_1767" x1="101471" y1="-74601.5" x2="101471" y2="-74655.1" gradientUnits="userSpaceOnUse">
<stop stop-color="#4171EA"/>
<stop offset="1" stop-color="#C2D3FF"/>
</linearGradient>
</defs>
</svg>
