<svg width="14" height="14" viewBox="0 0 14 14" fill="none" xmlns="http://www.w3.org/2000/svg">
<g id="&#229;&#136;&#160;&#233;&#153;&#164;">
<path id="Vector" d="M11.6469 10.6615C11.7169 10.7249 11.7733 10.8019 11.8127 10.8878C11.8521 10.9738 11.8735 11.0668 11.8759 11.1613C11.8782 11.2557 11.8613 11.3497 11.8262 11.4375C11.7911 11.5252 11.7386 11.6049 11.6718 11.6717C11.6049 11.7386 11.5252 11.7911 11.4375 11.8262C11.3497 11.8613 11.2558 11.8782 11.1613 11.8759C11.0668 11.8735 10.9738 11.852 10.8879 11.8127C10.802 11.7733 10.725 11.7169 10.6615 11.6469L6.99902 7.98426L3.33653 11.6469C3.27446 11.7218 3.19738 11.783 3.11026 11.8264C3.02314 11.8698 2.9279 11.8945 2.83067 11.8989C2.73343 11.9033 2.63636 11.8873 2.54568 11.8519C2.455 11.8165 2.37272 11.7626 2.30414 11.6935C2.23556 11.6244 2.18219 11.5418 2.14747 11.4509C2.11274 11.3599 2.09743 11.2627 2.10251 11.1655C2.1076 11.0683 2.13297 10.9733 2.17699 10.8864C2.22101 10.7996 2.28271 10.723 2.35812 10.6615L6.02061 6.99884L2.35812 3.33623C2.24811 3.20236 2.19185 3.03235 2.20029 2.85928C2.20873 2.68622 2.28127 2.52249 2.40379 2.39996C2.52631 2.27744 2.69003 2.2049 2.86309 2.19646C3.03615 2.18802 3.20616 2.24428 3.34002 2.3543L7.00251 6.01691L10.665 2.3543C10.7268 2.27909 10.8036 2.21766 10.8906 2.17394C10.9776 2.13022 11.0727 2.10518 11.17 2.10044C11.2672 2.0957 11.3643 2.11135 11.4551 2.1464C11.5459 2.18145 11.6284 2.23511 11.6972 2.30394C11.7661 2.37277 11.8197 2.45525 11.8548 2.54606C11.8898 2.63687 11.9055 2.73401 11.9007 2.83124C11.896 2.92846 11.871 3.02362 11.8272 3.11059C11.7835 3.19756 11.7221 3.27442 11.6469 3.33623L7.9844 6.99884L11.6469 10.6615Z" fill="#1A49C0" fill-opacity="0.4"/>
</g>
</svg>
