<svg width="20" height="20" viewBox="0 0 20 20" fill="none" xmlns="http://www.w3.org/2000/svg">
<g id="&#229;&#133;&#179;&#233;&#151;&#173;">
<path id="Vector" d="M16.6362 15.2312C16.7362 15.3219 16.8168 15.4319 16.873 15.5546C16.9293 15.6774 16.96 15.8103 16.9633 15.9452C16.9666 16.0802 16.9425 16.2144 16.8924 16.3398C16.8422 16.4651 16.7672 16.579 16.6717 16.6745C16.5762 16.7699 16.4624 16.845 16.337 16.8951C16.2117 16.9453 16.0774 16.9694 15.9425 16.9661C15.8075 16.9628 15.6746 16.932 15.5519 16.8758C15.4292 16.8196 15.3191 16.739 15.2285 16.6389L9.99637 11.4066L4.76424 16.6389C4.67557 16.7461 4.56546 16.8334 4.441 16.8954C4.31654 16.9574 4.18049 16.9927 4.04158 16.999C3.90268 17.0053 3.76399 16.9824 3.63445 16.9319C3.50491 16.8813 3.38737 16.8043 3.2894 16.7056C3.19143 16.6069 3.11519 16.4888 3.06558 16.3589C3.01597 16.229 2.9941 16.0902 3.00136 15.9513C3.00862 15.8124 3.04486 15.6766 3.10775 15.5526C3.17064 15.4286 3.25878 15.3191 3.36652 15.2312L8.59864 9.9989L3.36652 4.76659C3.20936 4.57536 3.12898 4.33248 3.14104 4.08525C3.1531 3.83801 3.25673 3.60411 3.43175 3.42908C3.60678 3.25405 3.84067 3.15042 4.0879 3.13836C4.33513 3.1263 4.578 3.20667 4.76922 3.36384L10.0013 8.59614L15.2335 3.36384C15.3218 3.25641 15.4316 3.16864 15.5558 3.10618C15.68 3.04372 15.816 3.00796 15.9549 3.00118C16.0937 2.99441 16.2325 3.01677 16.3622 3.06684C16.492 3.11691 16.6098 3.19358 16.7081 3.29191C16.8064 3.39024 16.8831 3.50805 16.9332 3.63778C16.9832 3.76752 17.0056 3.90629 16.9988 4.04519C16.992 4.18408 16.9563 4.32002 16.8938 4.44426C16.8314 4.5685 16.7436 4.6783 16.6362 4.76659L11.4041 9.9989L16.6362 15.2312Z" fill="#A0A0A0"/>
</g>
</svg>
