<svg width="24" height="24" viewBox="0 0 24 24" fill="none" xmlns="http://www.w3.org/2000/svg">
<g id="&#228;&#184;&#138;&#228;&#188;&#160;&#231;&#133;&#167;&#231;&#137;&#135;">
<path id="Vector" d="M13.9946 8.16116C11.8507 8.16116 10.1126 9.91011 10.1126 12.0677C10.1126 14.2253 11.8507 15.9446 13.9946 15.9446C16.1385 15.9446 17.8351 14.2253 17.8351 12.0677C17.8351 9.91014 16.1385 8.16119 13.9946 8.16119L13.9946 8.16116ZM21.864 3.87562H18.7042C17.8631 2.79791 16.8857 1.54956 16.8721 1.54956H9.98051C9.96434 1.54956 8.97652 2.79794 8.12674 3.87559H2.1333C0.980812 3.87559 0.046875 4.80955 0.046875 5.96204V18.1278C0.046875 19.2803 0.980812 20.2142 2.1333 20.2142H21.864C23.0165 20.2142 23.9505 19.2803 23.9505 18.1278V5.96202C23.9505 4.80953 23.0165 3.87557 21.864 3.87557V3.87562ZM5.29202 9.15941C4.63577 9.15941 4.10421 8.62785 4.10421 7.97221C4.10421 7.31598 4.63577 6.7844 5.29202 6.7844C5.94764 6.7844 6.4792 7.31598 6.4792 7.97221C6.4792 8.62783 5.94764 9.15941 5.29202 9.15941ZM14.0601 17.2838C11.1746 17.2838 8.74889 14.9298 8.74889 12.0267C8.74889 9.12301 11.1746 6.76961 14.0601 6.76961C16.945 6.76961 19.2551 9.12299 19.2551 12.0267C19.2551 14.9298 16.945 17.2838 14.0601 17.2838Z" fill="#E2E2E2"/>
</g>
</svg>
