<svg width="27" height="26" viewBox="0 0 27 26" fill="none" xmlns="http://www.w3.org/2000/svg">
<g id="&#228;&#184;&#173;&#232;&#139;&#177;&#230;&#150;&#135;&#229;&#136;&#135;&#230;&#141;&#162;" clip-path="url(#clip0_925_676)">
<path id="Vector" d="M17.2483 13.7149H20.1552V12.9999H17.2483V11.4399H20.349V10.6599H16.3439V16.2499H20.4782V15.4699H17.2483V13.7149ZM23.3205 12.0899C23.0621 12.0899 22.8683 12.1549 22.6745 12.2199C22.4807 12.2849 22.2869 12.4799 22.1577 12.6749V12.2199H21.2533V16.2499H22.1577V13.8449C22.1577 13.5199 22.2869 13.2599 22.4807 13.1299C22.6745 12.9999 22.8037 12.8699 23.0621 12.8699C23.6435 12.8699 23.9665 13.1949 23.9665 13.8449V16.2499H24.8708V13.7799C24.8062 12.6099 24.354 12.0899 23.3205 12.0899ZM4.97461 9.29492H7.30014V11.5049H4.97461V9.29492ZM8.20452 9.29492H10.53V11.5049H8.20452V9.29492Z" fill="white"/>
<path id="Vector_2" d="M24.7408 3.63988H13.4361L12.7901 0.129883H2.26064C1.09788 0.129883 0.128906 1.10488 0.128906 2.27488V20.2799C0.128906 21.4499 1.09788 22.4249 2.26064 22.4249H11.8212L11.046 25.9349H24.7408C25.9036 25.9349 26.8725 24.9599 26.8725 23.7899V5.78488C26.8725 4.61488 25.9036 3.63988 24.7408 3.63988ZM11.4336 12.8049H10.5292V12.2849H8.20367V15.2099H7.2993V12.2849H4.97377V12.8049H4.13399V8.44988H7.2993V6.88988H8.20367V8.44988H11.4336V12.8049ZM25.839 23.7249C25.839 24.3099 25.3868 24.7649 24.8054 24.7649H12.4026L12.9193 22.3599H16.8598L14.6635 9.74988V9.81488L14.5989 9.29488L13.7591 4.67988H24.8054C25.3868 4.67988 25.839 5.19988 25.839 5.78488V23.7249Z" fill="white"/>
</g>
<defs>
<clipPath id="clip0_925_676">
<rect width="27" height="26" fill="white"/>
</clipPath>
</defs>
</svg>
