<svg width="26" height="26" viewBox="0 0 26 26" fill="none" xmlns="http://www.w3.org/2000/svg">
<g id="&#233;&#128;&#128;&#229;&#135;&#186;&#231;&#153;&#187;&#229;&#189;&#149;">
<path id="Vector" d="M12.9994 24.6385C7.05044 24.6385 2.21094 19.8131 2.21094 13.8815C2.21094 10.3629 3.9524 7.05948 6.86951 5.04413C7.03539 4.93013 7.23069 4.86651 7.43188 4.86091C7.77364 4.84981 8.11329 5.00734 8.32213 5.30715C8.65063 5.78046 8.53231 6.42934 8.05832 6.75624C5.70436 8.38229 4.29904 11.0459 4.29904 13.8816C4.29904 18.6646 8.20168 22.5566 12.9995 22.5566C17.7972 22.5566 21.6999 18.6646 21.6999 13.8816C21.6999 11.0459 20.2946 8.38229 17.9406 6.75624C17.4659 6.42937 17.3483 5.78048 17.6768 5.30715C17.8814 5.0129 18.2127 4.85606 18.5483 4.86022C18.756 4.86216 18.9584 4.92621 19.1294 5.04413C22.0465 7.05951 23.788 10.363 23.788 13.8815C23.7879 19.8131 18.9484 24.6385 12.9994 24.6385ZM12.9994 15.3107C12.4032 15.3107 11.9206 14.8274 11.9206 14.2319V2.70189C11.9206 2.10633 12.4032 1.62305 12.9994 1.62305C13.5957 1.62305 14.0783 2.10633 14.0783 2.70187V14.2319C14.0783 14.8274 13.5957 15.3107 12.9994 15.3107Z" fill="white"/>
</g>
</svg>
