<svg width="40" height="40" viewBox="0 0 40 40" fill="none" xmlns="http://www.w3.org/2000/svg">
<g id="&#232;&#191;&#155;&#229;&#133;&#165;">
<path id="Vector" d="M3.21875 13.9648L10.3477 20L3.21875 26.0352L2.5 25.4258L8.90234 20L2.5 14.5742L3.21875 13.9648ZM12.2695 13.9648L19.3984 20L12.2695 26.0352L11.5508 25.4258L17.9531 20L11.5508 14.5703L12.2695 13.9648ZM21.9258 13.9648L29.0547 20L21.9258 26.0352L21.207 25.4258L27.6094 20L21.207 14.5703L21.9258 13.9648ZM30.3711 13.9648L37.5 20.0039L30.3711 26.0352L29.6523 25.4258L36.0547 20L29.6523 14.5703L30.3711 13.9648Z" fill="url(#paint0_linear_753_967)"/>
</g>
<defs>
<linearGradient id="paint0_linear_753_967" x1="37" y1="20" x2="2" y2="20" gradientUnits="userSpaceOnUse">
<stop stop-color="#B9B9B9"/>
<stop offset="1" stop-color="#EAEAEA"/>
</linearGradient>
</defs>
</svg>
