<svg width="30" height="30" viewBox="0 0 30 30" fill="none" xmlns="http://www.w3.org/2000/svg">
<g id="&#228;&#184;&#139;&#228;&#184;&#128;&#233;&#161;&#181;" clip-path="url(#clip0_724_9284)">
<path id="Vector" d="M30 15C30 18.9782 28.4196 22.7936 25.6066 25.6066C22.7936 28.4196 18.9782 30 15 30C11.0218 30 7.20645 28.4196 4.3934 25.6066C1.58035 22.7936 0 18.9782 0 15C0 11.0218 1.58035 7.20644 4.3934 4.3934C7.20645 1.58035 11.0218 0 15 0C18.9782 0 22.7936 1.58035 25.6066 4.3934C28.4196 7.20644 30 11.0218 30 15Z" fill="#F1F5FF"/>
<g id="Union">
<path fill-rule="evenodd" clip-rule="evenodd" d="M18.4924 15.3704L12.8181 21.1094C12.7243 21.2049 12.6018 21.251 12.4793 21.251C12.3584 21.251 12.2376 21.2049 12.1437 21.1126C11.956 20.9281 11.9544 20.6259 12.1405 20.4382L17.5165 15.0008L12.1374 9.56179C11.9529 9.3741 11.9545 9.0719 12.1406 8.88739C12.3283 8.70289 12.6305 8.70448 12.815 8.89057L18.4693 14.6095C18.4894 14.624 18.5085 14.6402 18.5266 14.6581C18.6845 14.8133 18.7107 15.0518 18.6043 15.2354C18.583 15.2737 18.5561 15.3096 18.5235 15.3419C18.5135 15.3519 18.5031 15.3614 18.4924 15.3704Z" fill="#1A49C0"/>
<path d="M18.4924 15.3704L18.1713 14.9871L18.1533 15.0022L18.1368 15.0188L18.4924 15.3704ZM12.8181 21.1094L12.4626 20.7579L12.4616 20.7589L12.8181 21.1094ZM12.1437 21.1126L11.7932 21.4692L11.7932 21.4692L12.1437 21.1126ZM12.1405 20.4382L12.4956 20.7903L12.4961 20.7898L12.1405 20.4382ZM17.5165 15.0008L17.8721 15.3524L18.2197 15.0008L17.872 14.6492L17.5165 15.0008ZM12.1374 9.56179L11.7808 9.91231L11.7819 9.91338L12.1374 9.56179ZM12.1406 8.88739L11.79 8.53083L11.7885 8.53232L12.1406 8.88739ZM12.815 8.89057L13.1705 8.53903L13.17 8.53854L12.815 8.89057ZM18.4693 14.6095L18.1138 14.961L18.143 14.9906L18.1767 15.0149L18.4693 14.6095ZM18.5266 14.6581L18.1746 15.0132L18.1761 15.0147L18.5266 14.6581ZM18.6043 15.2354L18.1717 14.9845L18.1672 14.9926L18.6043 15.2354ZM18.5235 15.3419L18.1715 14.9868L18.1699 14.9883L18.5235 15.3419ZM18.1368 15.0188L12.4626 20.7579L13.1737 21.461L18.8479 15.7219L18.1368 15.0188ZM12.4616 20.7589C12.4633 20.7572 12.4666 20.7547 12.471 20.7529C12.4749 20.7513 12.4779 20.751 12.4793 20.751V21.751C12.7282 21.751 12.9815 21.6564 13.1746 21.46L12.4616 20.7589ZM12.4793 20.751C12.4825 20.751 12.4857 20.7516 12.4887 20.7528C12.4903 20.7534 12.4916 20.7542 12.4926 20.7548C12.4931 20.7552 12.4935 20.7555 12.4938 20.7557C12.4941 20.7559 12.4943 20.7561 12.4942 20.7561L11.7932 21.4692C11.9828 21.6555 12.2304 21.751 12.4793 21.751V20.751ZM12.4942 20.7561C12.5051 20.7667 12.5035 20.7823 12.4956 20.7903L11.7855 20.0862C11.4054 20.4695 11.407 21.0895 11.7932 21.4692L12.4942 20.7561ZM12.4961 20.7898L17.8721 15.3524L17.161 14.6493L11.785 20.0867L12.4961 20.7898ZM17.872 14.6492L12.4929 9.2102L11.7819 9.91338L17.161 15.3524L17.872 14.6492ZM12.494 9.21127C12.4955 9.21283 12.4973 9.21545 12.4985 9.21856C12.4996 9.22133 12.5 9.22377 12.5 9.22584C12.5 9.22791 12.4996 9.23058 12.4983 9.23375C12.4969 9.23725 12.4947 9.24039 12.4926 9.24246L11.7885 8.53232C11.4059 8.91168 11.4043 9.52932 11.7808 9.91231L12.494 9.21127ZM12.4911 9.24395C12.4895 9.24548 12.4869 9.24731 12.4838 9.24855C12.481 9.24965 12.4786 9.25001 12.4765 9.25C12.4745 9.24999 12.4718 9.2496 12.4686 9.2483C12.4651 9.24687 12.462 9.24469 12.4599 9.2426L13.17 8.53854C12.7907 8.15591 12.173 8.15433 11.7901 8.53083L12.4911 9.24395ZM12.4594 9.24211L18.1138 14.961L18.8249 14.258L13.1705 8.53903L12.4594 9.24211ZM18.1767 15.0149C18.1757 15.0142 18.175 15.0136 18.1746 15.0132L18.8787 14.3031C18.8421 14.2668 18.803 14.2337 18.762 14.2041L18.1767 15.0149ZM18.1761 15.0147C18.1746 15.0132 18.1727 15.0107 18.1711 15.0075C18.1697 15.0045 18.1689 15.0017 18.1686 14.9992C18.168 14.9949 18.1687 14.9897 18.1717 14.9846L19.0368 15.4862C19.2545 15.1108 19.2024 14.6213 18.8772 14.3016L18.1761 15.0147ZM18.1672 14.9926C18.1685 14.9901 18.1701 14.9881 18.1715 14.9868L18.8755 15.697C18.942 15.631 18.9975 15.5572 19.0414 15.4781L18.1672 14.9926ZM18.1699 14.9883C18.1703 14.988 18.1708 14.9875 18.1713 14.9871L18.8134 15.7537C18.8354 15.7353 18.8566 15.7159 18.877 15.6954L18.1699 14.9883Z" fill="#1A49C0"/>
</g>
</g>
<defs>
<clipPath id="clip0_724_9284">
<rect width="30" height="30" fill="white" transform="matrix(-1 0 0 1 30 0)"/>
</clipPath>
</defs>
</svg>
