<svg width="168" height="148" viewBox="0 0 168 148" fill="none" xmlns="http://www.w3.org/2000/svg">
<g id="&#230;&#156;&#170;&#230;&#183;&#187;&#229;&#138;&#160;&#229;&#143;&#130;&#228;&#184;&#142;&#230;&#136;&#144;&#229;&#145;&#152;">
<g id="Group 3383">
<path id="Vector" d="M115.378 47.3046C115.358 56.1299 108.15 63.2742 99.2702 63.2542C90.3907 63.2341 83.2026 56.0698 83.2227 47.2445C83.2428 38.4192 90.4511 31.275 99.3307 31.295C108.19 31.295 115.378 38.4192 115.378 47.2245C115.378 47.2445 115.378 47.2846 115.378 47.3046Z" fill="#F2F2F2"/>
<path id="Vector_2" d="M142.135 56.6096L144.39 52.327C142.356 49.8855 135.712 46.9437 135.712 46.9437L126.711 38.7989C126.409 37.6582 125.241 36.9778 124.094 37.2779C122.946 37.5781 122.262 38.7388 122.564 39.8795C122.765 40.6199 123.329 41.2003 124.074 41.4004L133.799 52.9874L142.135 56.6096Z" fill="#FFC8B6"/>
<path id="Vector_3" d="M141.051 56.3292L144.232 57.3298C146.548 58.0702 149.044 58.0102 151.34 57.1697C152.749 56.6493 153.736 55.3686 153.897 53.8877C154.098 51.8265 152.669 49.9853 150.615 49.6451C147.615 49.1648 143.769 48.9247 142.4 50.5457L142.38 50.5657L141.051 56.3292Z" fill="#3F3D56"/>
<path id="Vector_4" d="M134.163 53.4676C134.163 62.2869 126.968 69.4372 118.095 69.4372C109.222 69.4372 102.027 62.2869 102.027 53.4676C102.027 44.6483 109.222 37.498 118.095 37.498C126.968 37.498 134.163 44.6483 134.163 53.4676Z" fill="white"/>
<path id="Vector_5" d="M111.531 47.2241C111.309 48.4048 110.947 49.5455 110.443 50.6462C107.604 56.6097 115.678 54.6686 118.578 54.6686C121.739 54.6686 124.759 56.3096 124.296 48.9852C124.095 45.8633 121.739 43.3018 118.578 43.3018C115.88 43.3018 112.094 44.5025 111.531 47.2241Z" fill="#2F2E41"/>
<path id="Vector_6" d="M122.748 50.0466C122.748 52.6001 120.666 54.6694 118.096 54.6694C115.527 54.6694 113.445 52.6001 113.445 50.0466C113.445 47.4931 115.527 45.4238 118.096 45.4238C120.666 45.4238 122.748 47.4931 122.748 50.0466Z" fill="#FFC8B6"/>
<path id="Vector_7" d="M114.956 45.3436C117.473 43.8227 120.734 44.6032 122.265 47.1047C122.788 47.9652 123.05 48.9458 123.05 49.9464C120.694 50.5267 118.197 50.987 115.681 50.0864L115.077 48.6456L114.734 50.0864C113.969 50.4066 113.204 50.6668 112.419 50.0864C112.338 48.1853 113.305 46.3642 114.956 45.3436Z" fill="#2F2E41"/>
<path id="Vector_8" d="M130.581 64.0951C124.782 70.639 114.775 71.3595 108.09 65.7161L109.459 61.8938C110.103 60.513 111.452 59.5924 112.983 59.4924L113.869 59.4323L115.963 57.6312C115.963 57.6312 121.6 57.4311 121.52 57.3311L124.943 59.3723V59.3523L126.292 59.4323C127.822 59.5324 129.171 60.4529 129.815 61.8338L130.581 64.0951Z" fill="#ADC4FF"/>
<path id="Vector_9" d="M116.687 129.934L116.284 124.41C113.667 123.11 110.767 122.469 107.848 122.529C111.955 125.691 111.633 132.015 114.472 136.338C116.284 139.059 119.264 140.8 122.526 141.08L125.949 143.042C126.734 137.838 125.204 132.535 121.741 128.573C120.774 127.472 119.667 126.512 118.439 125.691C117.694 127.812 116.687 129.934 116.687 129.934Z" fill="#F2F2F2"/>
<path id="Vector_10" d="M12.5892 32.0753L12.1865 26.552C9.569 25.2512 6.66957 24.6108 3.75 24.6709C7.85753 27.8328 7.53537 34.1566 10.3744 38.4791C12.1865 41.2008 15.1665 42.9418 18.4284 43.222L21.8513 45.1832C22.6366 39.9801 21.1063 34.6769 17.6431 30.7145C16.6766 29.6138 15.5692 28.6532 14.341 27.8328C13.596 29.954 12.5892 32.0753 12.5892 32.0753Z" fill="#F2F2F2"/>
<path id="Vector_11" d="M131.665 141.16H128.987L127.719 130.934H131.665V141.16Z" fill="#FFC8B6"/>
<path id="Vector_12" d="M132.333 143.741H123.715V143.641C123.715 141.8 125.225 140.319 127.057 140.319L128.628 139.139L131.567 140.319H132.312L132.333 143.741Z" fill="#2F2E41"/>
<path id="Vector_13" d="M155.184 141.16H152.526L151.258 130.934H155.204L155.184 141.16Z" fill="#FFC8B6"/>
<path id="Vector_14" d="M155.868 143.741H147.25V143.641C147.25 141.8 148.76 140.319 150.592 140.319L152.163 139.139L155.103 140.319H155.848L155.868 143.741Z" fill="#2F2E41"/>
<path id="Vector_15" d="M151.136 86.3677L153.391 107.58C153.391 107.58 156.392 128.813 155.828 131.755C155.264 134.697 155.969 135.097 155.969 135.097L150.854 134.737C150.854 134.737 150.995 132.916 150.15 132.095C149.304 131.275 149.727 128.753 149.727 128.753L139.78 94.2124L133.74 112.343C133.74 112.343 132.753 132.295 132.612 132.575C132.471 132.856 132.048 136.618 132.048 136.618H126.854C126.854 136.618 127.558 134.377 126.572 133.696C125.585 133.016 124.739 133.556 125.585 132.295C126.431 131.035 126.713 129.514 126.431 128.813C126.149 128.113 126.149 125.331 126.149 125.331C126.149 125.331 126.572 87.6485 128.948 86.4077C131.324 85.167 151.136 86.3677 151.136 86.3677Z" fill="#2F2E41"/>
<path id="Vector_16" d="M146.003 37.9374C146.003 40.9652 143.532 43.4207 140.486 43.4207C137.439 43.4207 134.969 40.9652 134.969 37.9374C134.969 34.9096 137.439 32.4541 140.486 32.4541C143.532 32.4541 146.003 34.9096 146.003 37.9374Z" fill="#FFC8B6"/>
<path id="Vector_17" d="M153.051 88.6882C142.359 90.8895 128.164 87.1073 128.164 87.1073L131.949 70.8175L130.6 53.7672C130.439 51.686 131.627 49.7248 133.5 49.0244L136.077 48.0638L138.191 45.042L144.252 45.2421L146.668 48.404L148.581 49.4046L152.729 51.5859H152.749L151.44 64.1335L150.655 71.698C150.655 71.698 153.031 80.2031 152.547 81.3238C152.064 82.4445 152.487 81.9041 152.608 82.5045C152.729 83.1049 153.091 83.1449 153.152 84.3256C153.192 85.5463 153.051 88.6882 153.051 88.6882Z" fill="#3F3D56"/>
<path id="Vector_18" d="M165.976 143.923H83.3218C83.2212 143.923 83.1406 143.843 83.1406 143.743C83.1406 143.643 83.2212 143.562 83.3218 143.562H165.976C166.076 143.562 166.157 143.643 166.157 143.743C166.157 143.843 166.076 143.923 165.976 143.923Z" fill="#CCCCCC"/>
<path id="Vector_19" d="M140.226 43.1613C141.193 43.1613 142.159 43.0612 143.106 42.8811C144.052 42.661 146.126 41.06 146.69 40.1194C147.113 39.419 147.374 38.3384 147.495 37.5379C147.878 35.4366 147.334 33.2553 146.005 31.5743C145.743 31.2341 145.401 30.9539 145.019 30.7738C144.978 30.7538 144.938 30.7538 144.918 30.7338C144.334 30.5937 143.831 30.2935 143.428 29.8733C143.347 29.7932 143.267 29.7132 143.186 29.6331C142.743 29.2729 142.2 29.0328 141.636 28.9127C140.73 28.6926 139.421 28.9727 137.75 29.7332C136.924 30.1134 135.998 30.0134 135.273 29.8733C135.193 29.8533 135.112 29.8933 135.052 29.9533C134.75 30.2335 134.367 30.4136 133.944 30.4136C133.683 30.4336 133.441 30.7938 133.119 31.2541C133.058 31.3542 132.958 31.4742 132.897 31.5543L132.877 31.4142L132.736 31.5743C132.011 32.3948 132.112 33.6555 132.938 34.356C133.159 34.5561 133.421 34.6962 133.703 34.7562C133.964 34.8162 134.226 34.8563 134.488 34.8563C134.649 34.8763 134.81 34.8763 134.971 34.8963C136.018 35.0764 136.884 35.7968 137.246 36.7774C137.408 37.1777 137.851 37.3778 138.253 37.2177C138.314 37.1977 138.374 37.1577 138.434 37.1176C138.757 36.8575 139.2 36.7574 139.602 36.8775C139.783 36.9775 139.924 37.1176 139.985 37.2977C140.085 37.4979 140.226 37.658 140.428 37.778C141.072 38.0982 141.153 39.5591 140.971 40.7798C140.77 41.9605 140.367 42.8211 139.965 42.8611C139.643 42.9011 139.622 42.9211 139.602 42.9811L139.582 43.0212L139.622 43.0612C139.864 43.1613 140.045 43.1813 140.226 43.1613Z" fill="#2F2E41"/>
<path id="Vector_20" d="M118.093 69.6578C109.113 69.6578 101.824 62.4134 101.824 53.4881C101.824 44.5627 109.113 37.3184 118.093 37.3184C127.073 37.3184 134.362 44.5627 134.362 53.4881C134.342 62.4134 127.073 69.6378 118.093 69.6578ZM118.093 37.6986C109.335 37.6986 102.227 44.7628 102.227 53.4681C102.227 62.1733 109.335 69.2375 118.093 69.2375C126.852 69.2375 133.96 62.1733 133.96 53.4681C133.939 44.7628 126.852 37.7186 118.093 37.6986Z" fill="#3F3D56"/>
<path id="Vector_21" d="M77.9869 20.2479C77.9869 29.0672 70.7927 36.2175 61.9193 36.2175C53.0458 36.2175 45.8516 29.0672 45.8516 20.2479C45.8516 11.4286 53.0458 4.27832 61.9193 4.27832C70.7927 4.27832 77.9869 11.4286 77.9869 20.2479Z" fill="white"/>
<path id="Vector_22" d="M67.8999 16.6855C67.8999 19.5593 65.5562 21.8887 62.6648 21.8887C59.7734 21.8887 57.4297 19.5593 57.4297 16.6855C57.4297 13.8118 59.7734 11.4824 62.6648 11.4824C65.5562 11.4824 67.8999 13.8118 67.8999 16.6855Z" fill="#FFC8B6"/>
<path id="f183d98d-beca-4def-af6d-fbe16b93cf6a-458" d="M67.2755 13.2441C67.2755 13.2441 68.6446 10.6426 65.6445 10.4224C65.6445 10.4224 63.0874 8.12104 60.4698 10.0022C60.4698 10.0022 59.0403 10.0022 58.2751 11.6031C58.2751 11.6031 57.1476 11.1829 56.906 12.3035C56.906 12.3035 56.0804 14.665 56.906 16.7862C57.7315 18.9075 57.9933 19.1477 57.9933 19.1477C57.9933 19.1477 57.4093 16.5061 60.6913 16.2859C63.9733 16.0658 66.9734 14.0046 67.2352 16.6061C67.4969 19.2077 67.799 18.027 67.799 18.027C67.799 18.027 70.4165 14.3047 67.2755 13.2441Z" fill="#2F2E41"/>
<path id="Vector_23" d="M73.9985 30.8744C68.1997 37.4183 58.1926 38.1388 51.5078 32.4954L52.877 28.6731C53.5213 27.2923 54.8704 26.3717 56.4006 26.2716L57.2865 26.2116L59.3806 24.4105C59.3806 24.4105 65.0184 24.2104 64.9378 24.1104L68.3608 26.1516V26.1316L69.7098 26.2116C71.2401 26.3117 72.5891 27.2322 73.2334 28.6131L73.9985 30.8744Z" fill="#ADC4FF"/>
<path id="Vector_24" d="M61.9175 36.4381C52.9373 36.4381 45.6484 29.1937 45.6484 20.2683C45.6484 11.343 52.9373 4.09863 61.9175 4.09863C70.8977 4.09863 78.1865 11.343 78.1865 20.2683C78.1664 29.1937 70.8977 36.418 61.9175 36.4381ZM61.9175 4.47886C53.1588 4.47886 46.0511 11.5431 46.0511 20.2483C46.0511 28.9536 53.1588 36.0178 61.9175 36.0178C70.6762 36.0178 77.7838 28.9536 77.7838 20.2483C77.7637 11.5431 70.6762 4.49887 61.9175 4.47886Z" fill="#3F3D56"/>
<path id="Vector_25" d="M40.4557 45.4628C40.4557 54.2821 33.2615 61.4323 24.388 61.4323C15.5145 61.4323 8.32031 54.2821 8.32031 45.4628C8.32031 36.6435 15.5145 29.4932 24.388 29.4932C33.2615 29.4932 40.4557 36.6435 40.4557 45.4628Z" fill="white"/>
<path id="Vector_26" d="M17.5 40.499C18.1645 38.3978 20.114 36.2378 22.2081 35.5374C24.3021 34.817 27.3626 35.9176 28.9331 37.4585C31.8124 40.3002 31.5172 50.0861 29.5439 53.188C29.1412 53.168 27.7922 53.148 27.3895 53.128L26.8257 51.2668V53.1079C26.2015 53.0879 25.5572 53.0679 24.9129 53.0679C20.4228 53.0079 17.1208 49.4617 17 44.999C16.9597 42.9578 17.2382 41.3195 17.5 40.499Z" fill="#2F2E41"/>
<path id="Vector_27" d="M28.7557 42.7004C28.7557 45.22 26.7 47.2632 24.165 47.2632C21.63 47.2632 19.5742 45.22 19.5742 42.7004C19.5742 40.1809 21.63 38.1377 24.165 38.1377C26.7 38.1377 28.7557 40.1809 28.7557 42.7004Z" fill="#FFC8B6"/>
<path id="Vector_28" d="M20.1992 38.6987L25.4746 36.0771C27.6693 37.0577 29.1593 39.159 29.3606 41.5404L29.5016 43.1014L27.2867 42.541L27.0451 40.5398L26.6625 42.3809L25.6357 42.1208V39.0189L24.6088 42.1208L20.9643 41.2803L20.1992 38.6987Z" fill="#2F2E41"/>
<path id="Vector_29" d="M36.3267 56.0492C30.5278 62.5931 20.5207 63.3136 13.8359 57.6702L15.2051 53.8479C15.8494 52.4671 17.1985 51.5465 18.7287 51.4465L19.6147 51.3864L21.7087 49.5853C21.7087 49.5853 27.3465 49.3852 27.2659 49.2852L30.6889 51.3264V51.3064L32.0379 51.3864C33.5682 51.4865 34.9172 52.407 35.5615 53.7879L36.3267 56.0492Z" fill="#ADC4FF"/>
<path id="Vector_30" d="M24.3862 61.6529C15.406 61.6529 8.11719 54.4085 8.11719 45.4832C8.11719 36.5578 15.406 29.3135 24.3862 29.3135C33.3664 29.3135 40.6553 36.5578 40.6553 45.4832C40.6553 54.4085 33.3865 61.6329 24.3862 61.6529ZM24.3862 29.6937C15.6275 29.6937 8.51989 36.7579 8.51989 45.4632C8.51989 54.1684 15.6275 61.2326 24.3862 61.2326C33.1449 61.2326 40.2526 54.1684 40.2526 45.4632C40.2526 36.7579 33.1651 29.7137 24.3862 29.6937Z" fill="#3F3D56"/>
<path id="Vector_31" d="M132.936 61.7719L130.5 57.5693C127.339 57.9696 121.278 61.972 121.278 61.972L109.539 65.1739C108.412 64.8137 107.204 65.4341 106.841 66.5547C106.479 67.6754 107.103 68.8761 108.231 69.2363C108.956 69.4765 109.761 69.2964 110.345 68.7761L125.406 66.8149L132.936 61.7719Z" fill="#FFC8B6"/>
<path id="Vector_32" d="M132.088 62.5333L137.545 57.9906L138.33 54.3484C138.632 52.8875 138.089 51.3666 136.901 50.4461C135.27 49.1853 132.914 49.3854 131.545 50.9264C129.531 53.1677 127.256 56.2896 127.9 58.3108V58.3308L132.088 62.5333Z" fill="#3F3D56"/>
<path id="Vector_33" d="M48.5896 78.2828H28.1325C26.9848 78.2828 26.0586 77.3623 26.0586 76.2216V63.694C26.0586 62.5534 26.9848 61.6328 28.1325 61.6328H48.6097C49.7574 61.6328 50.6836 62.5534 50.6836 63.694V76.2216C50.6635 77.3623 49.7373 78.2828 48.5896 78.2828Z" fill="#E6E6E6"/>
<path id="Vector_34" d="M40.4549 76.661H29.5619C28.4947 76.661 27.6289 75.8005 27.6289 74.7398V65.1741C27.6289 64.1134 28.4947 63.2529 29.5619 63.2529H47.1598C48.2269 63.2529 49.0928 64.1134 49.0928 65.1741V68.0758C49.0928 72.8187 45.2268 76.661 40.4549 76.661Z" fill="white"/>
<path id="Vector_35" d="M45.4085 68.4957H31.3342C31.0724 68.4957 30.8711 68.2956 30.8711 68.0355C30.8711 67.7753 31.0724 67.5752 31.3342 67.5752H45.4085C45.6703 67.5752 45.8716 67.7753 45.8716 68.0355C45.8716 68.2956 45.6501 68.4957 45.4085 68.4957Z" fill="#ADC4FF"/>
<path id="Vector_36" d="M33.5289 70.2975H31.3342C31.0724 70.2975 30.8711 70.0974 30.8711 69.8372C30.8711 69.5771 31.0724 69.377 31.3342 69.377H33.5289C33.7907 69.377 33.992 69.5771 33.992 69.8372C33.992 70.0974 33.7705 70.2975 33.5289 70.2975Z" fill="#ADC4FF"/>
<path id="Vector_37" d="M37.4156 72.0983H31.3147C31.0529 72.0983 30.8516 71.8982 30.8516 71.638C30.8516 71.3779 31.0529 71.1777 31.3147 71.1777H37.4156C37.6773 71.1777 37.8787 71.3779 37.8787 71.638C37.8787 71.8982 37.6773 72.0983 37.4156 72.0983Z" fill="#ADC4FF"/>
<path id="Vector_38" d="M29.6619 61.3924C29.6619 63.7679 27.7229 65.695 25.3329 65.695C22.9429 65.695 21.0039 63.7679 21.0039 61.3924C21.0039 59.017 22.9429 57.0898 25.3329 57.0898C27.7229 57.0898 29.6619 59.017 29.6619 61.3924Z" fill="#3F3D56"/>
<path id="Vector_39" d="M101.746 21.4488H81.2887C80.141 21.4488 79.2148 20.5283 79.2148 19.3876V6.86007C79.2148 5.71938 80.141 4.79883 81.2887 4.79883H101.766C102.914 4.79883 103.84 5.71938 103.84 6.86007V19.3876C103.82 20.5283 102.894 21.4488 101.746 21.4488Z" fill="#E6E6E6"/>
<path id="Vector_40" d="M93.6111 19.827H82.7181C81.651 19.827 80.7852 18.9665 80.7852 17.9058V8.3401C80.7852 7.27946 81.651 6.41895 82.7181 6.41895H100.316C101.383 6.41895 102.249 7.27946 102.249 8.3401V11.2418C102.249 15.9847 98.3831 19.827 93.6111 19.827Z" fill="white"/>
<path id="Vector_41" d="M98.5648 11.6618H84.4905C84.2287 11.6618 84.0273 11.4616 84.0273 11.2015C84.0273 10.9413 84.2287 10.7412 84.4905 10.7412H98.5648C98.8265 10.7412 99.0279 10.9413 99.0279 11.2015C99.0279 11.4416 98.8064 11.6418 98.5648 11.6618Z" fill="#ADC4FF"/>
<path id="Vector_42" d="M86.6852 13.4635H84.4905C84.2287 13.4635 84.0273 13.2634 84.0273 13.0032C84.0273 12.7431 84.2287 12.543 84.4905 12.543H86.6852C86.9469 12.543 87.1483 12.7431 87.1483 13.0032C87.1483 13.2434 86.9268 13.4635 86.6852 13.4635Z" fill="#ADC4FF"/>
<path id="Vector_43" d="M90.5718 15.2643H84.4709C84.2092 15.2643 84.0078 15.0642 84.0078 14.804C84.0078 14.5439 84.2092 14.3438 84.4709 14.3438H90.5718C90.8336 14.3438 91.0349 14.5439 91.0349 14.804C91.0349 15.0642 90.8336 15.2643 90.5718 15.2643Z" fill="#ADC4FF"/>
<path id="Vector_44" d="M82.8182 19.5672C82.8182 21.9427 80.8792 23.8698 78.4892 23.8698C76.0992 23.8698 74.1602 21.9427 74.1602 19.5672C74.1602 17.1918 76.0992 15.2646 78.4892 15.2646C80.8792 15.2646 82.8182 17.1918 82.8182 19.5672Z" fill="#3F3D56"/>
</g>
</g>
</svg>
