<svg width="30" height="30" viewBox="0 0 30 30" fill="none" xmlns="http://www.w3.org/2000/svg">
<g id="&#228;&#184;&#138;&#228;&#184;&#128;&#233;&#161;&#181;" clip-path="url(#clip0_724_9279)">
<path id="Vector" d="M0 15C0 18.9782 1.58035 22.7936 4.3934 25.6066C7.20644 28.4196 11.0218 30 15 30C18.9782 30 22.7936 28.4196 25.6066 25.6066C28.4196 22.7936 30 18.9782 30 15C30 11.0218 28.4196 7.20644 25.6066 4.3934C22.7936 1.58035 18.9782 0 15 0C11.0218 0 7.20644 1.58035 4.3934 4.3934C1.58035 7.20644 0 11.0218 0 15Z" fill="#F1F5FF"/>
<g id="Union">
<path fill-rule="evenodd" clip-rule="evenodd" d="M11.5076 15.3704L17.1819 21.1094C17.2757 21.2049 17.3982 21.251 17.5207 21.251C17.6416 21.251 17.7624 21.2049 17.8563 21.1126C18.044 20.9281 18.0456 20.6259 17.8595 20.4382L12.4835 15.0008L17.8626 9.56179C18.0471 9.3741 18.0455 9.0719 17.8594 8.88739C17.6717 8.70289 17.3695 8.70448 17.185 8.89057L11.5307 14.6095C11.5106 14.624 11.4915 14.6402 11.4734 14.6581C11.3155 14.8133 11.2893 15.0518 11.3957 15.2354C11.417 15.2737 11.4439 15.3096 11.4765 15.3419C11.4865 15.3519 11.4969 15.3614 11.5076 15.3704Z" fill="#1A49C0"/>
<path d="M11.5076 15.3704L11.8287 14.9871L11.8467 15.0022L11.8632 15.0188L11.5076 15.3704ZM17.1819 21.1094L17.5374 20.7579L17.5384 20.7589L17.1819 21.1094ZM17.8563 21.1126L18.2068 21.4692L18.2068 21.4692L17.8563 21.1126ZM17.8595 20.4382L17.5044 20.7903L17.5039 20.7898L17.8595 20.4382ZM12.4835 15.0008L12.1279 15.3524L11.7803 15.0008L12.128 14.6492L12.4835 15.0008ZM17.8626 9.56179L18.2192 9.91231L18.2181 9.91338L17.8626 9.56179ZM17.8594 8.88739L18.21 8.53083L18.2115 8.53232L17.8594 8.88739ZM17.185 8.89057L16.8295 8.53903L16.83 8.53854L17.185 8.89057ZM11.5307 14.6095L11.8862 14.961L11.857 14.9906L11.8233 15.0149L11.5307 14.6095ZM11.4734 14.6581L11.8254 15.0132L11.8239 15.0147L11.4734 14.6581ZM11.3957 15.2354L11.8283 14.9845L11.8328 14.9926L11.3957 15.2354ZM11.4765 15.3419L11.8285 14.9868L11.8301 14.9883L11.4765 15.3419ZM11.8632 15.0188L17.5374 20.7579L16.8263 21.461L11.1521 15.7219L11.8632 15.0188ZM17.5384 20.7589C17.5367 20.7572 17.5334 20.7547 17.529 20.7529C17.5251 20.7513 17.5221 20.751 17.5207 20.751V21.751C17.2718 21.751 17.0185 21.6564 16.8254 21.46L17.5384 20.7589ZM17.5207 20.751C17.5175 20.751 17.5143 20.7516 17.5113 20.7528C17.5097 20.7534 17.5084 20.7542 17.5074 20.7548C17.5069 20.7552 17.5065 20.7555 17.5062 20.7557C17.5059 20.7559 17.5057 20.7561 17.5058 20.7561L18.2068 21.4692C18.0172 21.6555 17.7696 21.751 17.5207 21.751V20.751ZM17.5058 20.7561C17.4949 20.7667 17.4965 20.7823 17.5044 20.7903L18.2145 20.0862C18.5946 20.4695 18.593 21.0895 18.2068 21.4692L17.5058 20.7561ZM17.5039 20.7898L12.1279 15.3524L12.839 14.6493L18.215 20.0867L17.5039 20.7898ZM12.128 14.6492L17.5071 9.2102L18.2181 9.91338L12.839 15.3524L12.128 14.6492ZM17.506 9.21127C17.5045 9.21283 17.5027 9.21545 17.5015 9.21856C17.5004 9.22133 17.5 9.22377 17.5 9.22584C17.5 9.22791 17.5004 9.23058 17.5017 9.23375C17.5031 9.23725 17.5053 9.24039 17.5074 9.24246L18.2115 8.53232C18.5941 8.91168 18.5957 9.52932 18.2192 9.91231L17.506 9.21127ZM17.5089 9.24395C17.5105 9.24548 17.5131 9.24731 17.5162 9.24855C17.519 9.24965 17.5214 9.25001 17.5235 9.25C17.5255 9.24999 17.5282 9.2496 17.5314 9.2483C17.5349 9.24687 17.538 9.24469 17.5401 9.2426L16.83 8.53854C17.2093 8.15591 17.827 8.15433 18.2099 8.53083L17.5089 9.24395ZM17.5406 9.24211L11.8862 14.961L11.1751 14.258L16.8295 8.53903L17.5406 9.24211ZM11.8233 15.0149C11.8243 15.0142 11.825 15.0136 11.8254 15.0132L11.1213 14.3031C11.1579 14.2668 11.197 14.2337 11.238 14.2041L11.8233 15.0149ZM11.8239 15.0147C11.8254 15.0132 11.8273 15.0107 11.8289 15.0075C11.8303 15.0045 11.8311 15.0017 11.8314 14.9992C11.832 14.9949 11.8313 14.9897 11.8283 14.9846L10.9632 15.4862C10.7455 15.1108 10.7976 14.6213 11.1228 14.3016L11.8239 15.0147ZM11.8328 14.9926C11.8315 14.9901 11.8299 14.9881 11.8285 14.9868L11.1245 15.697C11.058 15.631 11.0025 15.5572 10.9586 15.4781L11.8328 14.9926ZM11.8301 14.9883C11.8297 14.988 11.8292 14.9875 11.8287 14.9871L11.1866 15.7537C11.1646 15.7353 11.1434 15.7159 11.123 15.6954L11.8301 14.9883Z" fill="#1A49C0"/>
</g>
</g>
<defs>
<clipPath id="clip0_724_9279">
<rect width="30" height="30" fill="white"/>
</clipPath>
</defs>
</svg>
