<svg width="20" height="20" viewBox="0 0 20 20" fill="none" xmlns="http://www.w3.org/2000/svg">
<g id="&#229;&#173;&#152;&#228;&#185;&#166;&#230;&#159;&#156;&#233;&#162;&#132;&#231;&#186;&#166;&#232;&#174;&#176;&#229;&#189;&#149;">
<g id="Group 2612">
<path id="Vector" d="M17.0945 0.378906H2.72346C2.22464 0.378906 1.81836 0.785186 1.81836 1.28401V18.1085C1.81836 18.6073 2.22464 19.0136 2.72346 19.0136H3.37915V19.1129C3.37915 19.3939 3.60599 19.6208 3.887 19.6208C4.16801 19.6208 4.39485 19.3939 4.39485 19.1129V19.0136H15.1996V19.1129C15.1996 19.3939 15.4265 19.6208 15.7075 19.6208C15.9885 19.6208 16.2153 19.3939 16.2153 19.1129V19.0136H17.0945C17.5933 19.0136 17.9996 18.6073 17.9996 18.1085V1.28401C17.9996 0.785186 17.5933 0.378906 17.0945 0.378906ZM16.9839 7.29244C16.9839 7.29244 15.0882 7.29244 11.3084 7.29244V1.39461H16.9839V7.29244ZM2.83406 1.39461H10.2938V17.9979H2.83406V1.39461ZM11.3095 17.9979V8.30814H16.985V17.9979H11.3095Z" fill="#3E3A39" stroke="#3E3A39" stroke-width="0.2"/>
<path id="Subtract" fill-rule="evenodd" clip-rule="evenodd" d="M12.4785 7.19024H16.9003V7.18449H15.8234L16.9003 5.65583V3.90378L16.8944 3.90039L14.5809 7.18449H13.8473L15.5311 4.79421C15.6925 4.56511 15.6372 4.24799 15.4081 4.0866C15.2979 4.00917 15.1615 3.97863 15.0288 4.00169C14.8962 4.02476 14.7781 4.09954 14.7005 4.20962L12.6059 7.18449H12.4785V7.19024Z" fill="#1A49C0"/>
<path id="Vector_2" d="M8.5684 3.78516C8.28739 3.78516 8.06055 4.012 8.06055 4.29301V7.23553C8.06055 7.51654 8.28739 7.74338 8.5684 7.74338C8.84941 7.74338 9.07625 7.51654 9.07625 7.23553V4.29301C9.07625 4.012 8.84941 3.78516 8.5684 3.78516ZM12.8061 10.2529C12.5251 10.2529 12.2983 10.4797 12.2983 10.7608V13.2575C12.2983 13.5385 12.5251 13.7653 12.8061 13.7653C13.0871 13.7653 13.314 13.5385 13.314 13.2575V10.7608C13.314 10.4797 13.0871 10.2529 12.8061 10.2529Z" fill="#1A49C0"/>
</g>
</g>
</svg>
