<svg width="20" height="20" viewBox="0 0 20 20" fill="none" xmlns="http://www.w3.org/2000/svg">
<g id="&#231;&#169;&#186;&#233;&#151;&#180;&#233;&#162;&#132;&#231;&#186;&#166;&#232;&#174;&#176;&#229;&#189;&#149;" clip-path="url(#clip0_589_1580)">
<path id="Vector" d="M11.4056 1.456L17.9511 6.16927C18.275 6.40254 18.5395 6.713 18.7222 7.07424C18.9048 7.43548 19.0001 7.83683 19 8.24418V16.4696C19 17.1407 18.7414 17.7843 18.2811 18.2589C17.8208 18.7334 17.1964 19 16.5455 19H3.45455C2.80356 19 2.17924 18.7334 1.71892 18.2589C1.2586 17.7843 1 17.1407 1 16.4696V8.24334C1.00005 7.83613 1.09543 7.43495 1.27804 7.07386C1.46064 6.71278 1.72509 6.40246 2.04891 6.16927L8.59436 1.456C9.00655 1.15918 9.49721 1 10 1C10.5028 1 10.9935 1.15918 11.4056 1.456ZM9.35691 2.35513L9.25055 2.4243L2.70509 7.13756C2.55004 7.24924 2.42031 7.39424 2.32483 7.56256C2.22935 7.73088 2.17039 7.91854 2.152 8.1126L2.14545 8.24334V16.4696C2.14552 16.8062 2.26757 17.1306 2.48766 17.3791C2.70774 17.6277 3.00999 17.7825 3.33509 17.8133L3.45455 17.8192H16.5455C16.8719 17.8191 17.1866 17.6933 17.4277 17.4664C17.6688 17.2395 17.819 16.9279 17.8488 16.5928L17.8545 16.4696V8.24334C17.8546 8.04841 17.8136 7.85579 17.7345 7.67874C17.6554 7.50168 17.5401 7.34439 17.3964 7.21769L17.2949 7.13756L10.7495 2.4243C10.5472 2.2787 10.3092 2.19495 10.0629 2.18271C9.81648 2.17048 9.57177 2.23025 9.35691 2.35513Z" fill="#3E3A39" stroke="#3E3A39" stroke-width="0.3"/>
<path id="Vector_2" d="M10 7C7.51472 7 5.5 9.01472 5.5 11.5C5.5 13.9853 7.51473 16 10 16C12.4853 16 14.5 13.9853 14.5 11.5C14.5 9.01472 12.4853 7 10 7ZM9.99999 15.2757C7.91472 15.2757 6.22429 13.5853 6.22429 11.5C6.22429 9.41472 7.91473 7.72428 9.99999 7.72428C12.0853 7.72428 13.7757 9.41472 13.7757 11.5C13.7757 13.5853 12.0853 15.2757 9.99999 15.2757ZM9.62558 12.2628C9.39095 12.2628 9.20006 12.072 9.20006 11.8374V8.84448C9.20006 8.60985 9.39095 8.41896 9.62558 8.41896C9.86016 8.41896 10.051 8.60985 10.051 8.84448V11.4119H11.8702C12.1048 11.4119 12.2957 11.6028 12.2957 11.8374C12.2957 12.072 12.1048 12.2628 11.8702 12.2628L9.62558 12.2628Z" fill="#1A49C0" stroke="#1A49C0" stroke-width="0.5"/>
</g>
<defs>
<clipPath id="clip0_589_1580">
<rect width="20" height="20" fill="white"/>
</clipPath>
</defs>
</svg>
