<svg width="20" height="20" viewBox="0 0 20 20" fill="none" xmlns="http://www.w3.org/2000/svg">
<g id="&#231;&#188;&#150;&#232;&#190;&#145;">
<g id="Union">
<path fill-rule="evenodd" clip-rule="evenodd" d="M3.08287 16.6653C2.88518 16.6653 2.64796 16.5863 2.48981 16.4281C2.21306 16.1909 2.13398 15.756 2.25259 15.3606C4.50619 10.6953 4.6248 10.5371 4.66434 10.4976L12.1763 2.98558C12.6903 2.4716 13.5997 2.4716 14.1137 2.98558L15.8137 4.68567C16.3277 5.19965 16.3277 6.06946 15.8137 6.62297L14.5576 7.87912L14.5486 7.88835L14.5375 7.89918L8.30173 14.135C8.2622 14.1745 8.10405 14.3327 3.47824 16.5467C3.39916 16.6258 3.24102 16.6653 3.08287 16.6653ZM15.2602 6.10899L14.2915 7.07772L11.7981 4.58433L12.7694 3.61817C12.9671 3.42049 13.3624 3.42049 13.5601 3.61817L15.2602 5.31826C15.4974 5.51594 15.4974 5.87177 15.2602 6.10899ZM5.41579 10.9329L11.2431 5.13637L13.738 7.63123L7.92606 13.4432L5.41579 10.9329ZM4.99642 11.6205L7.24472 13.8688C6.44238 14.2757 4.94887 15.0036 3.74974 15.588L3.16194 15.8746C3.14876 15.8746 3.13558 15.879 3.1224 15.8834C3.09605 15.8922 3.06969 15.901 3.04333 15.8746C3.00379 15.8351 2.96426 15.7955 3.00379 15.7164C3.60922 14.445 4.51596 12.571 4.99642 11.6205ZM17.2876 17.3829C17.3995 17.3829 17.4833 17.3549 17.5672 17.2711C17.6231 17.2151 17.679 17.1033 17.679 16.9915C17.679 16.7678 17.5113 16.6001 17.2876 16.6001H5.82133C5.59767 16.6001 5.42993 16.7678 5.42993 16.9915C5.42993 17.2151 5.59767 17.3829 5.82133 17.3829H17.2876Z" fill="#979797"/>
<path d="M2.48981 16.4281L2.59619 16.3217L2.58743 16.3142L2.48981 16.4281ZM2.25259 15.3606L2.11753 15.2954L2.11234 15.3061L2.10892 15.3175L2.25259 15.3606ZM4.66434 10.4976L4.55828 10.3915L4.55827 10.3915L4.66434 10.4976ZM12.1763 2.98558L12.2824 3.09165V3.09165L12.1763 2.98558ZM14.1137 2.98558L14.2197 2.87952V2.87952L14.1137 2.98558ZM15.8137 4.68567L15.7077 4.79173L15.8137 4.68567ZM15.8137 6.62297L15.9199 6.72911L15.9237 6.72504L15.8137 6.62297ZM14.5576 7.87912L14.4515 7.77305L14.45 7.77461L14.5576 7.87912ZM14.5486 7.88835L14.6534 7.99572L14.6562 7.99287L14.5486 7.88835ZM14.5375 7.89918L14.4327 7.79184L14.4315 7.79312L14.5375 7.89918ZM8.30173 14.135L8.19567 14.0289L8.19567 14.0289L8.30173 14.135ZM3.47824 16.5467L3.41348 16.4114L3.39032 16.4225L3.37217 16.4407L3.47824 16.5467ZM14.2915 7.07772L14.1854 7.18378L14.2915 7.28985L14.3976 7.18378L14.2915 7.07772ZM15.2602 6.10899L15.3663 6.21506L15.2602 6.10899ZM11.7981 4.58433L11.6923 4.47798L11.5857 4.58404L11.692 4.69039L11.7981 4.58433ZM12.7694 3.61817L12.8752 3.72452L12.8755 3.72424L12.7694 3.61817ZM13.5601 3.61817L13.6662 3.51211L13.5601 3.61817ZM15.2602 5.31826L15.1537 5.42476L15.1642 5.43349L15.2602 5.31826ZM11.2431 5.13637L11.3492 5.03031L11.2434 4.92452L11.1373 5.03003L11.2431 5.13637ZM5.41579 10.9329L5.31 10.8265L5.20337 10.9326L5.30972 11.0389L5.41579 10.9329ZM13.738 7.63123L13.844 7.7373L13.9501 7.63123L13.844 7.52517L13.738 7.63123ZM7.92606 13.4432L7.81999 13.5492L7.92606 13.6553L8.03213 13.5492L7.92606 13.4432ZM7.24472 13.8688L7.31257 14.0026L7.49706 13.9091L7.35079 13.7628L7.24472 13.8688ZM4.99642 11.6205L5.10249 11.5145L4.95601 11.368L4.86255 11.5529L4.99642 11.6205ZM3.74974 15.588L3.68402 15.4532L3.684 15.4532L3.74974 15.588ZM3.16194 15.8746V16.0246H3.19656L3.22767 16.0094L3.16194 15.8746ZM3.1224 15.8834L3.16984 16.0257L3.16984 16.0257L3.1224 15.8834ZM3.04333 15.8746L3.1494 15.7685L3.1494 15.7685L3.04333 15.8746ZM3.00379 15.7164L3.13798 15.7835L3.13922 15.7809L3.00379 15.7164ZM17.5672 17.2711L17.4611 17.165L17.4611 17.165L17.5672 17.2711ZM2.38375 16.5342C2.57427 16.7247 2.85183 16.8153 3.08287 16.8153V16.5153C2.91853 16.5153 2.72165 16.4478 2.59588 16.322L2.38375 16.5342ZM2.10892 15.3175C1.97891 15.7509 2.05714 16.2548 2.3922 16.542L2.58743 16.3142C2.36897 16.127 2.28905 15.7611 2.39627 15.4037L2.10892 15.3175ZM4.55827 10.3915C4.53178 10.418 4.50808 10.4527 4.45666 10.5451C4.40318 10.6413 4.31306 10.8128 4.15479 11.1269C3.83788 11.7558 3.24435 12.9626 2.11753 15.2954L2.38766 15.4259C3.51443 13.0932 4.10701 11.8884 4.42269 11.2619C4.58072 10.9483 4.66852 10.7814 4.71882 10.691C4.74409 10.6455 4.75856 10.6219 4.76677 10.6095C4.76871 10.6066 4.77012 10.6046 4.77107 10.6032C4.77201 10.6019 4.77244 10.6014 4.77243 10.6014C4.77239 10.6015 4.77203 10.6019 4.77143 10.6026C4.77082 10.6032 4.77036 10.6037 4.77041 10.6037L4.55827 10.3915ZM12.0703 2.87952L4.55828 10.3915L4.77041 10.6037L12.2824 3.09165L12.0703 2.87952ZM14.2197 2.87952C13.6472 2.30696 12.6428 2.30696 12.0703 2.87952L12.2824 3.09165C12.7378 2.63625 13.5522 2.63625 14.0076 3.09165L14.2197 2.87952ZM15.9198 4.5796L14.2197 2.87952L14.0076 3.09165L15.7077 4.79173L15.9198 4.5796ZM15.9237 6.72504C16.489 6.1162 16.4944 5.15423 15.9198 4.5796L15.7077 4.79173C16.161 5.24506 16.1664 6.02271 15.7038 6.5209L15.9237 6.72504ZM14.6636 7.98519L15.9198 6.72904L15.7077 6.51691L14.4515 7.77306L14.6636 7.98519ZM14.6562 7.99287L14.6652 7.98364L14.45 7.77461L14.441 7.78384L14.6562 7.99287ZM14.6423 8.00651L14.6534 7.99569L14.4438 7.78102L14.4327 7.79185L14.6423 8.00651ZM8.4078 14.241L14.6436 8.00525L14.4315 7.79312L8.19567 14.0289L8.4078 14.241ZM3.543 16.682C5.85616 15.5749 7.05382 14.981 7.67861 14.6587C7.99065 14.4977 8.16185 14.4034 8.25843 14.3461C8.35538 14.2886 8.38498 14.2639 8.4078 14.241L8.19567 14.0289C8.19506 14.0295 8.19424 14.0309 8.18479 14.0377C8.1729 14.0463 8.14977 14.0618 8.10535 14.0881C8.01659 14.1408 7.85173 14.2318 7.54107 14.3921C6.92045 14.7123 5.72612 15.3045 3.41348 16.4114L3.543 16.682ZM3.08287 16.8153C3.17361 16.8153 3.2668 16.8041 3.35141 16.7799C3.434 16.7563 3.52003 16.7171 3.5843 16.6528L3.37217 16.4407C3.35737 16.4555 3.32479 16.4755 3.269 16.4915C3.21523 16.5068 3.15027 16.5153 3.08287 16.5153V16.8153ZM14.3976 7.18378L15.3663 6.21506L15.1542 6.00293L14.1854 6.97165L14.3976 7.18378ZM11.692 4.69039L14.1854 7.18378L14.3976 6.97165L11.9042 4.47826L11.692 4.69039ZM12.6636 3.51182L11.6923 4.47798L11.9039 4.69067L12.8752 3.72452L12.6636 3.51182ZM13.6662 3.51211C13.5329 3.37877 13.3428 3.31991 13.1648 3.31991C12.9867 3.31991 12.7967 3.37877 12.6633 3.51211L12.8755 3.72424C12.9398 3.65989 13.0463 3.61991 13.1648 3.61991C13.2833 3.61991 13.3897 3.65989 13.4541 3.72424L13.6662 3.51211ZM15.3663 5.21219L13.6662 3.51211L13.4541 3.72424L15.1542 5.42432L15.3663 5.21219ZM15.3663 6.21506C15.6562 5.92517 15.6713 5.4656 15.3562 5.20302L15.1642 5.43349C15.3235 5.56628 15.3387 5.81838 15.1542 6.00293L15.3663 6.21506ZM11.1373 5.03003L5.31 10.8265L5.52157 11.0392L11.3489 5.24272L11.1373 5.03003ZM13.844 7.52517L11.3492 5.03031L11.1371 5.24244L13.6319 7.7373L13.844 7.52517ZM8.03213 13.5492L13.844 7.7373L13.6319 7.52517L7.81999 13.3371L8.03213 13.5492ZM5.30972 11.0389L7.81999 13.5492L8.03213 13.3371L5.52185 10.8268L5.30972 11.0389ZM7.35079 13.7628L5.10249 11.5145L4.89036 11.7266L7.13865 13.9749L7.35079 13.7628ZM3.81545 15.7229C5.01401 15.1387 6.50888 14.4102 7.31257 14.0026L7.17687 13.7351C6.37587 14.1413 4.88373 14.8685 3.68402 15.4532L3.81545 15.7229ZM3.22767 16.0094L3.81547 15.7229L3.684 15.4532L3.09621 15.7398L3.22767 16.0094ZM3.16984 16.0257C3.17337 16.0245 3.17532 16.0239 3.17703 16.0233C3.17861 16.0228 3.17896 16.0228 3.17855 16.0229C3.178 16.023 3.17171 16.0246 3.16194 16.0246V15.7246C3.12003 15.7246 3.08311 15.7384 3.07496 15.7411L3.16984 16.0257ZM2.93726 15.9807C2.97825 16.0216 3.02945 16.0422 3.08287 16.0422C3.12478 16.0422 3.1617 16.0284 3.16984 16.0257L3.07497 15.7411C3.07144 15.7423 3.0695 15.7429 3.06778 15.7434C3.0662 15.7439 3.06585 15.744 3.06626 15.7439C3.0668 15.7438 3.0731 15.7422 3.08287 15.7422C3.09355 15.7422 3.1069 15.7441 3.12079 15.7499C3.13451 15.7556 3.14395 15.7631 3.1494 15.7685L2.93726 15.9807ZM2.86963 15.6494C2.83461 15.7194 2.82586 15.7941 2.85464 15.8661C2.87802 15.9245 2.92235 15.9657 2.93727 15.9807L3.1494 15.7685C3.14424 15.7634 3.14056 15.7597 3.1372 15.7562C3.13396 15.7528 3.13197 15.7505 3.1307 15.749C3.12802 15.7457 3.1305 15.7479 3.13318 15.7546C3.1346 15.7582 3.1359 15.7625 3.13668 15.7675C3.13747 15.7725 3.13756 15.7771 3.13725 15.7809C3.13664 15.7886 3.13471 15.79 3.13796 15.7835L2.86963 15.6494ZM4.86255 11.5529C4.38125 12.505 3.47389 14.3804 2.86836 15.652L3.13922 15.7809C3.74456 14.5097 4.65067 12.637 5.13029 11.6882L4.86255 11.5529ZM17.4611 17.165C17.4316 17.1946 17.4069 17.2096 17.3841 17.2184C17.3606 17.2275 17.331 17.2329 17.2876 17.2329V17.5329C17.3561 17.5329 17.4244 17.5243 17.4917 17.4984C17.5598 17.4723 17.619 17.4314 17.6733 17.3771L17.4611 17.165ZM17.529 16.9915C17.529 17.0233 17.5208 17.059 17.5062 17.0932C17.4913 17.1279 17.4732 17.1529 17.4611 17.165L17.6733 17.3771C17.7554 17.295 17.829 17.1457 17.829 16.9915H17.529ZM17.2876 16.7501C17.4284 16.7501 17.529 16.8507 17.529 16.9915H17.829C17.829 16.685 17.5941 16.4501 17.2876 16.4501V16.7501ZM5.82133 16.7501H17.2876V16.4501H5.82133V16.7501ZM5.57993 16.9915C5.57993 16.8507 5.68052 16.7501 5.82133 16.7501V16.4501C5.51483 16.4501 5.27993 16.685 5.27993 16.9915H5.57993ZM5.82133 17.2329C5.68051 17.2329 5.57993 17.1323 5.57993 16.9915H5.27993C5.27993 17.298 5.51483 17.5329 5.82133 17.5329V17.2329ZM17.2876 17.2329H5.82133V17.5329H17.2876V17.2329Z" fill="#979797"/>
</g>
</g>
</svg>
