<svg width="62" height="62" viewBox="0 0 62 62" fill="none" xmlns="http://www.w3.org/2000/svg">
<g id="&#229;&#184;&#174;&#229;&#138;&#169;&#228;&#184;&#142;&#229;&#143;&#141;&#233;&#166;&#136;">
<rect id="Rectangle" x="1" y="1" width="60" height="60" rx="24" fill="#F6F8FD" stroke="white"/>
<g id="&#229;&#184;&#174;&#229;&#138;&#169;&#228;&#184;&#142;&#229;&#143;&#141;&#233;&#166;&#136;_2">
<g id="Group 2978">
<path id="Vector" d="M30.2021 31.3086H29.9961C29.79 31.2055 29.4809 31.1025 29.3779 30.8965C29.2749 30.6904 29.1719 30.5874 29.1719 30.3813V18.6365H36.8987V30.2783C36.8987 30.7934 36.4866 31.3086 35.8685 31.3086C35.6624 31.3086 35.4564 31.2055 35.3534 31.1025L33.0868 29.5571L30.7172 31.1025C30.6142 31.2055 30.4082 31.3086 30.2021 31.3086ZM33.0868 27.9087C33.2929 27.9087 33.6019 28.0118 33.808 28.1148L35.4564 29.145V20.1818H30.8203V29.2481L32.4687 28.2178C32.5717 28.0118 32.8808 27.9087 33.0868 27.9087Z" fill="#1A49C0" stroke="#1A49C0" stroke-width="0.2"/>
<path id="Vector_2" d="M37.4156 43.3624H24.6405C21.8588 43.3624 19.6953 41.1989 19.6953 38.4172V23.5817C19.6953 20.8 21.8588 18.6365 24.6405 18.6365H37.5186C40.1973 18.6365 42.3608 20.8 42.3608 23.5817V38.5203C42.3608 41.1989 40.1973 43.3624 37.4156 43.3624ZM24.6405 20.2849C22.7861 20.2849 21.2407 21.7272 21.2407 23.5817V38.5203C21.2407 40.3747 22.7861 41.8171 24.5375 41.8171H37.4156C39.27 41.8171 40.7124 40.2717 40.7124 38.5203V23.5817C40.7124 21.7272 39.167 20.2849 37.4156 20.2849H24.6405Z" fill="#3E3A39" stroke="#3E3A39" stroke-width="0.2"/>
<path id="Vector_3" d="M19.6953 36.1501H42.3608V37.6955H19.6953V36.1501Z" fill="#3E3A39" stroke="#3E3A39" stroke-width="0.2"/>
</g>
</g>
</g>
</svg>
