<svg width="20" height="20" viewBox="0 0 20 20" fill="none" xmlns="http://www.w3.org/2000/svg">
<g id="&#230;&#180;&#187;&#229;&#138;&#168;&#233;&#162;&#132;&#231;&#186;&#166;&#232;&#174;&#176;&#229;&#189;&#149;">
<g id="Group 2611">
<path id="Vector" d="M15.7932 1.09895C15.7014 1.03807 15.5945 1.00392 15.4845 1.00032C15.3744 0.996714 15.2655 1.0238 15.17 1.07854C14.0981 1.69226 12.0998 2.69817 11.3011 2.78462C10.7152 2.84788 10.0952 2.51914 9.49557 2.20115C8.93251 1.90245 8.35015 1.59374 7.74719 1.59374C6.5411 1.59374 5.4838 1.83047 4.60497 2.29743C3.9241 2.65921 3.6011 3.03526 3.56641 3.07701C3.42411 3.24843 3.38998 3.48516 3.47773 3.68979L5.09773 7.47022L6.30233 10.2778C6.31286 10.302 6.32495 10.3256 6.33851 10.3482L8.63437 15.6956C8.76368 15.9969 9.11284 16.1362 9.41413 16.0069C9.71542 15.8776 9.85475 15.5285 9.72544 15.2272L7.50954 10.0659C7.86426 9.44567 8.65719 8.30897 9.46811 8.10619C10.4052 7.87187 10.7844 7.89562 11.1512 7.91844C11.5588 7.94386 11.9803 7.9702 12.8641 7.70731C13.9658 7.37987 14.8396 6.23518 15.4613 4.30518C15.8941 2.96124 16.0481 1.71712 16.0544 1.6648C16.0813 1.44217 15.9804 1.22307 15.7932 1.09895ZM14.3259 3.9575C13.8461 5.43947 13.2068 6.36709 12.5257 6.5695C11.8438 6.77227 11.5708 6.75521 11.225 6.73368C10.8109 6.7079 10.2956 6.6758 9.18018 6.95464C8.46091 7.13442 7.75554 7.67485 7.08413 8.56091C7.03571 8.62492 6.98914 8.68837 6.9448 8.7507L4.73855 3.61206C4.85766 3.52338 5.01869 3.41819 5.22481 3.31355C5.70309 3.07051 6.52886 2.7811 7.74719 2.7811C8.05498 2.7811 8.48447 3.00892 8.93937 3.2501C9.58889 3.59462 10.3161 3.98032 11.1453 3.98032C11.2384 3.98032 11.333 3.9755 11.4287 3.96511C12.2623 3.87495 13.6728 3.21448 14.663 2.70336C14.5797 3.08072 14.4689 3.51577 14.3259 3.9575Z" fill="#1A49C0" stroke="#1A49C0" stroke-width="0.2"/>
<path id="Vector_2" d="M10.0029 18.8104C7.88383 18.8104 5.88369 18.554 4.37093 18.0885C3.59933 17.851 2.98414 17.5677 2.54222 17.2464C1.83908 16.7347 1.69141 16.2002 1.69141 15.842C1.69141 15.5654 1.78101 15.1463 2.20753 14.7207C2.47673 14.452 2.85631 14.2042 3.33571 13.9838C4.2175 13.5782 5.15338 13.2751 6.57449 13.0855C6.89935 13.0421 7.19804 13.2704 7.24145 13.5955C7.28487 13.9205 7.05649 14.219 6.73145 14.2624C5.42629 14.4366 4.60766 14.7058 3.8318 15.0626C3.0795 15.4084 2.87876 15.7153 2.87876 15.842C2.87876 15.9294 2.97393 16.0921 3.2409 16.2863C3.57169 16.5269 4.08337 16.7579 4.72027 16.9538C6.12283 17.3854 7.99904 17.623 10.0029 17.623C12.0067 17.623 13.8829 17.3854 15.2857 16.9537C15.9226 16.7577 16.4341 16.5269 16.765 16.2861C17.0318 16.0921 17.127 15.9294 17.127 15.842C17.127 15.7546 17.0318 15.5919 16.7649 15.3977C16.4341 15.157 15.9224 14.9261 15.2855 14.7301C13.8829 14.2986 12.5038 13.9999 10.5 13.9999C10.4039 13.9999 10.3063 14.0004 10.21 14.0015C9.88128 14.0052 9.61319 13.7427 9.60948 13.4147C9.60577 13.0869 9.86848 12.8181 10.1963 12.8142C10.297 12.8131 10.3993 12.8125 10.5 12.8125C12.6191 12.8125 14.1221 13.13 15.6348 13.5955C16.4064 13.833 17.0216 14.1162 17.4635 14.4376C18.1667 14.9493 18.3144 15.4837 18.3144 15.842C18.3144 16.2002 18.1667 16.7347 17.4634 17.2464C17.0216 17.5677 16.4062 17.8512 15.6346 18.0885C14.1221 18.554 12.1219 18.8104 10.0029 18.8104Z" fill="#3E3A39" stroke="#3E3A39" stroke-width="0.2"/>
</g>
</g>
</svg>
