<svg width="32" height="32" viewBox="0 0 32 32" fill="none" xmlns="http://www.w3.org/2000/svg">
<g id="&#229;&#133;&#179;&#233;&#151;&#173;">
<g id="Union">
<path fill-rule="evenodd" clip-rule="evenodd" d="M2.13281 15.9995C2.13281 23.6539 8.34508 29.8661 15.9995 29.8661C23.6539 29.8661 29.8661 23.6539 29.8661 15.9995C29.8661 8.34508 23.6539 2.13281 15.9995 2.13281C8.34508 2.13281 2.13281 8.34508 2.13281 15.9995ZM3.45015 15.9995C3.45015 9.09388 9.09388 3.45015 15.9995 3.45015C22.9051 3.45015 28.5488 9.08001 28.5488 15.9995C28.5488 22.9189 22.9189 28.5488 15.9995 28.5488C9.08001 28.5488 3.45015 22.9051 3.45015 15.9995ZM22.281 10.7163L16.9978 15.9995L22.281 21.2411C22.5445 21.5462 22.5445 21.976 22.281 22.2395L22.2394 22.2811C21.976 22.5446 21.5461 22.5446 21.2826 22.2811L15.9994 16.9979L10.7162 22.3227C10.4528 22.5862 10.0229 22.5862 9.75944 22.3227L9.71784 22.2811C9.45438 21.976 9.45438 21.5462 9.71784 21.2827L15.001 15.9995L9.71784 10.7579C9.45438 10.4528 9.45438 10.023 9.71784 9.75952L9.75944 9.71792C10.0229 9.45445 10.4528 9.45445 10.7162 9.71792L15.9994 15.0011L21.2826 9.67632C21.5461 9.41285 21.976 9.41285 22.2394 9.67632L22.281 9.71792C22.5445 10.023 22.5445 10.4528 22.281 10.7163Z" fill="white"/>
<path d="M16.9978 15.9995L16.8211 15.8227L16.6436 16.0002L16.8218 16.177L16.9978 15.9995ZM22.281 10.7163L22.1043 10.5395L22.281 10.7163ZM22.281 21.2411L22.4702 21.0777L22.464 21.0704L22.4571 21.0636L22.281 21.2411ZM22.281 22.2395L22.1043 22.0627L22.1043 22.0627L22.281 22.2395ZM22.2394 22.2811L22.4162 22.4579L22.4162 22.4579L22.2394 22.2811ZM21.2826 22.2811L21.4594 22.1043L21.2826 22.2811ZM15.9994 16.9979L16.1762 16.8211L15.9987 16.6437L15.822 16.8218L15.9994 16.9979ZM10.7162 22.3227L10.893 22.4995L10.8937 22.4988L10.7162 22.3227ZM9.75944 22.3227L9.93622 22.1459L9.93622 22.1459L9.75944 22.3227ZM9.71784 22.2811L9.52864 22.4445L9.53461 22.4514L9.54107 22.4579L9.71784 22.2811ZM9.71784 21.2827L9.54107 21.1059H9.54107L9.71784 21.2827ZM15.001 15.9995L15.1778 16.1763L15.3553 15.9988L15.1771 15.822L15.001 15.9995ZM9.71784 10.7579L9.52864 10.9213L9.53493 10.9286L9.54177 10.9354L9.71784 10.7579ZM10.7162 9.71792L10.893 9.54114L10.7162 9.71792ZM15.9994 15.0011L15.8227 15.1779L16.0001 15.3554L16.1769 15.1772L15.9994 15.0011ZM21.2826 9.67632L21.1059 9.49954L21.1052 9.50023L21.2826 9.67632ZM22.2394 9.67632L22.4162 9.49954L22.4162 9.49954L22.2394 9.67632ZM22.281 9.71792L22.4702 9.55451L22.4643 9.5476L22.4578 9.54114L22.281 9.71792ZM15.9995 29.6161C8.48315 29.6161 2.38281 23.5158 2.38281 15.9995H1.88281C1.88281 23.792 8.20701 30.1161 15.9995 30.1161V29.6161ZM29.6161 15.9995C29.6161 23.5158 23.5158 29.6161 15.9995 29.6161V30.1161C23.792 30.1161 30.1161 23.792 30.1161 15.9995H29.6161ZM15.9995 2.38281C23.5158 2.38281 29.6161 8.48315 29.6161 15.9995H30.1161C30.1161 8.20701 23.792 1.88281 15.9995 1.88281V2.38281ZM2.38281 15.9995C2.38281 8.48315 8.48315 2.38281 15.9995 2.38281V1.88281C8.20701 1.88281 1.88281 8.20701 1.88281 15.9995H2.38281ZM15.9995 3.20015C8.95581 3.20015 3.20015 8.95581 3.20015 15.9995H3.70015C3.70015 9.23195 9.23195 3.70015 15.9995 3.70015V3.20015ZM28.7988 15.9995C28.7988 8.94176 23.043 3.20015 15.9995 3.20015V3.70015C22.7672 3.70015 28.2988 9.21826 28.2988 15.9995H28.7988ZM15.9995 28.7988C23.057 28.7988 28.7988 23.057 28.7988 15.9995H28.2988C28.2988 22.7809 22.7809 28.2988 15.9995 28.2988V28.7988ZM3.20015 15.9995C3.20015 23.043 8.94176 28.7988 15.9995 28.7988V28.2988C9.21826 28.2988 3.70015 22.7672 3.70015 15.9995H3.20015ZM17.1746 16.1763L22.4578 10.8931L22.1043 10.5395L16.8211 15.8227L17.1746 16.1763ZM22.4571 21.0636L17.1739 15.822L16.8218 16.177L22.105 21.4186L22.4571 21.0636ZM22.4578 22.4163C22.8254 22.0487 22.8083 21.4691 22.4702 21.0777L22.0918 21.4045C22.2808 21.6233 22.2636 21.9034 22.1043 22.0627L22.4578 22.4163ZM22.4162 22.4579L22.4578 22.4163L22.1043 22.0627L22.0627 22.1043L22.4162 22.4579ZM21.1059 22.4579C21.467 22.819 22.0551 22.819 22.4162 22.4579L22.0627 22.1043C21.8968 22.2702 21.6253 22.2702 21.4594 22.1043L21.1059 22.4579ZM15.8227 17.1747L21.1059 22.4579L21.4594 22.1043L16.1762 16.8211L15.8227 17.1747ZM10.8937 22.4988L16.1769 17.174L15.822 16.8218L10.5388 22.1466L10.8937 22.4988ZM9.58267 22.4995C9.94376 22.8606 10.5319 22.8606 10.893 22.4995L10.5395 22.1459C10.3736 22.3118 10.1021 22.3118 9.93622 22.1459L9.58267 22.4995ZM9.54107 22.4579L9.58267 22.4995L9.93622 22.1459L9.89462 22.1043L9.54107 22.4579ZM9.54107 21.1059C9.17346 21.4736 9.19063 22.0531 9.52864 22.4445L9.90705 22.1177C9.71813 21.899 9.7353 21.6188 9.89462 21.4595L9.54107 21.1059ZM14.8243 15.8227L9.54107 21.1059L9.89462 21.4595L15.1778 16.1763L14.8243 15.8227ZM9.54177 10.9354L14.825 16.177L15.1771 15.822L9.89392 10.5804L9.54177 10.9354ZM9.54107 9.58274C9.17346 9.95035 9.19063 10.5299 9.52864 10.9213L9.90705 10.5945C9.71813 10.3758 9.7353 10.0956 9.89462 9.93629L9.54107 9.58274ZM9.58267 9.54114L9.54107 9.58274L9.89462 9.93629L9.93622 9.89469L9.58267 9.54114ZM10.893 9.54114C10.5319 9.18004 9.94376 9.18004 9.58267 9.54114L9.93622 9.89469C10.1021 9.72886 10.3736 9.72886 10.5395 9.89469L10.893 9.54114ZM16.1762 14.8243L10.893 9.54114L10.5395 9.89469L15.8227 15.1779L16.1762 14.8243ZM21.1052 9.50023L15.822 14.825L16.1769 15.1772L21.4601 9.8524L21.1052 9.50023ZM22.4162 9.49954C22.0551 9.13844 21.467 9.13844 21.1059 9.49954L21.4594 9.85309C21.6253 9.68726 21.8968 9.68726 22.0627 9.85309L22.4162 9.49954ZM22.4578 9.54114L22.4162 9.49954L22.0627 9.85309L22.1043 9.89469L22.4578 9.54114ZM22.4578 10.8931C22.8254 10.5255 22.8083 9.94589 22.4702 9.55451L22.0918 9.88132C22.2808 10.1001 22.2636 10.3802 22.1043 10.5395L22.4578 10.8931Z" fill="white"/>
</g>
</g>
</svg>
