<svg width="20" height="20" viewBox="0 0 20 20" fill="none" xmlns="http://www.w3.org/2000/svg">
<g id="&#229;&#184;&#174;&#229;&#138;&#169;&#228;&#184;&#142;&#229;&#143;&#141;&#233;&#166;&#136;">
<g id="Group 2978">
<path id="Vector" d="M9.41796 10.225H9.26797C9.11797 10.15 8.89297 10.075 8.81797 9.92496C8.74297 9.77496 8.66797 9.69996 8.66797 9.54997V1H14.2929V9.47497C14.2929 9.84996 13.9929 10.225 13.5429 10.225C13.3929 10.225 13.2429 10.15 13.1679 10.075L11.518 8.94997L9.79296 10.075C9.71796 10.15 9.56796 10.225 9.41796 10.225ZM11.518 7.74998C11.668 7.74998 11.8929 7.82498 12.0429 7.89998L13.2429 8.64997V2.12499H9.86796V8.72497L11.068 7.97498C11.143 7.82498 11.368 7.74998 11.518 7.74998Z" fill="#1A49C0" stroke="#1A49C0" stroke-width="0.2"/>
<path id="Vector_2" d="M14.6675 18.9999H5.36756C3.34257 18.9999 1.76758 17.4249 1.76758 15.3999V4.59998C1.76758 2.57499 3.34257 1 5.36756 1H14.7425C16.6925 1 18.2675 2.57499 18.2675 4.59998V15.4749C18.2675 17.4249 16.6925 18.9999 14.6675 18.9999ZM5.36756 2.19999C4.01756 2.19999 2.89257 3.24999 2.89257 4.59998V15.4749C2.89257 16.8249 4.01756 17.8749 5.29256 17.8749H14.6675C16.0175 17.8749 17.0675 16.7499 17.0675 15.4749V4.59998C17.0675 3.24999 15.9425 2.19999 14.6675 2.19999H5.36756Z" fill="#3E3A39" stroke="#3E3A39" stroke-width="0.2"/>
<path id="Vector_3" d="M1.76758 13.75H18.2675V14.875H1.76758V13.75Z" fill="#3E3A39" stroke="#3E3A39" stroke-width="0.2"/>
</g>
</g>
</svg>
