<svg width="14" height="14" viewBox="0 0 14 14" fill="none" xmlns="http://www.w3.org/2000/svg">
<g id="&#229;&#136;&#134;&#228;&#186;&#171;" clip-path="url(#clip0_666_712)">
<path id="Vector" d="M11.4948 12.253C11.9118 12.253 12.25 11.9215 12.25 11.497V8.89002C12.25 8.68452 12.424 8.51802 12.625 8.51802C12.832 8.51802 13 8.68827 13 8.90052V11.4955C13.0021 12.3238 12.3328 12.9971 11.5045 13H2.49551C1.66792 12.9983 0.998352 12.3261 1 11.4985L1.00002 11.4955V8.90053C0.999974 8.69219 1.16671 8.52212 1.37501 8.51804C1.58202 8.51804 1.75001 8.67853 1.75001 8.89004V11.497C1.75001 11.9148 2.0875 12.253 2.50526 12.253H11.4948ZM7.75 6.11354C2.40551 6.26504 1.75001 8.02979 1.75001 8.02979C1.75001 5.3283 3.96851 2.64482 8.50001 2.72882V1.99607L8.51425 1.98256H8.50001V1.81006C8.50001 0.988816 9.01226 0.751069 9.64451 1.28656L12.7555 3.92506C13.072 4.19356 13.072 4.62855 12.7555 4.89706L9.6415 7.54228C9.01151 8.07628 8.50001 7.84378 8.50001 7.02028V6.10303C8.24425 6.10303 7.99751 6.10602 7.7605 6.11277L7.75 6.10303V6.11354ZM8.50001 5.35605C8.914 5.35605 9.25001 5.69055 9.25001 6.10304V6.88303L12.175 4.4103L9.25001 1.93007V2.72807C9.24927 3.14145 8.91356 3.47596 8.50018 3.47522C8.49538 3.47521 8.49057 3.47516 8.48576 3.47506C5.67326 3.42255 3.70302 4.54455 2.90051 6.22004C3.98501 5.71005 5.74901 5.35755 8.50001 5.35755V5.35605Z" fill="#1F56E1" stroke="#1F56E1" stroke-width="0.2"/>
</g>
<defs>
<clipPath id="clip0_666_712">
<rect width="14" height="14" fill="white"/>
</clipPath>
</defs>
</svg>
