<svg width="20" height="20" viewBox="0 0 20 20" fill="none" xmlns="http://www.w3.org/2000/svg">
<g id="&#228;&#191;&#174;&#230;&#148;&#185;&#229;&#175;&#134;&#231;&#160;&#129;">
<g id="Group 3009">
<path id="Vector" d="M17.2511 7.00007H15.2503V5.7813C15.2503 2.86389 12.8991 0.5 9.9995 0.5C7.09986 0.5 4.7512 2.86389 4.7512 5.7813V7.00007H2.7504C2.19942 7.00007 1.75 7.44695 1.75 8.00047V18.4996C1.75 19.0531 2.19688 19.5 2.7504 19.5H17.2511C17.8047 19.5 18.2515 19.0531 18.2515 18.4996V7.99793C18.2515 7.44695 17.8047 7.00007 17.2511 7.00007ZM6.2518 5.7813C6.2518 3.69671 7.93268 2.0006 10.002 2.0006C12.0714 2.0006 13.7523 3.69671 13.7523 5.7813V7.00007H6.2518V5.7813ZM16.7509 17.9994H3.2506V8.49813H16.7509V17.9994Z" fill="#3E3A39"/>
<path id="Vector_2" d="M9.2506 13.8612V16.4993C9.2506 16.7761 9.47404 16.9995 9.7508 16.9995H10.251C10.5278 16.9995 10.7512 16.7761 10.7512 16.4993V13.8612C11.6221 13.5514 12.2518 12.7262 12.2518 11.7487C12.2518 10.507 11.2438 9.49902 9.99963 9.49902C8.75802 9.49902 7.75 10.507 7.75 11.7487C7.75254 12.7287 8.37969 13.5514 9.2506 13.8612ZM10.0022 10.9996C10.416 10.9996 10.7537 11.3348 10.7537 11.7487C10.7537 12.1625 10.416 12.5002 10.0022 12.5002C9.5883 12.5002 9.25314 12.1651 9.25314 11.7487C9.2506 11.3348 9.5883 10.9996 10.0022 10.9996Z" fill="#1A49C0"/>
</g>
</g>
</svg>
