<svg width="20" height="20" viewBox="0 0 20 20" fill="none" xmlns="http://www.w3.org/2000/svg">
<g id="&#229;&#164;&#177;&#231;&#137;&#169;&#230;&#139;&#155;&#233;&#162;&#134;">
<g id="Group 1236">
<path id="Vector" d="M18.6034 10.2045L16.1952 7.07373V2.67377C16.1952 2.28567 15.8424 1.74414 15.2679 1.74414H4.97368C4.48044 1.74414 3.79338 2.21234 3.79338 2.67377V7.08839L1.391 10.2033C1.16817 10.7088 0.988281 11.5357 0.988281 12.0885V16.9341C0.988281 17.285 1.13103 17.6201 1.3852 17.8683C1.64052 18.1165 1.98521 18.2553 2.34615 18.2553H17.6541C18.0127 18.2553 18.3574 18.1154 18.6104 17.8672C18.8634 17.619 19.0038 17.2839 19.0003 16.9341V12.0897C19.0003 11.538 18.8274 10.7099 18.6034 10.2045ZM16.1952 8.40612L17.7806 10.5621C17.8073 10.6242 17.834 10.7189 17.8607 10.7945C17.7933 10.7832 17.7237 10.8035 17.6541 10.8035H16.1952V8.40612ZM4.6789 2.77982C4.75549 2.711 4.90521 2.62188 4.97368 2.62075L15.254 2.61849C15.2795 2.6388 15.2981 2.66587 15.3086 2.69634V10.8035H12.2505C12.0021 10.8035 11.7653 10.9536 11.7653 11.1984V11.6452C11.7653 12.6267 10.9866 12.8411 9.99315 12.8411C8.9997 12.8411 8.22096 12.6267 8.22096 11.6452V11.1984C8.22096 10.9536 7.99697 10.8035 7.74744 10.8035H4.67774V2.77982H4.6789ZM2.21849 10.5632L3.79222 8.39258V10.8047H2.34615C2.27535 10.8047 2.20688 10.7855 2.13841 10.7956C2.1651 10.7189 2.19063 10.6242 2.21849 10.5632ZM18.1148 16.9341C18.1113 17.1801 17.9059 17.3775 17.6529 17.3786H2.34499C2.09663 17.3786 1.87264 17.1801 1.87264 16.9341V12.0897C1.87264 11.8437 2.09663 11.6801 2.34499 11.6801H7.29714C7.29714 13.1412 8.50878 13.7662 9.99895 13.7662C11.488 13.7662 12.7008 13.1412 12.7008 11.6801H17.6529C17.9013 11.6801 18.1148 11.8437 18.1148 12.0897V16.9341Z" fill="#3E3A39" stroke="#3E3A39" stroke-width="0.3"/>
<path id="Vector_2" d="M7.33673 5.39727H12.6521C12.8993 5.39501 13.0966 5.1987 13.0943 4.9584C13.0966 4.71809 12.8982 4.52179 12.6521 4.51953H7.33673C7.21835 4.52066 7.10462 4.56692 7.02222 4.64927C6.93981 4.73163 6.89339 4.84219 6.89455 4.95727C6.89223 5.1987 7.09069 5.39388 7.33673 5.39727ZM13.0943 7.30588C13.0955 7.19081 13.0491 7.08024 12.9667 6.99788C12.8836 6.91584 12.7705 6.86918 12.6521 6.86814H7.33673C7.21835 6.86927 7.10462 6.91553 7.02221 6.99788C6.93981 7.08024 6.89339 7.19081 6.89455 7.30588C6.89223 7.54619 7.09069 7.74249 7.33673 7.74475H12.6521C12.8982 7.74136 13.0966 7.54506 13.0943 7.30588Z" fill="#1A49C0" stroke="#1A49C0" stroke-width="0.3"/>
</g>
</g>
</svg>
