<svg width="20" height="20" viewBox="0 0 20 20" fill="none" xmlns="http://www.w3.org/2000/svg">
<g id="&#228;&#184;&#170;&#228;&#186;&#186;&#228;&#191;&#161;&#230;&#129;&#175;" clip-path="url(#clip0_589_1532)">
<path id="Vector" d="M10 0.5C4.76137 0.5 0.5 4.76137 0.5 10C0.5 11.9463 1.08652 13.819 2.19637 15.4158C2.39174 15.6971 2.77752 15.7665 3.0588 15.5707C3.33967 15.3758 3.40907 14.9896 3.2137 14.7083C2.24883 13.3205 1.73913 11.6922 1.73913 10C1.73913 5.44496 5.44496 1.73913 10 1.73913C14.555 1.73913 18.2609 5.44496 18.2609 10C18.2609 14.555 14.555 18.2609 10 18.2609C8.30776 18.2609 6.67954 17.7512 5.29172 16.7863C5.00961 16.5905 4.62383 16.6599 4.42928 16.9412C4.23391 17.2221 4.3033 17.6083 4.58417 17.8036C6.181 18.9135 8.05374 19.5 10 19.5C15.2386 19.5 19.5 15.2386 19.5 10C19.5 4.76137 15.2386 0.5 10 0.5Z" fill="#3E3A39" stroke="#3E3A39" stroke-width="0.2"/>
<path id="Vector_2" d="M10.0027 5.24401C11.2435 5.24401 12.2526 6.25308 12.2526 7.49345C12.2526 8.73423 11.2435 9.74371 10.0027 9.74371C8.76237 9.74371 7.75331 8.73423 7.75331 7.49345C7.75331 6.25308 8.76237 5.24401 10.0027 5.24401ZM4.6972 14.3301C4.6435 14.668 4.87481 14.9856 5.21226 15.0389C5.5522 15.0926 5.86776 14.8613 5.92105 14.5239C6.24239 12.4904 7.96891 11.0146 10.0267 11.0146C12.0845 11.0146 13.8114 12.4904 14.1323 14.5239C14.1803 14.8287 14.4438 15.0464 14.7437 15.0464C14.7759 15.0464 14.8081 15.0443 14.8411 15.0389C15.1786 14.9856 15.4099 14.668 15.3562 14.3301C15.0584 12.4442 13.8263 10.932 12.1737 10.2204C12.9758 9.58056 13.4917 8.5971 13.4917 7.49345C13.4917 5.5699 11.9267 4.00488 10.0027 4.00488C8.0792 4.00488 6.51418 5.5699 6.51418 7.49345C6.51418 8.60454 7.03791 9.59377 7.84913 10.2332C6.21183 10.9502 4.99335 12.4558 4.6972 14.3301Z" fill="#1A49C0" stroke="#1A49C0" stroke-width="0.2"/>
</g>
<defs>
<clipPath id="clip0_589_1532">
<rect width="20" height="20" fill="white"/>
</clipPath>
</defs>
</svg>
