<svg width="20" height="20" viewBox="0 0 20 20" fill="none" xmlns="http://www.w3.org/2000/svg">
<g id="&#229;&#136;&#160;&#233;&#153;&#164;">
<g id="Group 2996">
<path id="Vector" d="M8.28627 7.71484C7.94342 7.71484 7.71484 7.94342 7.71484 8.28627V14.0006C7.71484 14.3434 7.94342 14.572 8.28627 14.572C8.62913 14.572 8.8577 14.3434 8.8577 14.0006V8.28627C8.8577 7.94342 8.62913 7.71484 8.28627 7.71484Z" fill="#DF1F1F"/>
<path id="Vector_2" d="M17.4286 4.28571H13.4286V3.71429C13.4286 2.74286 12.6857 2 11.7143 2H8.28571C7.31429 2 6.57143 2.74286 6.57143 3.71429V4.28571H2.57143C2.22857 4.28571 2 4.51429 2 4.85714C2 5.2 2.22857 5.42857 2.57143 5.42857H3.71429V16.2857C3.71429 17.2571 4.45714 18 5.42857 18H14.5714C15.5429 18 16.2857 17.2571 16.2857 16.2857V5.42857H17.4286C17.7714 5.42857 18 5.2 18 4.85714C18 4.51429 17.7714 4.28571 17.4286 4.28571ZM7.71429 3.71429C7.71429 3.37143 7.94286 3.14286 8.28571 3.14286H11.7143C12.0571 3.14286 12.2857 3.37143 12.2857 3.71429V4.28571H7.71429V3.71429ZM15.1429 16.2857C15.1429 16.6286 14.9143 16.8571 14.5714 16.8571H5.42857C5.08571 16.8571 4.85714 16.6286 4.85714 16.2857V5.42857H15.1429V16.2857Z" fill="#DF1F1F"/>
<path id="Vector_3" d="M11.714 7.71484C11.3711 7.71484 11.1426 7.94342 11.1426 8.28627V14.0006C11.1426 14.3434 11.3711 14.572 11.714 14.572C12.0569 14.572 12.2854 14.3434 12.2854 14.0006V8.28627C12.2854 7.94342 12.0569 7.71484 11.714 7.71484Z" fill="#DF1F1F"/>
</g>
</g>
</svg>
