<svg width="30" height="30" viewBox="0 0 30 30" fill="none" xmlns="http://www.w3.org/2000/svg">
<g id="&#228;&#184;&#173;&#232;&#139;&#177;&#230;&#150;&#135;&#229;&#136;&#135;&#230;&#141;&#162;" clip-path="url(#clip0_589_1564)">
<g id="Group 2986">
<g id="&#232;&#174;&#190;&#231;&#189;&#174; 2" clip-path="url(#clip1_589_1564)">
<path id="Vector" d="M3.65766 17.9909C4.17218 17.9909 4.68669 18.3727 4.68669 19.0091V22.4455C4.68669 22.9545 5.07258 23.4636 5.71573 23.4636H9.18871C9.70323 23.4636 10.2177 23.8455 10.2177 24.4818C10.2177 25.1182 9.83186 25.5 9.18871 25.5H5.5871C4.04355 25.5 2.62863 24.2273 2.62863 22.7V19.2636C2.62863 18.3727 3.14315 17.9909 3.65766 17.9909ZM8.28831 4.62727C8.80282 4.62727 9.18871 5.00909 9.18871 5.64545V7.3H12.6617C13.4335 7.3 13.948 7.80909 13.948 8.57273V12.6455C13.948 13.4091 13.4335 13.9182 12.6617 13.9182H9.18871V16.3364C9.18871 16.8455 8.80282 17.3545 8.28831 17.3545C7.77379 17.3545 7.25927 16.9727 7.25927 16.3364V13.9182H3.78629C3.01452 13.9182 2.5 13.4091 2.5 12.6455V8.57273C2.5 7.80909 3.01452 7.3 3.78629 7.3H7.25927V5.64545C7.3879 5.13636 7.77379 4.62727 8.28831 4.62727ZM7.38791 9.20909H4.55807V12.0091H7.38791V9.20909ZM12.0186 9.20909H9.18871V12.0091H12.0186V9.20909ZM20.5081 4.5C22.0516 4.5 23.3765 5.55636 23.3379 7.55455V10.9909C23.3379 11.5 22.952 12.0091 22.3089 12.0091C21.6657 12.0091 21.2798 11.6273 21.2798 10.9909V7.55455C21.2798 7.04545 20.894 6.53636 20.2508 6.53636H16.7778C16.2633 6.53636 15.7488 6.15455 15.7488 5.51818C15.7488 4.88182 16.1347 4.5 16.7778 4.5L20.5081 4.5Z" fill="white"/>
</g>
<path id="En" d="M13.39 25.5L15.655 14.79H21.64L21.25 16.65H17.5L17.005 19.005H20.5L20.095 20.865H16.6L16.015 23.625H19.765L19.375 25.5H13.39ZM21.3999 25.5L23.1399 17.31H24.8199L24.6699 18.825H24.7299C24.9399 18.495 25.1699 18.205 25.4199 17.955C25.6799 17.705 25.9649 17.51 26.2749 17.37C26.5849 17.23 26.9299 17.16 27.3099 17.16C27.7799 17.16 28.1699 17.26 28.4799 17.46C28.7999 17.65 29.0349 17.92 29.1849 18.27C29.3449 18.62 29.4249 19.035 29.4249 19.515C29.4249 19.695 29.4099 19.9 29.3799 20.13C29.3499 20.35 29.3099 20.585 29.2599 20.835L28.2849 25.5H26.0799L27.0849 20.715C27.1249 20.545 27.1549 20.39 27.1749 20.25C27.1949 20.1 27.2049 19.965 27.2049 19.845C27.2049 19.535 27.1349 19.31 26.9949 19.17C26.8649 19.02 26.6699 18.945 26.4099 18.945C26.0799 18.945 25.7799 19.09 25.5099 19.38C25.2399 19.66 25.0049 20.04 24.8049 20.52C24.6149 21 24.4549 21.53 24.3249 22.11L23.6049 25.5H21.3999Z" fill="white"/>
</g>
</g>
<defs>
<clipPath id="clip0_589_1564">
<rect width="30" height="30" fill="white"/>
</clipPath>
<clipPath id="clip1_589_1564">
<rect width="22" height="22" fill="white" transform="translate(2 4)"/>
</clipPath>
</defs>
</svg>
