<svg width="20" height="20" viewBox="0 0 20 20" fill="none" xmlns="http://www.w3.org/2000/svg">
<g id="&#229;&#184;&#184;&#231;&#148;&#168;&#233;&#162;&#132;&#231;&#186;&#166;" clip-path="url(#clip0_589_1516)">
<g id="Group 2975">
<path id="Vector" d="M9.43878 16.4748H3.90194C3.48314 16.4748 3.14246 16.1339 3.14246 15.7151V7.99486H17.8064V8.43023C17.8064 8.80077 18.1066 9.10096 18.4771 9.10096C18.8477 9.10096 19.1479 8.80077 19.1479 8.43023V4.61338C19.1479 3.45493 18.2054 2.51243 17.0467 2.51243H15.4674V1.67073C15.4674 1.30019 15.167 1 14.7967 1C14.4263 1 14.1259 1.3004 14.1259 1.67073V2.51243H6.92925V1.67073C6.92925 1.30019 6.62885 1 6.25851 1C5.88797 1 5.58778 1.3004 5.58778 1.67073V2.51243H3.90174C2.74329 2.51243 1.80078 3.45473 1.80078 4.61338V15.7151C1.80078 16.8735 2.74308 17.8162 3.90174 17.8162H9.43878C9.80932 17.8162 10.1095 17.516 10.1095 17.1455C10.1095 16.7749 9.80932 16.4748 9.43878 16.4748ZM3.90194 3.8539H5.58798V4.57964C5.58798 4.95018 5.88838 5.25037 6.25872 5.25037C6.62926 5.25037 6.92945 4.94997 6.92945 4.57964V3.8539H14.1262V4.57964C14.1262 4.95018 14.4265 5.25037 14.7969 5.25037C15.1672 5.25037 15.4676 4.94997 15.4676 4.57964V3.8539H17.0469C17.4657 3.8539 17.8066 4.19458 17.8066 4.61338V6.6534H3.14246V4.61338C3.14246 4.19458 3.48314 3.8539 3.90194 3.8539Z" fill="#3E3A39"/>
<path id="Vector_2" d="M7.61288 10.1826H4.90316C4.53262 10.1826 4.23242 10.483 4.23242 10.8534C4.23242 11.2237 4.53282 11.5241 4.90316 11.5241H7.61288C7.98343 11.5241 8.28362 11.2237 8.28362 10.8534C8.28362 10.483 7.98343 10.1826 7.61288 10.1826ZM17.0688 13.3721H15.6515V11.7777C15.6515 11.4689 15.4012 11.2188 15.0926 11.2188C14.7838 11.2188 14.5337 11.4691 14.5337 11.7777V13.931C14.5337 14.2397 14.784 14.4898 15.0926 14.4898H17.0688C17.3774 14.4898 17.6277 14.2395 17.6277 13.931C17.6277 13.6224 17.3776 13.3721 17.0688 13.3721ZM7.61288 13.7596H4.90316C4.53262 13.7596 4.23242 14.06 4.23242 14.4303C4.23242 14.8009 4.53282 15.1011 4.90316 15.1011H7.61288C7.98343 15.1011 8.28362 14.8007 8.28362 14.4303C8.28362 14.0598 7.98343 13.7596 7.61288 13.7596Z" fill="#1A49C0"/>
<path id="Vector_3" d="M15.0719 8.9209C12.354 8.9209 10.1426 11.1323 10.1426 13.8502C10.1426 16.5681 12.354 18.7795 15.0719 18.7795C17.7898 18.7795 20.0012 16.5681 20.0012 13.8502C20.0012 11.1323 17.7898 8.9209 15.0719 8.9209ZM15.0719 17.4378C13.0934 17.4378 11.484 15.8284 11.484 13.85C11.484 11.8715 13.0934 10.2622 15.0719 10.2622C17.0503 10.2622 18.6597 11.8717 18.6597 13.8502C18.6597 15.8286 17.0503 17.4378 15.0719 17.4378Z" fill="#1A49C0"/>
</g>
</g>
<defs>
<clipPath id="clip0_589_1516">
<rect width="20" height="20" fill="white"/>
</clipPath>
</defs>
</svg>
