<svg width="16" height="16" viewBox="0 0 16 16" fill="none" xmlns="http://www.w3.org/2000/svg">
<g id="&#229;&#186;&#167;&#228;&#189;&#141;">
<g id="Group 2990">
<path id="Vector" d="M14.0527 5.05291H13.2982V2.78721C13.2982 2.32858 12.9791 1.95659 12.5902 1.95659H3.39632C3.00531 1.95659 2.68617 2.32858 2.68617 2.78721V5.05291H1.93164V2.78721C1.93164 1.91221 2.58895 1.19995 3.39632 1.19995H12.5902C13.3975 1.19995 14.0548 1.91221 14.0548 2.78721V5.05291H14.0527Z" fill="#868686" stroke="#868686" stroke-width="0.4"/>
<path id="Vector_2" d="M13.9371 15.2125H12.762C11.906 15.2125 11.2086 14.4875 11.2086 13.5977V13.5829H4.76443V13.5977C4.76443 14.4875 4.06697 15.2125 3.21099 15.2125H2.03587C1.17989 15.2125 0.482422 14.4875 0.482422 13.5977V6.29125C0.482422 5.40145 1.17989 4.67651 2.03587 4.67651H3.20887C4.06485 4.67651 4.76232 5.40145 4.76232 6.29125V9.23117L11.1959 9.22483L11.2044 6.29125C11.2044 5.40145 11.9018 4.67651 12.7578 4.67651H13.9329C14.7889 4.67651 15.4864 5.40145 15.4864 6.29125V13.5977C15.4906 14.4875 14.7931 15.2125 13.9371 15.2125ZM4.00779 12.8263H11.961V13.5956C11.961 14.069 12.3203 14.4558 12.7599 14.4558H13.935C14.3746 14.4558 14.7339 14.069 14.7339 13.5956V6.29125C14.7339 5.81782 14.3768 5.43104 13.935 5.43104H12.7599C12.3203 5.43104 11.961 5.81571 11.961 6.29125L11.9483 9.97936L4.00567 9.98781V6.29125C4.00567 5.81782 3.64849 5.43104 3.20676 5.43104H2.03164C1.59202 5.43104 1.23272 5.81571 1.23272 6.29125V13.5977C1.23272 14.0711 1.58991 14.4579 2.03164 14.4579H3.20887C3.64849 14.4579 4.00779 14.0711 4.00779 13.5977V12.8263Z" fill="#868686" stroke="#868686" stroke-width="0.4"/>
</g>
</g>
</svg>
