<svg width="20" height="20" viewBox="0 0 20 20" fill="none" xmlns="http://www.w3.org/2000/svg">
<g id="&#229;&#186;&#167;&#228;&#189;&#141;&#233;&#162;&#132;&#231;&#186;&#166;&#232;&#174;&#176;&#229;&#189;&#149;">
<g id="Group 3008">
<g id="Group 2980">
<g id="Union">
<path fill-rule="evenodd" clip-rule="evenodd" d="M16.3708 5.8262V3.5619C16.3708 3.01222 15.9893 2.56512 15.5205 2.56512H4.49659C4.02771 2.56512 3.64625 3.01224 3.64625 3.5619V5.82619H3.96424C4.99162 5.82619 5.82756 6.69523 5.82756 7.7634V11.2885L14.152 11.2803L14.1635 7.76199C14.1635 6.69523 14.9994 5.82619 16.0269 5.82619L16.3708 5.8262ZM2.74033 5.83037V3.5619C2.74033 2.51275 3.52824 1.65918 4.49659 1.65918H15.5205C16.4888 1.65918 17.2767 2.51273 17.2767 3.5619V5.83163C18.239 5.90629 19 6.7442 19 7.76342V16.5238C19 17.5919 18.1642 18.4609 17.1367 18.4609L16.0268 18.4609C14.9994 18.4609 14.1635 17.5919 14.1635 16.5238V16.5066L5.82756 16.5066V16.5238C5.82756 17.5919 4.99162 18.4609 3.96424 18.4609H2.86332C1.83584 18.4609 1 17.5919 1 16.5238V7.7634C1 6.73818 1.76998 5.89641 2.74033 5.83037ZM15.0694 15.6007L4.92162 15.6007L4.9216 16.5238C4.9216 17.0924 4.49211 17.555 3.9642 17.555H2.86328C2.33541 17.555 1.90588 17.0924 1.90588 16.5238V7.7634C1.90588 7.19471 2.33539 6.73212 2.86328 6.73212H3.9642C4.49209 6.73212 4.9216 7.19474 4.9216 7.7634V12.1954L15.055 12.1852L15.0694 7.76338C15.0694 7.19469 15.4989 6.7321 16.0269 6.7321L17.1366 6.73212C17.6645 6.73212 18.0941 7.19474 18.0941 7.7634V16.5238C18.0941 17.0924 17.6646 17.555 17.1366 17.555L16.0268 17.555C15.4989 17.555 15.0694 17.0924 15.0694 16.5238V15.6007Z" fill="#3E3A39"/>
<path d="M16.3708 5.8262L16.3708 5.9762L16.5208 5.9762V5.8262H16.3708ZM3.64625 5.82619H3.49625V5.97619H3.64625V5.82619ZM5.82756 11.2885H5.67756V11.4386L5.82771 11.4385L5.82756 11.2885ZM14.152 11.2803L14.1522 11.4303L14.3016 11.4301L14.302 11.2808L14.152 11.2803ZM14.1635 7.76199L14.3135 7.76247V7.76199H14.1635ZM16.0269 5.82619L16.0269 5.67619H16.0269V5.82619ZM2.74033 5.83037L2.75052 5.98002L2.89033 5.9705V5.83037H2.74033ZM17.2767 5.83163H17.1267V5.97044L17.2651 5.98118L17.2767 5.83163ZM19 16.5238H18.85V16.5238L19 16.5238ZM17.1367 18.4609L17.1367 18.6109H17.1367V18.4609ZM16.0268 18.4609L16.0268 18.3109H16.0268V18.4609ZM14.1635 16.5066H14.3135V16.3566H14.1635V16.5066ZM5.82756 16.5066L5.82756 16.3566L5.67756 16.3566V16.5066H5.82756ZM4.92162 15.6007L4.92162 15.4507L4.77162 15.4507L4.77162 15.6007L4.92162 15.6007ZM15.0694 15.6007H15.2194V15.4507H15.0694V15.6007ZM4.9216 16.5238L4.7716 16.5238V16.5238H4.9216ZM4.9216 12.1954H4.7716V12.3455L4.92175 12.3454L4.9216 12.1954ZM15.055 12.1852L15.0552 12.3352L15.2045 12.3351L15.205 12.1857L15.055 12.1852ZM15.0694 7.76338L15.2194 7.76386V7.76338H15.0694ZM16.0269 6.7321L16.0269 6.5821H16.0269V6.7321ZM17.1366 6.73212L17.1366 6.88212H17.1366V6.73212ZM17.1366 17.555L17.1366 17.705H17.1366V17.555ZM16.0268 17.555L16.0268 17.405H16.0268V17.555ZM16.5208 5.8262V3.5619H16.2208V5.8262H16.5208ZM16.5208 3.5619C16.5208 2.95262 16.0936 2.41512 15.5205 2.41512V2.71512C15.885 2.71512 16.2208 3.07183 16.2208 3.5619H16.5208ZM15.5205 2.41512H4.49659V2.71512H15.5205V2.41512ZM4.49659 2.41512C3.9234 2.41512 3.49625 2.95264 3.49625 3.5619H3.79625C3.79625 3.07185 4.13201 2.71512 4.49659 2.71512V2.41512ZM3.49625 3.5619V5.82619H3.79625V3.5619H3.49625ZM3.64625 5.97619H3.96424V5.67619H3.64625V5.97619ZM3.96424 5.97619C4.90334 5.97619 5.67756 6.77252 5.67756 7.7634H5.97756C5.97756 6.61793 5.07991 5.67619 3.96424 5.67619V5.97619ZM5.67756 7.7634V11.2885H5.97756V7.7634H5.67756ZM5.82771 11.4385L14.1522 11.4303L14.1519 11.1303L5.82741 11.1385L5.82771 11.4385ZM14.302 11.2808L14.3135 7.76247L14.0135 7.7615L14.002 11.2798L14.302 11.2808ZM14.3135 7.76199C14.3135 6.7726 15.0876 5.97619 16.0269 5.97619V5.67619C14.9112 5.67619 14.0135 6.61785 14.0135 7.76199H14.3135ZM16.0269 5.97619L16.3708 5.9762L16.3708 5.6762L16.0269 5.67619L16.0269 5.97619ZM2.89033 5.83037V3.5619H2.59033V5.83037H2.89033ZM2.89033 3.5619C2.89033 2.58406 3.62216 1.80918 4.49659 1.80918V1.50918C3.43431 1.50918 2.59033 2.44145 2.59033 3.5619H2.89033ZM4.49659 1.80918H15.5205V1.50918H4.49659V1.80918ZM15.5205 1.80918C16.3948 1.80918 17.1267 2.58404 17.1267 3.5619H17.4267C17.4267 2.44143 16.5827 1.50918 15.5205 1.50918V1.80918ZM17.1267 3.5619V5.83163H17.4267V3.5619H17.1267ZM17.2651 5.98118C18.1451 6.04946 18.85 6.81828 18.85 7.76342H19.15C19.15 6.67013 18.3329 5.76313 17.2883 5.68208L17.2651 5.98118ZM18.85 7.76342V16.5238H19.15V7.76342H18.85ZM18.85 16.5238C18.85 17.5146 18.0759 18.3109 17.1367 18.3109V18.6109C18.2524 18.6109 19.15 17.6692 19.15 16.5238L18.85 16.5238ZM17.1367 18.3109L16.0268 18.3109L16.0268 18.6109L17.1367 18.6109L17.1367 18.3109ZM16.0268 18.3109C15.0877 18.3109 14.3135 17.5146 14.3135 16.5238H14.0135C14.0135 17.6691 14.9111 18.6109 16.0268 18.6109V18.3109ZM14.3135 16.5238V16.5066H14.0135V16.5238H14.3135ZM14.1635 16.3566L5.82756 16.3566L5.82756 16.6566L14.1635 16.6566V16.3566ZM5.67756 16.5066V16.5238H5.97756V16.5066H5.67756ZM5.67756 16.5238C5.67756 17.5146 4.90334 18.3109 3.96424 18.3109V18.6109C5.0799 18.6109 5.97756 17.6692 5.97756 16.5238H5.67756ZM3.96424 18.3109H2.86332V18.6109H3.96424V18.3109ZM2.86332 18.3109C1.92412 18.3109 1.15 17.5146 1.15 16.5238H0.85C0.85 17.6692 1.74755 18.6109 2.86332 18.6109V18.3109ZM1.15 16.5238V7.7634H0.85V16.5238H1.15ZM1.15 7.7634C1.15 6.81265 1.86321 6.04042 2.75052 5.98002L2.73014 5.68071C1.67675 5.75241 0.85 6.66372 0.85 7.7634H1.15ZM4.92162 15.7507L15.0694 15.7507V15.4507L4.92162 15.4507L4.92162 15.7507ZM5.0716 16.5238L5.07162 15.6007L4.77162 15.6007L4.7716 16.5238L5.0716 16.5238ZM3.9642 17.705C4.58526 17.705 5.0716 17.1645 5.0716 16.5238H4.7716C4.7716 17.0202 4.39897 17.405 3.9642 17.405V17.705ZM2.86328 17.705H3.9642V17.405H2.86328V17.705ZM1.75588 16.5238C1.75588 17.1645 2.24227 17.705 2.86328 17.705V17.405C2.42854 17.405 2.05588 17.0202 2.05588 16.5238H1.75588ZM1.75588 7.7634V16.5238H2.05588V7.7634H1.75588ZM2.86328 6.58212C2.24224 6.58212 1.75588 7.12256 1.75588 7.7634H2.05588C2.05588 7.26687 2.42853 6.88212 2.86328 6.88212V6.58212ZM3.9642 6.58212H2.86328V6.88212H3.9642V6.58212ZM5.0716 7.7634C5.0716 7.12259 4.58524 6.58212 3.9642 6.58212V6.88212C4.39895 6.88212 4.7716 7.26689 4.7716 7.7634H5.0716ZM5.0716 12.1954V7.7634H4.7716V12.1954H5.0716ZM15.0549 12.0352L4.92145 12.0454L4.92175 12.3454L15.0552 12.3352L15.0549 12.0352ZM14.9194 7.76289L14.905 12.1848L15.205 12.1857L15.2194 7.76386L14.9194 7.76289ZM16.0269 6.5821C15.4057 6.5821 14.9194 7.12253 14.9194 7.76338H15.2194C15.2194 7.26686 15.592 6.8821 16.0269 6.8821V6.5821ZM17.1367 6.58212L16.0269 6.5821L16.0269 6.8821L17.1366 6.88212L17.1367 6.58212ZM18.2441 7.7634C18.2441 7.12258 17.7577 6.58212 17.1366 6.58212V6.88212C17.5714 6.88212 17.9441 7.26689 17.9441 7.7634H18.2441ZM18.2441 16.5238V7.7634H17.9441V16.5238H18.2441ZM17.1366 17.705C17.7577 17.705 18.2441 17.1645 18.2441 16.5238H17.9441C17.9441 17.0202 17.5714 17.405 17.1366 17.405V17.705ZM16.0268 17.705L17.1366 17.705L17.1367 17.405L16.0268 17.405L16.0268 17.705ZM14.9194 16.5238C14.9194 17.1645 15.4058 17.705 16.0268 17.705V17.405C15.592 17.405 15.2194 17.0202 15.2194 16.5238H14.9194ZM14.9194 15.6007V16.5238H15.2194V15.6007H14.9194Z" fill="#3E3A39"/>
</g>
</g>
<path id="Vector" d="M9.99986 3.51367C7.95152 3.51367 6.29102 5.17418 6.29102 7.22251C6.29102 9.27084 7.95153 10.9314 9.99986 10.9314C12.0482 10.9314 13.7087 9.27084 13.7087 7.22251C13.7087 5.17418 12.0482 3.51367 9.99986 3.51367ZM9.99985 10.3344C8.2812 10.3344 6.88796 8.94117 6.88796 7.22252C6.88796 5.50385 8.28121 4.11061 9.99985 4.11061C11.7185 4.11061 13.1118 5.50385 13.1118 7.22252C13.1118 8.94117 11.7185 10.3344 9.99985 10.3344ZM9.69126 7.85123C9.49789 7.85123 9.34056 7.69393 9.34056 7.50058V5.03387C9.34056 4.84049 9.49789 4.68316 9.69126 4.68316C9.8846 4.68316 10.0419 4.84049 10.0419 5.03387V7.14989H11.5413C11.7346 7.14989 11.892 7.30721 11.892 7.50059C11.892 7.69394 11.7346 7.85124 11.5413 7.85124L9.69126 7.85123Z" fill="#1A49C0" stroke="#1A49C0" stroke-width="0.4"/>
</g>
</g>
</svg>
