<svg width="16" height="16" viewBox="0 0 16 16" fill="none" xmlns="http://www.w3.org/2000/svg">
<g id="&#230;&#139;&#155;&#233;&#162;&#134;&#230;&#159;&#156;&#228;&#189;&#141;&#231;&#189;&#174;" clip-path="url(#clip0_699_3101)">
<g id="Union">
<path fill-rule="evenodd" clip-rule="evenodd" d="M14.8944 5.02253C14.9123 5.262 14.844 5.49997 14.7017 5.69344C14.893 5.76514 15.0579 5.89334 15.1745 6.061C15.2911 6.22867 15.3539 6.42786 15.3546 6.63209V13.9066C15.354 14.1732 15.2478 14.4288 15.0593 14.6173C14.8707 14.8058 14.6152 14.912 14.3486 14.9126H1.64665C1.38002 14.912 1.12449 14.8058 0.93596 14.6173C0.747427 14.4288 0.641239 14.1732 0.640625 13.9066V6.63209C0.641174 6.38317 0.734201 6.14333 0.901645 5.95914C1.06909 5.77496 1.299 5.65956 1.54674 5.63536C1.61496 4.82262 1.88253 4.03924 2.32576 3.35459C2.76898 2.66993 3.37419 2.10513 4.08779 1.71019C4.80139 1.31526 5.60136 1.10237 6.41687 1.09038C7.23238 1.07839 8.03827 1.26767 8.76316 1.64147C9.26365 1.89965 9.7169 2.24057 10.1038 2.64981L10.7729 1.97836C10.9619 1.7898 11.218 1.68391 11.485 1.68391C11.752 1.68391 12.0081 1.7898 12.1971 1.97836L14.6041 4.3877C14.7736 4.55788 14.8765 4.78305 14.8944 5.02253ZM5.83333 1.8398C4.94034 1.97965 4.1147 2.3991 3.47515 3.03782C2.77963 3.73141 2.34539 4.6442 2.24608 5.62142H8.8166L11.14 3.31198C11.218 3.23863 11.321 3.19779 11.4281 3.19779C11.5352 3.19779 11.6382 3.23863 11.7162 3.31198L13.3425 4.85238C13.3809 4.89111 13.411 4.93725 13.431 4.98797C13.4509 5.0387 13.4604 5.09296 13.4587 5.14745C13.4586 5.20274 13.4472 5.25742 13.4252 5.30815C13.4033 5.35889 13.3712 5.40461 13.3309 5.44252L13.1381 5.62607H13.8072L14.1116 5.31938C14.1696 5.26104 14.2022 5.1821 14.2022 5.09982C14.2022 5.01754 14.1696 4.9386 14.1116 4.88026L11.6953 2.47091C11.6366 2.41344 11.5578 2.38125 11.4757 2.38125C11.3936 2.38125 11.3148 2.41344 11.2562 2.47091L10.0503 3.67907L9.81798 3.37703C9.44254 2.91351 8.97497 2.53297 8.44486 2.25949C7.64066 1.84688 6.72632 1.69994 5.83333 1.8398ZM11.4211 3.9997L9.79475 5.62607L12.0926 5.62142L12.4945 5.26594L12.6246 5.1428L11.4211 3.9997ZM14.5694 6.41359C14.5114 6.35564 14.4329 6.32308 14.3509 6.32308H14.3486H1.64897C1.56702 6.32308 1.48842 6.35564 1.43047 6.41359C1.37252 6.47154 1.33996 6.55014 1.33996 6.63209V13.9066C1.33996 13.9886 1.37252 14.0671 1.43047 14.1251C1.48842 14.183 1.56702 14.2156 1.64897 14.2156H14.3509C14.4329 14.2156 14.5114 14.183 14.5694 14.1251C14.6273 14.0671 14.6599 13.9886 14.6599 13.9066V6.63209C14.6599 6.55014 14.6273 6.47154 14.5694 6.41359ZM6.39706 7.26172H9.58706C9.74905 7.26172 9.90944 7.29374 10.059 7.35594C10.2086 7.41814 10.3444 7.5093 10.4586 7.62417C10.5728 7.73903 10.6632 7.87535 10.7246 8.02527C10.7859 8.1752 10.817 8.33577 10.8161 8.49776V8.71383C10.8161 9.0398 10.6866 9.35242 10.4561 9.58292C10.2256 9.81341 9.91303 9.9429 9.58706 9.9429H6.39706C6.23507 9.9429 6.07467 9.91088 5.9251 9.84868C5.77552 9.78648 5.63972 9.69532 5.5255 9.58045C5.41128 9.46558 5.32089 9.32927 5.25954 9.17935C5.19818 9.02942 5.16707 8.86885 5.16799 8.70686V8.49079C5.16799 8.16482 5.29748 7.8522 5.52797 7.6217C5.75847 7.39121 6.07109 7.26172 6.39706 7.26172ZM10.0806 8.91261C10.107 8.84725 10.12 8.77732 10.1191 8.70686V8.49776C10.1191 8.35665 10.0631 8.22132 9.96328 8.12154C9.8635 8.02176 9.72817 7.9657 9.58706 7.9657H6.39706C6.25595 7.9657 6.12062 8.02176 6.02084 8.12154C5.92106 8.22132 5.865 8.35665 5.865 8.49776V8.71383C5.865 8.85494 5.92106 8.99027 6.02084 9.09005C6.12062 9.18983 6.25595 9.24589 6.39706 9.24589H9.58706C9.65752 9.24589 9.72728 9.2319 9.79229 9.20473C9.8573 9.17756 9.91627 9.13774 9.96576 9.08759C10.0153 9.03745 10.0543 8.97797 10.0806 8.91261Z" fill="#707070"/>
<path d="M14.7017 5.69344L14.6212 5.63421L14.5429 5.74069L14.6666 5.78708L14.7017 5.69344ZM14.8944 5.02253L14.9942 5.01507V5.01507L14.8944 5.02253ZM15.1745 6.061L15.2566 6.0039L15.1745 6.061ZM15.3546 6.63209H15.4546L15.4546 6.63176L15.3546 6.63209ZM15.3546 13.9066L15.4546 13.9068V13.9066H15.3546ZM14.3486 14.9126V15.0126L14.3488 15.0126L14.3486 14.9126ZM1.64665 14.9126L1.64642 15.0126H1.64665V14.9126ZM0.93596 14.6173L0.86525 14.688L0.86525 14.688L0.93596 14.6173ZM0.640625 13.9066H0.540625L0.540625 13.9068L0.640625 13.9066ZM0.640625 6.63209L0.540625 6.63187V6.63209H0.640625ZM0.901645 5.95914L0.827651 5.89188L0.901645 5.95914ZM1.54674 5.63536L1.55647 5.73489L1.63942 5.72678L1.64639 5.64372L1.54674 5.63536ZM4.08779 1.71019L4.03937 1.6227L4.08779 1.71019ZM6.41687 1.09038L6.4154 0.99039L6.41687 1.09038ZM8.76316 1.64147L8.80901 1.5526L8.809 1.55259L8.76316 1.64147ZM10.1038 2.64981L10.0311 2.71851L10.1019 2.79338L10.1746 2.7204L10.1038 2.64981ZM10.7729 1.97836L10.7023 1.90756L10.7021 1.90777L10.7729 1.97836ZM12.1971 1.97836L12.2679 1.90768L12.2677 1.90756L12.1971 1.97836ZM14.6041 4.3877L14.675 4.31715L14.6749 4.31703L14.6041 4.3877ZM3.47515 3.03782L3.54576 3.10863L3.54581 3.10858L3.47515 3.03782ZM5.83333 1.8398L5.8488 1.93859L5.83333 1.8398ZM2.24608 5.62142L2.14659 5.61131L2.1354 5.72142H2.24608V5.62142ZM8.8166 5.62142V5.72142H8.85785L8.8871 5.69234L8.8166 5.62142ZM11.14 3.31198L11.0715 3.2391L11.0695 3.24106L11.14 3.31198ZM11.7162 3.31198L11.7849 3.23937L11.7847 3.23913L11.7162 3.31198ZM13.3425 4.85238L13.4136 4.78198L13.4113 4.77978L13.3425 4.85238ZM13.431 4.98797L13.524 4.95134L13.431 4.98797ZM13.4587 5.14745L13.3587 5.14441L13.3587 5.14723L13.4587 5.14745ZM13.3309 5.44252L13.2624 5.36973L13.262 5.37008L13.3309 5.44252ZM13.1381 5.62607L13.0691 5.55363L12.888 5.72607H13.1381V5.62607ZM13.8072 5.62607V5.72607H13.8489L13.8782 5.69651L13.8072 5.62607ZM14.1116 5.31938L14.0407 5.24886L14.0406 5.24894L14.1116 5.31938ZM14.1116 4.88026L14.1825 4.80974L14.1822 4.80945L14.1116 4.88026ZM11.6953 2.47091L11.7659 2.4001L11.7653 2.3995L11.6953 2.47091ZM11.2562 2.47091L11.1861 2.3995L11.1854 2.40027L11.2562 2.47091ZM10.0503 3.67907L9.97106 3.74004L10.0406 3.8304L10.1211 3.74972L10.0503 3.67907ZM9.81798 3.37703L9.89727 3.31604L9.89569 3.31409L9.81798 3.37703ZM8.44486 2.25949L8.49071 2.17062L8.49051 2.17051L8.44486 2.25949ZM9.79475 5.62607L9.72404 5.55536L9.55283 5.72656L9.79495 5.72607L9.79475 5.62607ZM11.4211 3.9997L11.49 3.92719L11.4193 3.86007L11.3504 3.92899L11.4211 3.9997ZM12.0926 5.62142L12.0928 5.72142L12.1305 5.72134L12.1588 5.69633L12.0926 5.62142ZM12.4945 5.26594L12.5608 5.34089L12.5633 5.33857L12.4945 5.26594ZM12.6246 5.1428L12.6934 5.21543L12.77 5.14293L12.6935 5.0703L12.6246 5.1428ZM14.5694 6.41359L14.6401 6.34288V6.34288L14.5694 6.41359ZM1.43047 6.41359L1.50118 6.4843L1.43047 6.41359ZM1.43047 14.1251L1.50118 14.0544L1.50118 14.0544L1.43047 14.1251ZM9.58706 7.26172V7.36172H9.58706L9.58706 7.26172ZM10.059 7.35594L10.0974 7.2636V7.2636L10.059 7.35594ZM10.4586 7.62417L10.5295 7.55366V7.55365L10.4586 7.62417ZM10.7246 8.02527L10.8171 7.9874V7.9874L10.7246 8.02527ZM10.8161 8.49776L10.7161 8.49719V8.49776H10.8161ZM10.4561 9.58292L10.5269 9.65363V9.65363L10.4561 9.58292ZM6.39706 9.9429V9.8429H6.39706L6.39706 9.9429ZM5.9251 9.84868L5.9635 9.75635H5.9635L5.9251 9.84868ZM5.5255 9.58045L5.45459 9.65096V9.65096L5.5255 9.58045ZM5.25954 9.17935L5.16699 9.21722L5.25954 9.17935ZM5.16799 8.70686L5.26799 8.70743V8.70686H5.16799ZM5.52797 7.6217L5.59869 7.69242L5.52797 7.6217ZM10.1191 8.70686H10.0191L10.0191 8.70817L10.1191 8.70686ZM9.96328 8.12154L9.89257 8.19225L9.96328 8.12154ZM6.02084 9.09005L6.09155 9.01934L6.02084 9.09005ZM9.58706 9.24589L9.58707 9.14589H9.58706V9.24589ZM9.96576 9.08759L9.89459 9.01735V9.01735L9.96576 9.08759ZM14.7823 5.75268C14.9387 5.53998 15.0138 5.27835 14.9942 5.01507L14.7947 5.02998C14.8108 5.24565 14.7493 5.45997 14.6212 5.63421L14.7823 5.75268ZM15.2566 6.0039C15.1284 5.81957 14.9471 5.67863 14.7368 5.59981L14.6666 5.78708C14.8389 5.85165 14.9873 5.9671 15.0924 6.1181L15.2566 6.0039ZM15.4546 6.63176C15.4538 6.40722 15.3848 6.18823 15.2566 6.0039L15.0924 6.1181C15.1974 6.2691 15.254 6.44849 15.2546 6.63242L15.4546 6.63176ZM15.4546 13.9066V6.63209H15.2546V13.9066H15.4546ZM15.13 14.688C15.3372 14.4808 15.4539 14.1999 15.4546 13.9068L15.2546 13.9064C15.254 14.1465 15.1584 14.3767 14.9886 14.5466L15.13 14.688ZM14.3488 15.0126C14.6419 15.0119 14.9227 14.8952 15.13 14.688L14.9886 14.5466C14.8187 14.7164 14.5885 14.8121 14.3483 14.8126L14.3488 15.0126ZM1.64665 15.0126H14.3486V14.8126H1.64665V15.0126ZM0.86525 14.688C1.07248 14.8952 1.35335 15.0119 1.64642 15.0126L1.64688 14.8126C1.4067 14.8121 1.17651 14.7164 1.00667 14.5466L0.86525 14.688ZM0.540625 13.9068C0.5413 14.1999 0.658019 14.4808 0.86525 14.688L1.00667 14.5466C0.836835 14.3767 0.741178 14.1465 0.740625 13.9064L0.540625 13.9068ZM0.540625 6.63209V13.9066H0.740625V6.63209H0.540625ZM0.827651 5.89188C0.643525 6.09442 0.541229 6.35815 0.540625 6.63187L0.740625 6.63231C0.741119 6.40819 0.824878 6.19225 0.975639 6.02641L0.827651 5.89188ZM1.53702 5.53583C1.2646 5.56244 1.01178 5.68934 0.827651 5.89188L0.975639 6.02641C1.1264 5.86057 1.33341 5.75667 1.55647 5.73489L1.53702 5.53583ZM2.24181 3.30024C1.78965 3.9987 1.51669 4.79787 1.44709 5.627L1.64639 5.64372C1.71324 4.84737 1.97541 4.07978 2.4097 3.40893L2.24181 3.30024ZM4.03937 1.6227C3.31138 2.0256 2.69397 2.60179 2.24181 3.30024L2.4097 3.40893C2.84399 2.73808 3.437 2.18466 4.13621 1.79769L4.03937 1.6227ZM6.4154 0.99039C5.58345 1.00262 4.76735 1.2198 4.03937 1.6227L4.13621 1.79769C4.83543 1.41071 5.61927 1.20211 6.41834 1.19037L6.4154 0.99039ZM8.809 1.55259C8.06948 1.17126 7.24735 0.978161 6.4154 0.99039L6.41834 1.19037C7.21741 1.17862 8.00705 1.36409 8.71733 1.73035L8.809 1.55259ZM10.1764 2.58112C9.78183 2.16368 9.31951 1.81594 8.80901 1.5526L8.71732 1.73034C9.20779 1.98336 9.65197 2.31745 10.0311 2.71851L10.1764 2.58112ZM10.7021 1.90777L10.0329 2.57923L10.1746 2.7204L10.8437 2.04895L10.7021 1.90777ZM11.485 1.58391C11.1915 1.58391 10.91 1.7003 10.7023 1.90756L10.8435 2.04916C11.0138 1.8793 11.2445 1.78391 11.485 1.78391V1.58391ZM12.2677 1.90756C12.06 1.7003 11.7785 1.58391 11.485 1.58391V1.78391C11.7255 1.78391 11.9562 1.8793 12.1265 2.04916L12.2677 1.90756ZM14.6749 4.31703L12.2679 1.90768L12.1264 2.04903L14.5334 4.45838L14.6749 4.31703ZM14.9942 5.01507C14.9745 4.7518 14.8613 4.50424 14.675 4.31715L14.5333 4.45826C14.6859 4.61152 14.7786 4.81431 14.7947 5.02998L14.9942 5.01507ZM3.54581 3.10858C4.1704 2.4848 4.97671 2.07517 5.8488 1.93859L5.81785 1.741C4.90396 1.88413 4.05901 2.31339 3.40449 2.96706L3.54581 3.10858ZM2.34557 5.63153C2.44255 4.67727 2.86658 3.78592 3.54576 3.10863L3.40454 2.96701C2.69267 3.67689 2.24824 4.61113 2.14659 5.61131L2.34557 5.63153ZM8.8166 5.52142H2.24608V5.72142H8.8166V5.52142ZM11.0695 3.24106L8.74611 5.5505L8.8871 5.69234L11.2105 3.3829L11.0695 3.24106ZM11.4281 3.09779C11.2956 3.09779 11.168 3.14834 11.0715 3.23913L11.2085 3.38482C11.2679 3.32892 11.3465 3.29779 11.4281 3.29779V3.09779ZM11.7847 3.23913C11.6881 3.14834 11.5606 3.09779 11.4281 3.09779V3.29779C11.5097 3.29779 11.5882 3.32892 11.6477 3.38482L11.7847 3.23913ZM13.4113 4.77978L11.7849 3.23938L11.6474 3.38458L13.2738 4.92498L13.4113 4.77978ZM13.524 4.95134C13.4991 4.888 13.4615 4.83038 13.4136 4.78201L13.2715 4.92275C13.3003 4.95185 13.3229 4.9865 13.3379 5.02461L13.524 4.95134ZM13.5587 5.15049C13.5607 5.08244 13.549 5.01469 13.524 4.95134L13.3379 5.02461C13.3529 5.06271 13.36 5.10347 13.3588 5.14441L13.5587 5.15049ZM13.517 5.34789C13.5444 5.28468 13.5586 5.21655 13.5587 5.14767L13.3587 5.14723C13.3586 5.18892 13.35 5.23016 13.3335 5.26841L13.517 5.34789ZM13.3995 5.51531C13.4496 5.46807 13.4896 5.41111 13.517 5.34789L13.3335 5.26841C13.3169 5.30667 13.2927 5.34114 13.2624 5.36973L13.3995 5.51531ZM13.207 5.6985L13.3999 5.51495L13.262 5.37008L13.0691 5.55363L13.207 5.6985ZM13.8072 5.52607H13.1381V5.72607H13.8072V5.52607ZM14.0406 5.24894L13.7362 5.55562L13.8782 5.69651L14.1826 5.38982L14.0406 5.24894ZM14.1022 5.09982C14.1022 5.15567 14.0801 5.20926 14.0407 5.24886L14.1825 5.3899C14.2592 5.31283 14.3022 5.20853 14.3022 5.09982H14.1022ZM14.0407 4.95078C14.0801 4.99038 14.1022 5.04397 14.1022 5.09982H14.3022C14.3022 4.99111 14.2592 4.88681 14.1825 4.80974L14.0407 4.95078ZM11.6247 2.54173L14.041 4.95107L14.1822 4.80945L11.7659 2.4001L11.6247 2.54173ZM11.4757 2.48125C11.5316 2.48125 11.5853 2.50318 11.6253 2.54233L11.7653 2.3995C11.6879 2.32371 11.584 2.28125 11.4757 2.28125V2.48125ZM11.3262 2.54233C11.3661 2.50318 11.4198 2.48125 11.4757 2.48125V2.28125C11.3674 2.28125 11.2635 2.32371 11.1862 2.3995L11.3262 2.54233ZM10.1211 3.74972L11.3269 2.54156L11.1854 2.40027L9.97954 3.60843L10.1211 3.74972ZM9.73872 3.438L9.97106 3.74004L10.1296 3.6181L9.89724 3.31606L9.73872 3.438ZM8.39901 2.34836C8.91682 2.61549 9.37354 2.98721 9.74027 3.43997L9.89569 3.31409C9.51154 2.83981 9.03312 2.45044 8.49071 2.17062L8.39901 2.34836ZM5.8488 1.93859C6.72089 1.80201 7.61383 1.94551 8.39921 2.34846L8.49051 2.17051C7.66748 1.74825 6.73174 1.59787 5.81785 1.741L5.8488 1.93859ZM9.86546 5.69678L11.4918 4.07041L11.3504 3.92899L9.72404 5.55536L9.86546 5.69678ZM12.0924 5.52142L9.79454 5.52607L9.79495 5.72607L12.0928 5.72142L12.0924 5.52142ZM12.4283 5.19103L12.0263 5.54651L12.1588 5.69633L12.5608 5.34085L12.4283 5.19103ZM12.5559 5.07017L12.4258 5.19331L12.5633 5.33857L12.6934 5.21543L12.5559 5.07017ZM11.3522 4.07221L12.5558 5.21531L12.6935 5.0703L11.49 3.92719L11.3522 4.07221ZM14.3509 6.42308C14.4063 6.42308 14.4595 6.4451 14.4987 6.4843L14.6401 6.34288C14.5634 6.26617 14.4594 6.22308 14.3509 6.22308V6.42308ZM14.3486 6.42308H14.3509V6.22308H14.3486V6.42308ZM1.64897 6.42308H14.3486V6.22308H1.64897V6.42308ZM1.50118 6.4843C1.54038 6.4451 1.59354 6.42308 1.64897 6.42308V6.22308C1.5405 6.22308 1.43646 6.26617 1.35976 6.34288L1.50118 6.4843ZM1.43996 6.63209C1.43996 6.57666 1.46198 6.52349 1.50118 6.4843L1.35976 6.34288C1.28305 6.41958 1.23996 6.52361 1.23996 6.63209H1.43996ZM1.43996 13.9066V6.63209H1.23996V13.9066H1.43996ZM1.50118 14.0544C1.46198 14.0152 1.43996 13.962 1.43996 13.9066H1.23996C1.23996 14.0151 1.28305 14.1191 1.35976 14.1958L1.50118 14.0544ZM1.64897 14.1156C1.59354 14.1156 1.54038 14.0936 1.50118 14.0544L1.35976 14.1958C1.43646 14.2725 1.5405 14.3156 1.64897 14.3156V14.1156ZM14.3509 14.1156H1.64897V14.3156H14.3509V14.1156ZM14.4987 14.0544C14.4595 14.0936 14.4063 14.1156 14.3509 14.1156V14.3156C14.4594 14.3156 14.5634 14.2725 14.6401 14.1958L14.4987 14.0544ZM14.5599 13.9066C14.5599 13.962 14.5379 14.0152 14.4987 14.0544L14.6401 14.1958C14.7168 14.1191 14.7599 14.0151 14.7599 13.9066H14.5599ZM14.5599 6.63209V13.9066H14.7599V6.63209H14.5599ZM14.4987 6.4843C14.5379 6.52349 14.5599 6.57666 14.5599 6.63209H14.7599C14.7599 6.52361 14.7168 6.41958 14.6401 6.34288L14.4987 6.4843ZM9.58706 7.16172H6.39706V7.36172H9.58706V7.16172ZM10.0974 7.2636C9.93567 7.19634 9.76223 7.16172 9.58706 7.16172L9.58706 7.36172C9.73587 7.36172 9.88322 7.39113 10.0206 7.44827L10.0974 7.2636ZM10.5295 7.55365C10.406 7.42944 10.2592 7.33087 10.0974 7.2636L10.0206 7.44827C10.158 7.50541 10.2828 7.58915 10.3877 7.69468L10.5295 7.55365ZM10.8171 7.9874C10.7508 7.82528 10.653 7.67787 10.5295 7.55366L10.3877 7.69468C10.4926 7.8002 10.5757 7.92542 10.632 8.06315L10.8171 7.9874ZM10.9161 8.49832C10.9171 8.32316 10.8835 8.14952 10.8171 7.9874L10.632 8.06315C10.6884 8.20087 10.717 8.34838 10.7161 8.49719L10.9161 8.49832ZM10.9161 8.71383V8.49776H10.7161V8.71383H10.9161ZM10.5269 9.65363C10.7761 9.40438 10.9161 9.06632 10.9161 8.71383H10.7161C10.7161 9.01328 10.5972 9.30046 10.3854 9.51221L10.5269 9.65363ZM9.58706 10.0429C9.93955 10.0429 10.2776 9.90287 10.5269 9.65363L10.3854 9.5122C10.1737 9.72395 9.88651 9.8429 9.58706 9.8429V10.0429ZM6.39706 10.0429H9.58706V9.8429H6.39706V10.0429ZM5.8867 9.94101C6.04844 10.0083 6.22189 10.0429 6.39706 10.0429L6.39706 9.8429C6.24824 9.8429 6.1009 9.81349 5.9635 9.75635L5.8867 9.94101ZM5.45459 9.65096C5.5781 9.77518 5.72496 9.87375 5.8867 9.94101L5.9635 9.75635C5.82609 9.69921 5.70134 9.61547 5.59641 9.50994L5.45459 9.65096ZM5.16699 9.21722C5.23334 9.37934 5.33108 9.52675 5.45459 9.65096L5.59641 9.50994C5.49148 9.40442 5.40845 9.2792 5.35209 9.14147L5.16699 9.21722ZM5.06799 8.7063C5.067 8.88146 5.10064 9.0551 5.16699 9.21722L5.35209 9.14147C5.29572 9.00375 5.26714 8.85624 5.26799 8.70743L5.06799 8.7063ZM5.06799 8.49079V8.70686H5.26799V8.49079H5.06799ZM5.45726 7.55099C5.20802 7.80024 5.06799 8.1383 5.06799 8.49079H5.26799C5.26799 8.19134 5.38694 7.90416 5.59869 7.69242L5.45726 7.55099ZM6.39706 7.16172C6.04457 7.16172 5.70651 7.30174 5.45726 7.55099L5.59869 7.69242C5.81043 7.48067 6.09761 7.36172 6.39706 7.36172V7.16172ZM10.0191 8.70817C10.0199 8.76538 10.0092 8.82218 9.98787 8.87525L10.1734 8.94997C10.2047 8.87233 10.2202 8.78925 10.2191 8.70555L10.0191 8.70817ZM10.0191 8.49776V8.70686H10.2191V8.49776H10.0191ZM9.89257 8.19225C9.97359 8.27327 10.0191 8.38317 10.0191 8.49776H10.2191C10.2191 8.33013 10.1525 8.16936 10.034 8.05083L9.89257 8.19225ZM9.58706 8.0657C9.70165 8.0657 9.81154 8.11122 9.89257 8.19225L10.034 8.05083C9.91546 7.93229 9.75469 7.8657 9.58706 7.8657V8.0657ZM6.39706 8.0657H9.58706V7.8657H6.39706V8.0657ZM6.09155 8.19225C6.17257 8.11122 6.28247 8.0657 6.39706 8.0657V7.8657C6.22943 7.8657 6.06866 7.93229 5.95013 8.05083L6.09155 8.19225ZM5.965 8.49776C5.965 8.38317 6.01052 8.27327 6.09155 8.19225L5.95013 8.05083C5.83159 8.16936 5.765 8.33013 5.765 8.49776H5.965ZM5.965 8.71383V8.49776H5.765V8.71383H5.965ZM6.09155 9.01934C6.01052 8.93831 5.965 8.82842 5.965 8.71383H5.765C5.765 8.88146 5.83159 9.04223 5.95013 9.16076L6.09155 9.01934ZM6.39706 9.14589C6.28247 9.14589 6.17257 9.10037 6.09155 9.01934L5.95013 9.16076C6.06866 9.27929 6.22943 9.34589 6.39706 9.34589V9.14589ZM9.58706 9.14589H6.39706V9.34589H9.58706V9.14589ZM9.75373 9.11247C9.70093 9.13453 9.64429 9.14589 9.58707 9.14589L9.58705 9.34589C9.67076 9.34589 9.75363 9.32928 9.83086 9.29699L9.75373 9.11247ZM9.89459 9.01735C9.8544 9.05807 9.80652 9.0904 9.75373 9.11247L9.83086 9.29699C9.90808 9.26471 9.97813 9.21741 10.0369 9.15784L9.89459 9.01735ZM9.98787 8.87525C9.9665 8.92832 9.93479 8.97662 9.89459 9.01735L10.0369 9.15784C10.0957 9.09827 10.1421 9.02762 10.1734 8.94997L9.98787 8.87525Z" fill="#707070"/>
</g>
</g>
<defs>
<clipPath id="clip0_699_3101">
<rect width="16" height="16" fill="white"/>
</clipPath>
</defs>
</svg>
